<svg width="253" height="64" viewBox="0 0 253 64" fill="none" xmlns="http://www.w3.org/2000/svg">
<path d="M3.81234 38.9215C3.68191 38.9283 3.57302 38.8924 3.48567 38.8137C3.39832 38.7351 3.35123 38.6306 3.3444 38.5001L2.73853 26.9395C2.73169 26.8091 2.7676 26.7002 2.84625 26.6128C2.9249 26.5255 3.02944 26.4784 3.15987 26.4716L8.44219 26.1947C9.42632 26.1431 10.2401 26.2432 10.8834 26.4948C11.5267 26.7464 12.0103 27.1254 12.3341 27.6315C12.6697 28.1371 12.8558 28.7396 12.8925 29.4392C12.9155 29.8779 12.8527 30.2676 12.7041 30.6083C12.5673 30.9484 12.386 31.2314 12.16 31.4572C11.9459 31.6825 11.735 31.854 11.5271 31.9719C12.0007 32.1611 12.4225 32.4957 12.7925 32.9757C13.1737 33.4432 13.382 34.0148 13.4174 34.6907C13.4565 35.4377 13.3247 36.0985 13.0219 36.6732C12.7191 37.2479 12.2497 37.7065 11.6138 38.0489C10.9778 38.3914 10.1914 38.5872 9.25473 38.6362L3.81234 38.9215ZM6.08655 36.7157L8.80775 36.573C9.38874 36.5426 9.81906 36.3595 10.0987 36.0239C10.3777 35.6763 10.5054 35.2773 10.4818 34.8267C10.4576 34.3643 10.2833 33.987 9.95882 33.6949C9.64562 33.3903 9.20445 33.2529 8.63531 33.2827L5.91411 33.4253L6.08655 36.7157ZM5.80692 31.38L8.36804 31.2458C8.92533 31.2165 9.33318 31.0584 9.5916 30.7714C9.86125 30.472 9.98458 30.1029 9.96159 29.6641C9.9386 29.2254 9.77798 28.8831 9.47974 28.6372C9.19274 28.3788 8.7706 28.2641 8.21332 28.2933L5.65219 28.4276L5.80692 31.38ZM15.6453 38.3013C15.5149 38.3082 15.406 38.2723 15.3186 38.1936C15.2313 38.115 15.1842 38.0104 15.1774 37.88L14.5715 26.3194C14.5647 26.1889 14.6006 26.08 14.6792 25.9927C14.7579 25.9053 14.8624 25.8583 14.9928 25.8514L17.0026 25.7461C17.133 25.7393 17.2419 25.7752 17.3293 25.8538C17.4166 25.9325 17.4637 26.037 17.4706 26.1674L18.0764 37.7281C18.0833 37.8585 18.0473 37.9674 17.9687 38.0547C17.89 38.1421 17.7855 38.1892 17.6551 38.196L15.6453 38.3013ZM20.635 38.0398C20.5046 38.0467 20.3957 38.0108 20.3083 37.9321C20.221 37.8535 20.1739 37.7489 20.1671 37.6185L19.5612 26.0579C19.5544 25.9274 19.5903 25.8185 19.6689 25.7312C19.7476 25.6438 19.8521 25.5968 19.9825 25.5899L21.8678 25.4911C21.9982 25.4843 22.1071 25.5202 22.1945 25.5988C22.2818 25.6775 22.3289 25.782 22.3357 25.9125L22.5483 29.9676L25.994 25.6137C26.0377 25.5401 26.111 25.4649 26.214 25.3882C26.3282 25.299 26.4802 25.2494 26.6699 25.2395L28.822 25.1267C28.9287 25.1211 29.0198 25.1579 29.0953 25.2372C29.1701 25.3046 29.2101 25.3857 29.215 25.4806C29.2194 25.5636 29.1994 25.636 29.1551 25.6977L24.8657 31.3085L30.084 36.9561C30.1339 37.001 30.1613 37.0709 30.1663 37.1658C30.1713 37.2607 30.1403 37.3514 30.0736 37.4382C30.0061 37.513 29.9191 37.5533 29.8124 37.5589L27.5892 37.6754C27.3757 37.6866 27.2132 37.6475 27.1015 37.5583C26.9898 37.469 26.9152 37.4075 26.8778 37.3738L22.7086 33.0267L22.9416 37.4731C22.9484 37.6035 22.9125 37.7124 22.8339 37.7998C22.7552 37.8871 22.6507 37.9342 22.5203 37.941L20.635 38.0398ZM31.6169 37.4643C31.4865 37.4711 31.3776 37.4352 31.2902 37.3566C31.2029 37.2779 31.1558 37.1734 31.149 37.043L30.5431 25.4823C30.5363 25.3519 30.5722 25.243 30.6508 25.1557C30.7295 25.0683 30.834 25.0212 30.9644 25.0144L39.0213 24.5921C39.1517 24.5853 39.2606 24.6212 39.348 24.6999C39.4353 24.7785 39.4824 24.8831 39.4892 25.0135L39.5638 26.4363C39.57 26.5549 39.5338 26.6579 39.4552 26.7452C39.3765 26.8326 39.272 26.8796 39.1415 26.8865L33.379 27.1885L33.5254 29.9808L38.8966 29.6993C39.027 29.6925 39.1359 29.7284 39.2233 29.807C39.3106 29.8857 39.3577 29.9902 39.3645 30.1207L39.4335 31.4368C39.4397 31.5554 39.4035 31.6583 39.3249 31.7457C39.2462 31.833 39.1417 31.8801 39.0112 31.887L33.64 32.1684L33.791 35.0497L39.6958 34.7403C39.8262 34.7334 39.9351 34.7693 40.0225 34.848C40.1098 34.9266 40.1569 35.0312 40.1638 35.1616L40.2374 36.5667C40.2442 36.6971 40.2083 36.806 40.1297 36.8933C40.051 36.9807 39.9465 37.0278 39.8161 37.0346L31.6169 37.4643Z" fill="#36342C"/>
<path d="M56.7683 36.8577L63.8939 31.8909C64.3578 31.5675 63.9849 30.8605 63.4462 31.0421L57.1246 33.1727C56.686 33.3206 56.1994 33.1869 55.9039 32.8373L54.9877 31.7534C54.6638 31.3701 54.1151 31.2504 53.6551 31.4625L45.4482 35.2459C44.8145 35.5381 44.6116 36.3231 45.0273 36.8742L46.3627 38.6445C46.7138 39.11 47.3764 39.2255 47.8705 38.9073L53.0813 35.5525C53.5668 35.2399 54.2167 35.3452 54.5729 35.7943L55.2427 36.6386C55.6087 37.0999 56.282 37.1966 56.7683 36.8577Z" fill="#36342C"/>
<path d="M57.0377 30.1375L61.993 29.9815C62.5821 29.9629 62.6486 29.1334 62.0697 29.0254L57.4922 28.1717C57.1605 28.1098 56.8755 27.9041 56.7175 27.6125L55.2065 24.8238C54.9311 24.3155 54.2981 24.1047 53.7624 24.3429L53.7035 24.3691C53.0563 24.6569 52.8476 25.4559 53.2746 26.0116L56.1122 29.7037C56.3299 29.9871 56.6753 30.1489 57.0377 30.1375Z" fill="#36342C"/>
<rect width="3.59788" height="6.59089" rx="1.79894" transform="matrix(-0.965926 0.258819 0.258819 0.965926 87.6289 28.8916)" fill="#F8F8F8" stroke="#36342C" stroke-width="2.20779"/>
<path d="M83.6962 38.5774L84.0193 38.4922C85.024 38.2273 85.708 37.2977 85.662 36.2597L85.4799 32.1508L85.6958 28.1288C85.7248 27.5882 85.5542 27.0558 85.2163 26.6327L83.1632 24.062C82.6606 23.4328 81.8553 23.1271 81.0618 23.2643L73.723 24.5336C73.502 24.5719 73.2881 24.6436 73.0887 24.7462L68.9347 26.8849C68.2891 27.2173 67.8482 27.8458 67.7556 28.566L67.2718 32.3244C67.2351 32.6098 67.2545 32.8997 67.329 33.1776L67.983 35.6186L68.722 38.3766C69.013 39.4624 70.1291 40.1068 71.215 39.8159C72.3008 39.5249 72.9452 38.4088 72.6543 37.3229L72.9184 38.3086C73.2093 39.3944 74.3255 40.0388 75.4113 39.7479C76.4972 39.4569 77.1416 38.3408 76.8507 37.2549L76.9374 37.5785C77.2283 38.6644 78.3444 39.3088 79.4303 39.0178C80.5162 38.7268 80.9658 36.8838 80.6748 35.7979L81.0007 37.014C81.3154 38.1885 82.5205 38.8875 83.6962 38.5774Z" fill="#F8F8F8"/>
<path d="M84.0193 38.4922L84.3008 39.5596L84.3008 39.5596L84.0193 38.4922ZM83.6962 38.5774L83.9777 39.6448L83.6962 38.5774ZM80.8461 32.1719C80.6883 31.5831 80.083 31.2336 79.4941 31.3914C78.9052 31.5492 78.5557 32.1545 78.7135 32.7434L80.8461 32.1719ZM85.2163 26.6327L86.0788 25.9438L86.0788 25.9438L85.2163 26.6327ZM83.1632 24.062L82.3006 24.7509L82.3006 24.7509L83.1632 24.062ZM67.7556 28.566L66.6607 28.4251L66.6607 28.4251L67.7556 28.566ZM67.2718 32.3244L66.1769 32.1834L66.1769 32.1834L67.2718 32.3244ZM76.9138 33.2256C76.756 32.6367 76.1507 32.2872 75.5618 32.445C74.973 32.6028 74.6235 33.2081 74.7813 33.797L76.9138 33.2256ZM72.9816 34.2792C72.8238 33.6903 72.2185 33.3409 71.6296 33.4987C71.0407 33.6565 70.6912 34.2618 70.849 34.8507L72.9816 34.2792ZM67.983 35.6186L69.0493 35.3329L69.0493 35.3329L67.983 35.6186ZM67.329 33.1776L66.2627 33.4633L66.2627 33.4633L67.329 33.1776ZM81.0618 23.2643L80.8736 22.1766L80.8736 22.1766L81.0618 23.2643ZM73.723 24.5336L73.5349 23.4459L73.723 24.5336ZM73.0887 24.7462L72.5834 23.7648L72.5834 23.7648L73.0887 24.7462ZM68.9347 26.8849L68.4294 25.9034L68.4294 25.9034L68.9347 26.8849ZM85.6958 28.1288L86.7981 28.188L86.7981 28.188L85.6958 28.1288ZM85.4799 32.1508L84.3776 32.0916L84.3747 32.1457L84.3771 32.1997L85.4799 32.1508ZM85.662 36.2597L86.7648 36.2108L85.662 36.2597ZM83.7379 37.4248L83.4147 37.51L83.9777 39.6448L84.3008 39.5596L83.7379 37.4248ZM82.067 36.7283L81.7411 35.5122L79.6085 36.0836L79.9344 37.2997L82.067 36.7283ZM81.7411 35.5122L80.8461 32.1719L78.7135 32.7434L79.6085 36.0836L81.7411 35.5122ZM86.0788 25.9438L84.0257 23.3731L82.3006 24.7509L84.3537 27.3216L86.0788 25.9438ZM66.6607 28.4251L66.1769 32.1834L68.3667 32.4653L68.8504 28.7069L66.6607 28.4251ZM78.0036 37.2928L77.9169 36.9692L75.7844 37.5406L75.8711 37.8642L78.0036 37.2928ZM77.9169 36.9692L76.9138 33.2256L74.7813 33.797L75.7844 37.5406L77.9169 36.9692ZM79.1446 37.9515C78.6476 38.0847 78.1368 37.7898 78.0036 37.2928L75.8711 37.8642C76.3198 39.539 78.0413 40.5328 79.716 40.0841L79.1446 37.9515ZM79.6085 36.0836C79.6886 36.3823 79.6775 36.891 79.522 37.3557C79.3532 37.8601 79.1506 37.9499 79.1446 37.9515L79.716 40.0841C80.7959 39.7947 81.361 38.8176 81.6157 38.0562C81.8838 37.2551 81.952 36.2994 81.7411 35.5122L79.6085 36.0836ZM73.9847 38.0228L73.7206 37.0372L71.588 37.6086L71.8521 38.5943L73.9847 38.0228ZM73.7206 37.0372L72.9816 34.2792L70.849 34.8507L71.588 37.6086L73.7206 37.0372ZM75.1256 38.6816C74.6287 38.8147 74.1178 38.5198 73.9847 38.0228L71.8521 38.5943C72.3009 40.269 74.0223 41.2629 75.6971 40.8141L75.1256 38.6816ZM75.7844 37.5406C75.9175 38.0376 75.6226 38.5484 75.1256 38.6816L75.6971 40.8141C77.3718 40.3654 78.3657 38.644 77.9169 36.9692L75.7844 37.5406ZM70.9293 38.7496C70.4323 38.8828 69.9215 38.5878 69.7883 38.0909L67.6558 38.6623C68.1045 40.337 69.8259 41.3309 71.5007 40.8822L70.9293 38.7496ZM71.588 37.6086C71.7212 38.1056 71.4262 38.6164 70.9293 38.7496L71.5007 40.8822C73.1754 40.4334 74.1693 38.712 73.7206 37.0372L71.588 37.6086ZM69.7883 38.0909L69.0493 35.3329L66.9168 35.9043L67.6558 38.6623L69.7883 38.0909ZM66.2627 33.4633L66.9168 35.9043L69.0493 35.3329L68.3953 32.8919L66.2627 33.4633ZM80.8736 22.1766L73.5349 23.4459L73.9111 25.6214L81.2499 24.3521L80.8736 22.1766ZM72.5834 23.7648L68.4294 25.9034L69.44 27.8664L73.594 25.7277L72.5834 23.7648ZM84.5935 28.0697L84.3776 32.0916L86.5822 32.21L86.7981 28.188L84.5935 28.0697ZM84.3771 32.1997L84.5592 36.3085L86.7648 36.2108L86.5827 32.1019L84.3771 32.1997ZM73.5349 23.4459C73.2033 23.5032 72.8825 23.6108 72.5834 23.7648L73.594 25.7277C73.6937 25.6763 73.8006 25.6405 73.9111 25.6214L73.5349 23.4459ZM66.1769 32.1834C66.1218 32.6116 66.151 33.0464 66.2627 33.4633L68.3953 32.8919C68.358 32.7529 68.3483 32.608 68.3667 32.4653L66.1769 32.1834ZM68.8504 28.7069C68.8968 28.3468 69.1172 28.0325 69.44 27.8664L68.4294 25.9034C67.461 26.402 66.7997 27.3448 66.6607 28.4251L68.8504 28.7069ZM84.0257 23.3731C83.2719 22.4293 82.0639 21.9707 80.8736 22.1766L81.2499 24.3521C81.6467 24.2835 82.0493 24.4363 82.3006 24.7509L84.0257 23.3731ZM83.4147 37.51C82.8269 37.665 82.2243 37.3156 82.067 36.7283L79.9344 37.2997C80.4065 39.0615 82.2141 40.1099 83.9777 39.6448L83.4147 37.51ZM84.3008 39.5596C85.8078 39.1622 86.8338 37.7678 86.7648 36.2108L84.5592 36.3085C84.5822 36.8275 84.2402 37.2923 83.7379 37.4248L84.3008 39.5596ZM84.3537 27.3216C84.5227 27.5331 84.608 27.7994 84.5935 28.0697L86.7981 28.188C86.8416 27.3771 86.5856 26.5784 86.0788 25.9438L84.3537 27.3216Z" fill="#36342C"/>
<path d="M99.4417 36.7356C98.3034 36.676 97.3576 36.46 96.6043 36.0876C95.8629 35.7158 95.3105 35.2529 94.9472 34.6988C94.5838 34.1447 94.4062 33.5647 94.4142 32.9588C94.4191 32.8639 94.459 32.7828 94.5339 32.7154C94.6094 32.6361 94.7005 32.5992 94.8072 32.6048L96.7103 32.7046C96.8644 32.7127 96.9811 32.7544 97.0604 32.8299C97.1403 32.8936 97.2133 32.9747 97.2795 33.0733C97.3519 33.2792 97.4721 33.4817 97.64 33.6807C97.8198 33.8803 98.0663 34.0538 98.3796 34.201C98.6936 34.3363 99.0877 34.4164 99.5619 34.4413C100.333 34.4817 100.914 34.3873 101.307 34.1582C101.711 33.9297 101.924 33.602 101.947 33.1752C101.963 32.8669 101.869 32.6123 101.666 32.4114C101.474 32.2111 101.157 32.0221 100.715 31.8444C100.284 31.6672 99.7058 31.4705 98.9799 31.2541C98.1006 31.0178 97.3545 30.7349 96.7416 30.4056C96.1412 30.065 95.6933 29.6492 95.3981 29.1581C95.1153 28.6558 94.9925 28.0489 95.0298 27.3375C95.0671 26.6261 95.2956 26.0079 95.7155 25.483C96.136 24.9462 96.71 24.5423 97.4376 24.2713C98.1658 23.9885 99.022 23.8728 100.006 23.9244C100.801 23.9661 101.495 24.1094 102.088 24.3545C102.693 24.6003 103.189 24.9056 103.574 25.2706C103.971 25.6362 104.266 26.0203 104.459 26.4227C104.652 26.8252 104.744 27.2105 104.737 27.5787C104.732 27.6736 104.692 27.7606 104.616 27.8399C104.541 27.9073 104.451 27.9382 104.344 27.9326L102.352 27.8283C102.233 27.822 102.128 27.7927 102.035 27.7403C101.943 27.6879 101.87 27.6009 101.817 27.4792C101.762 27.1672 101.563 26.8892 101.219 26.6453C100.888 26.3901 100.443 26.248 99.8859 26.2188C99.3049 26.1883 98.8369 26.2708 98.4818 26.4662C98.1386 26.6622 97.9555 26.9796 97.9326 27.4183C97.9176 27.7029 97.9879 27.9503 98.1433 28.1606C98.3112 28.3596 98.5927 28.5467 98.9878 28.722C99.3953 28.886 99.9324 29.0747 100.599 29.288C101.631 29.5561 102.466 29.8554 103.102 30.1861C103.739 30.5167 104.199 30.9272 104.482 31.4176C104.766 31.8962 104.89 32.4912 104.852 33.2026C104.811 33.997 104.55 34.667 104.069 35.2125C103.601 35.7587 102.967 36.1654 102.168 36.4327C101.382 36.6887 100.473 36.7897 99.4417 36.7356ZM109.1 37.0634C108.969 37.0566 108.865 37.0095 108.786 36.9222C108.708 36.8348 108.672 36.7259 108.679 36.5955L109.178 27.0624L105.941 26.8928C105.823 26.8866 105.724 26.8398 105.645 26.7524C105.567 26.6651 105.53 26.5621 105.537 26.4436L105.621 24.8429C105.627 24.7124 105.674 24.6079 105.762 24.5292C105.849 24.4506 105.952 24.4144 106.071 24.4206L115.39 24.909C115.521 24.9159 115.625 24.9629 115.704 25.0503C115.783 25.1376 115.819 25.2465 115.812 25.377L115.728 26.9777C115.722 27.0962 115.675 27.1948 115.587 27.2735C115.5 27.3521 115.391 27.388 115.261 27.3812L112.042 27.2125L111.542 36.7456C111.535 36.876 111.488 36.9805 111.401 37.0592C111.313 37.1378 111.204 37.1737 111.074 37.1669L109.1 37.0634ZM116.804 37.4672C116.674 37.4604 116.569 37.4133 116.491 37.3259C116.412 37.2386 116.376 37.1297 116.383 36.9993L116.989 25.4387C116.996 25.3082 117.043 25.2037 117.13 25.125C117.217 25.0464 117.326 25.0105 117.457 25.0173L122.17 25.2643C123.652 25.342 124.802 25.7471 125.62 26.4795C126.438 27.2001 126.814 28.2007 126.746 29.4812C126.701 30.3468 126.456 31.0592 126.01 31.6185C125.565 32.1777 124.985 32.5813 124.27 32.8292L126.545 37.407C126.577 37.48 126.591 37.5462 126.588 37.6054C126.583 37.7003 126.543 37.7874 126.468 37.8666C126.393 37.9341 126.302 37.965 126.195 37.9594L124.221 37.8559C124.008 37.8447 123.85 37.783 123.749 37.6707C123.649 37.5465 123.577 37.4358 123.535 37.3384L121.578 33.1518L119.426 33.039L119.211 37.1475C119.204 37.2779 119.157 37.3825 119.07 37.4611C118.982 37.5397 118.873 37.5757 118.743 37.5688L116.804 37.4672ZM119.545 30.7802L121.821 30.8996C122.473 30.9337 122.961 30.8107 123.285 30.5304C123.621 30.2508 123.803 29.8442 123.831 29.3106C123.859 28.777 123.726 28.348 123.434 28.0236C123.142 27.6991 122.664 27.5195 122 27.4847L119.724 27.3654L119.545 30.7802ZM128.394 38.0746C128.264 38.0678 128.159 38.0207 128.081 37.9333C128.002 37.846 127.966 37.7371 127.973 37.6067L128.579 26.046C128.586 25.9156 128.633 25.8111 128.72 25.7324C128.807 25.6538 128.916 25.6179 129.047 25.6247L137.103 26.047C137.234 26.0538 137.338 26.1009 137.417 26.1882C137.496 26.2756 137.532 26.3845 137.525 26.5149L137.45 27.9377C137.444 28.0563 137.397 28.1549 137.31 28.2336C137.223 28.3122 137.114 28.3481 136.983 28.3413L131.221 28.0393L131.074 30.8316L136.446 31.1131C136.576 31.12 136.681 31.1671 136.759 31.2544C136.838 31.3417 136.874 31.4506 136.867 31.5811L136.798 32.8972C136.792 33.0158 136.745 33.1144 136.658 33.193C136.57 33.2717 136.461 33.3076 136.331 33.3007L130.96 33.0193L130.809 35.9005L136.714 36.21C136.844 36.2168 136.949 36.2639 137.027 36.3513C137.106 36.4386 137.142 36.5475 137.135 36.6779L137.061 38.083C137.054 38.2134 137.007 38.3179 136.92 38.3966C136.833 38.4752 136.724 38.5112 136.593 38.5043L128.394 38.0746ZM143.091 39.0232C141.953 38.9636 141.007 38.7475 140.254 38.3751C139.513 38.0034 138.96 37.5405 138.597 36.9864C138.234 36.4323 138.056 35.8523 138.064 35.2463C138.069 35.1515 138.109 35.0704 138.184 35.0029C138.259 34.9237 138.35 34.8868 138.457 34.8924L140.36 34.9922C140.514 35.0002 140.631 35.042 140.71 35.1175C140.79 35.1812 140.863 35.2623 140.929 35.3608C141.002 35.5668 141.122 35.7692 141.29 35.9683C141.47 36.1679 141.716 36.3414 142.029 36.4886C142.343 36.6239 142.737 36.704 143.212 36.7289C143.982 36.7693 144.564 36.6749 144.956 36.4458C145.361 36.2173 145.574 35.8896 145.596 35.4628C145.613 35.1545 145.519 34.8999 145.315 34.699C145.124 34.4987 144.807 34.3097 144.364 34.132C143.934 33.9548 143.355 33.7581 142.63 33.5417C141.75 33.3054 141.004 33.0225 140.391 32.6932C139.791 32.3526 139.343 31.9367 139.048 31.4457C138.765 30.9434 138.642 30.3365 138.679 29.6251C138.717 28.9137 138.945 28.2955 139.365 27.7706C139.786 27.2338 140.36 26.8299 141.087 26.5589C141.816 26.2761 142.672 26.1604 143.656 26.212C144.45 26.2536 145.144 26.397 145.738 26.6421C146.343 26.8879 146.838 27.1932 147.223 27.5582C147.62 27.9238 147.915 28.3079 148.108 28.7103C148.301 29.1128 148.394 29.4981 148.387 29.8663C148.382 29.9612 148.341 30.0482 148.266 30.1275C148.191 30.1949 148.1 30.2258 147.994 30.2202L146.002 30.1158C145.883 30.1096 145.778 30.0803 145.685 30.0279C145.593 29.9755 145.52 29.8885 145.467 29.7668C145.412 29.4548 145.213 29.1768 144.869 28.9329C144.537 28.6777 144.093 28.5355 143.536 28.5063C142.955 28.4759 142.487 28.5584 142.132 28.7538C141.788 28.9498 141.605 29.2672 141.582 29.7059C141.567 29.9905 141.638 30.2379 141.793 30.4481C141.961 30.6472 142.242 30.8343 142.638 31.0096C143.045 31.1736 143.582 31.3623 144.249 31.5756C145.281 31.8437 146.115 32.143 146.752 32.4736C147.388 32.8042 147.848 33.2148 148.132 33.7052C148.416 34.1838 148.539 34.7788 148.502 35.4902C148.46 36.2846 148.199 36.9546 147.719 37.5001C147.25 38.0463 146.617 38.453 145.818 38.7203C145.032 38.9763 144.123 39.0773 143.091 39.0232ZM154.16 39.6033C153.022 39.5436 152.076 39.3276 151.323 38.9552C150.581 38.5835 150.029 38.1205 149.666 37.5665C149.302 37.0124 149.125 36.4324 149.133 35.8264C149.138 35.7316 149.178 35.6504 149.252 35.583C149.328 35.5038 149.419 35.4669 149.526 35.4725L151.429 35.5722C151.583 35.5803 151.7 35.6221 151.779 35.6976C151.859 35.7612 151.932 35.8423 151.998 35.9409C152.07 36.1469 152.191 36.3493 152.358 36.5484C152.538 36.748 152.785 36.9215 153.098 37.0687C153.412 37.204 153.806 37.2841 154.28 37.309C155.051 37.3494 155.633 37.255 156.025 37.0259C156.43 36.7974 156.643 36.4697 156.665 36.0429C156.681 35.7346 156.588 35.48 156.384 35.2791C156.193 35.0788 155.876 34.8898 155.433 34.712C155.002 34.5349 154.424 34.3381 153.698 34.1218C152.819 33.8854 152.073 33.6026 151.46 33.2732C150.86 32.9327 150.412 32.5168 150.117 32.0258C149.834 31.5235 149.711 30.9166 149.748 30.2052C149.786 29.4938 150.014 28.8756 150.434 28.3507C150.854 27.8139 151.428 27.41 152.156 27.139C152.884 26.8562 153.74 26.7405 154.725 26.7921C155.519 26.8337 156.213 26.9771 156.806 27.2222C157.412 27.468 157.907 27.7733 158.292 28.1383C158.689 28.5039 158.984 28.8879 159.177 29.2904C159.37 29.6929 159.463 30.0782 159.455 30.4464C159.45 30.5413 159.41 30.6283 159.335 30.7076C159.26 30.775 159.169 30.8059 159.062 30.8003L157.07 30.6959C156.952 30.6897 156.846 30.6604 156.754 30.608C156.662 30.5556 156.589 30.4686 156.536 30.3469C156.481 30.0349 156.281 29.7569 155.937 29.513C155.606 29.2578 155.162 29.1156 154.604 29.0864C154.023 29.056 153.555 29.1385 153.2 29.3339C152.857 29.5299 152.674 29.8473 152.651 30.286C152.636 30.5705 152.706 30.818 152.862 31.0282C153.03 31.2273 153.311 31.4144 153.706 31.5897C154.114 31.7537 154.651 31.9424 155.317 32.1557C156.35 32.4238 157.184 32.7231 157.821 33.0537C158.457 33.3843 158.917 33.7948 159.201 34.2853C159.485 34.7639 159.608 35.3589 159.571 36.0703C159.529 36.8647 159.268 37.5347 158.788 38.0802C158.319 38.6264 157.686 39.0331 156.887 39.3003C156.101 39.5564 155.192 39.6574 154.16 39.6033Z" fill="#36342C"/>
<rect x="166.626" y="28.8916" width="3.59788" height="6.59089" rx="1.79894" transform="rotate(15 166.626 28.8916)" fill="#F8F8F8" stroke="#36342C" stroke-width="2.20779"/>
<path d="M170.559 38.5774L170.236 38.4922C169.231 38.2273 168.547 37.2977 168.593 36.2597L168.775 32.1508L168.559 28.1288C168.53 27.5882 168.701 27.0558 169.039 26.6327L171.092 24.062C171.594 23.4328 172.4 23.1271 173.193 23.2643L180.532 24.5336C180.753 24.5719 180.967 24.6436 181.166 24.7462L185.32 26.8849C185.966 27.2173 186.407 27.8458 186.499 28.566L186.983 32.3244C187.02 32.6098 187 32.8997 186.926 33.1776L186.272 35.6186L185.533 38.3766C185.242 39.4624 184.126 40.1068 183.04 39.8159C181.954 39.5249 181.31 38.4088 181.601 37.3229L181.336 38.3086C181.046 39.3944 179.929 40.0388 178.844 39.7479C177.758 39.4569 177.113 38.3408 177.404 37.2549L177.318 37.5785C177.027 38.6644 175.91 39.3088 174.825 39.0178C173.739 38.7268 173.289 36.8838 173.58 35.7979L173.254 37.014C172.939 38.1885 171.734 38.8875 170.559 38.5774Z" fill="#F8F8F8"/>
<path d="M170.236 38.4922L169.954 39.5596L169.954 39.5596L170.236 38.4922ZM170.559 38.5774L170.277 39.6448L170.559 38.5774ZM173.409 32.1719C173.567 31.5831 174.172 31.2336 174.761 31.3914C175.35 31.5492 175.699 32.1545 175.541 32.7434L173.409 32.1719ZM169.039 26.6327L168.176 25.9438L168.176 25.9438L169.039 26.6327ZM171.092 24.062L171.954 24.7509L171.954 24.7509L171.092 24.062ZM186.499 28.566L187.594 28.4251L187.594 28.4251L186.499 28.566ZM186.983 32.3244L188.078 32.1834L188.078 32.1834L186.983 32.3244ZM177.341 33.2256C177.499 32.6367 178.104 32.2872 178.693 32.445C179.282 32.6028 179.631 33.2081 179.474 33.797L177.341 33.2256ZM181.273 34.2792C181.431 33.6903 182.036 33.3409 182.625 33.4987C183.214 33.6565 183.564 34.2618 183.406 34.8507L181.273 34.2792ZM186.272 35.6186L185.206 35.3329L185.206 35.3329L186.272 35.6186ZM186.926 33.1776L187.992 33.4633L187.992 33.4633L186.926 33.1776ZM173.193 23.2643L173.381 22.1766L173.381 22.1766L173.193 23.2643ZM180.532 24.5336L180.72 23.4459L180.532 24.5336ZM181.166 24.7462L181.672 23.7648L181.672 23.7648L181.166 24.7462ZM185.32 26.8849L185.826 25.9034L185.826 25.9034L185.32 26.8849ZM168.559 28.1288L167.457 28.188L167.457 28.188L168.559 28.1288ZM168.775 32.1508L169.877 32.0916L169.88 32.1457L169.878 32.1997L168.775 32.1508ZM168.593 36.2597L167.49 36.2108L168.593 36.2597ZM170.517 37.4248L170.84 37.51L170.277 39.6448L169.954 39.5596L170.517 37.4248ZM172.188 36.7283L172.514 35.5122L174.646 36.0836L174.32 37.2997L172.188 36.7283ZM172.514 35.5122L173.409 32.1719L175.541 32.7434L174.646 36.0836L172.514 35.5122ZM168.176 25.9438L170.229 23.3731L171.954 24.7509L169.901 27.3216L168.176 25.9438ZM187.594 28.4251L188.078 32.1834L185.888 32.4653L185.404 28.7069L187.594 28.4251ZM176.251 37.2928L176.338 36.9692L178.471 37.5406L178.384 37.8642L176.251 37.2928ZM176.338 36.9692L177.341 33.2256L179.474 33.797L178.471 37.5406L176.338 36.9692ZM175.11 37.9515C175.607 38.0847 176.118 37.7898 176.251 37.2928L178.384 37.8642C177.935 39.539 176.214 40.5328 174.539 40.0841L175.11 37.9515ZM174.646 36.0836C174.566 36.3823 174.577 36.891 174.733 37.3557C174.902 37.8601 175.104 37.9499 175.11 37.9515L174.539 40.0841C173.459 39.7947 172.894 38.8176 172.639 38.0562C172.371 37.2551 172.303 36.2994 172.514 35.5122L174.646 36.0836ZM180.27 38.0228L180.534 37.0372L182.667 37.6086L182.403 38.5943L180.27 38.0228ZM180.534 37.0372L181.273 34.2792L183.406 34.8507L182.667 37.6086L180.534 37.0372ZM179.129 38.6816C179.626 38.8147 180.137 38.5198 180.27 38.0228L182.403 38.5943C181.954 40.269 180.233 41.2629 178.558 40.8141L179.129 38.6816ZM178.471 37.5406C178.337 38.0376 178.632 38.5484 179.129 38.6816L178.558 40.8141C176.883 40.3654 175.889 38.644 176.338 36.9692L178.471 37.5406ZM183.326 38.7496C183.823 38.8828 184.333 38.5878 184.467 38.0909L186.599 38.6623C186.15 40.337 184.429 41.3309 182.754 40.8822L183.326 38.7496ZM182.667 37.6086C182.534 38.1056 182.829 38.6164 183.326 38.7496L182.754 40.8822C181.079 40.4334 180.086 38.712 180.534 37.0372L182.667 37.6086ZM184.467 38.0909L185.206 35.3329L187.338 35.9043L186.599 38.6623L184.467 38.0909ZM187.992 33.4633L187.338 35.9043L185.206 35.3329L185.86 32.8919L187.992 33.4633ZM173.381 22.1766L180.72 23.4459L180.344 25.6214L173.005 24.3521L173.381 22.1766ZM181.672 23.7648L185.826 25.9034L184.815 27.8664L180.661 25.7277L181.672 23.7648ZM169.661 28.0697L169.877 32.0916L167.673 32.21L167.457 28.188L169.661 28.0697ZM169.878 32.1997L169.696 36.3085L167.49 36.2108L167.672 32.1019L169.878 32.1997ZM180.72 23.4459C181.052 23.5032 181.372 23.6108 181.672 23.7648L180.661 25.7277C180.561 25.6763 180.454 25.6405 180.344 25.6214L180.72 23.4459ZM188.078 32.1834C188.133 32.6116 188.104 33.0464 187.992 33.4633L185.86 32.8919C185.897 32.7529 185.907 32.608 185.888 32.4653L188.078 32.1834ZM185.404 28.7069C185.358 28.3468 185.138 28.0325 184.815 27.8664L185.826 25.9034C186.794 26.402 187.455 27.3448 187.594 28.4251L185.404 28.7069ZM170.229 23.3731C170.983 22.4293 172.191 21.9707 173.381 22.1766L173.005 24.3521C172.608 24.2835 172.206 24.4363 171.954 24.7509L170.229 23.3731ZM170.84 37.51C171.428 37.665 172.031 37.3156 172.188 36.7283L174.32 37.2997C173.848 39.0615 172.041 40.1099 170.277 39.6448L170.84 37.51ZM169.954 39.5596C168.447 39.1622 167.421 37.7678 167.49 36.2108L169.696 36.3085C169.673 36.8275 170.015 37.2923 170.517 37.4248L169.954 39.5596ZM169.901 27.3216C169.732 27.5331 169.647 27.7994 169.661 28.0697L167.457 28.188C167.413 27.3771 167.669 26.5784 168.176 25.9438L169.901 27.3216Z" fill="#36342C"/>
<path d="M195.726 27.7045L190.352 31.8404C189.913 32.1787 190.255 32.8947 190.782 32.7394L196.403 31.084C196.676 31.0036 196.969 31.0342 197.22 31.1695L201 33.1993C201.349 33.3868 201.768 33.3696 202.102 33.1542L209.664 28.2723C210.239 27.901 210.362 27.0889 209.923 26.5547L208.633 24.9845C208.258 24.5285 207.608 24.4458 207.137 24.7945L201.268 29.1451C200.936 29.3919 200.498 29.4295 200.13 29.243L196.881 27.5946C196.506 27.4048 196.061 27.4472 195.726 27.7045Z" fill="#36342C"/>
<path d="M196.151 33.5891L192.706 33.9287C192.104 33.9881 192.114 34.8985 192.717 34.9445L194.879 35.1096C195.332 35.1442 195.719 35.4601 195.857 35.9076L196.525 38.0812C196.664 38.5327 197.057 38.8499 197.514 38.88L205.705 39.4184C206.346 39.4605 206.888 38.9351 206.888 38.2719V37.3147C206.888 36.6802 206.39 36.1659 205.776 36.1659H198.687C198.206 36.1659 197.78 35.8467 197.63 35.3746L197.313 34.3751C197.152 33.8645 196.669 33.538 196.151 33.5891Z" fill="#36342C"/>
<path d="M215.887 38.8923C215.768 38.8985 215.659 38.8626 215.56 38.7846C215.473 38.7059 215.425 38.6014 215.419 38.471L214.813 26.9103C214.806 26.7799 214.842 26.671 214.921 26.5837C215.011 26.4957 215.116 26.4486 215.234 26.4424L216.888 26.3557C217.066 26.3464 217.199 26.387 217.287 26.4775C217.387 26.5674 217.456 26.6351 217.494 26.6807L221.082 32.5385L224.074 26.3358C224.096 26.2871 224.145 26.2132 224.223 26.114C224.313 26.0141 224.447 25.9596 224.625 25.9502L226.279 25.8636C226.409 25.8567 226.518 25.8926 226.606 25.9713C226.693 26.0499 226.74 26.1545 226.747 26.2849L227.353 37.8455C227.36 37.976 227.324 38.0848 227.245 38.1722C227.166 38.2595 227.062 38.3066 226.931 38.3135L225.117 38.4085C224.999 38.4148 224.896 38.3785 224.808 38.2999C224.721 38.2212 224.674 38.1167 224.667 37.9863L224.291 30.8009L222.254 35.1522C222.2 35.2621 222.128 35.361 222.037 35.4489C221.947 35.5369 221.825 35.5849 221.67 35.593L220.834 35.6368C220.68 35.6449 220.554 35.6099 220.454 35.5319C220.355 35.4539 220.273 35.363 220.208 35.2594L217.728 31.1448L218.104 38.3302C218.111 38.4606 218.075 38.5695 217.997 38.6569C217.918 38.7442 217.819 38.791 217.701 38.7972L215.887 38.8923ZM228.752 38.2181C228.645 38.2237 228.554 38.1928 228.479 38.1253C228.404 38.0461 228.363 37.959 228.358 37.8642C228.355 37.8049 228.358 37.7512 228.368 37.7032L232.001 26.0452C232.03 25.9129 232.095 25.7965 232.197 25.6961C232.299 25.5956 232.445 25.5404 232.634 25.5305L234.911 25.4112C235.101 25.4012 235.251 25.4409 235.363 25.5302C235.475 25.6194 235.552 25.7283 235.594 25.8569L240.426 37.0712C240.441 37.118 240.45 37.171 240.453 37.2303C240.458 37.3252 240.427 37.416 240.36 37.5027C240.293 37.5776 240.205 37.6178 240.099 37.6234L238.249 37.7203C238.071 37.7297 237.939 37.695 237.851 37.6163C237.764 37.5377 237.706 37.4634 237.679 37.3935L236.81 35.4416L231.794 35.7045L231.134 37.7365C231.114 37.8089 231.065 37.8888 230.986 37.9761C230.907 38.0635 230.779 38.1118 230.601 38.1211L228.752 38.2181ZM232.332 33.3756L236.014 33.1827L233.913 28.1565L232.332 33.3756ZM241.915 37.5282C241.784 37.5351 241.675 37.4992 241.588 37.4205C241.501 37.3419 241.454 37.2373 241.447 37.1069L240.841 25.5463C240.834 25.4158 240.87 25.3069 240.949 25.2196C241.027 25.1322 241.132 25.0852 241.262 25.0783L246.118 24.8239C247.078 24.7735 247.916 24.8782 248.631 25.138C249.358 25.3971 249.933 25.8188 250.356 26.403C250.79 26.9747 251.03 27.7052 251.077 28.5945C251.124 29.4957 250.962 30.2532 250.59 30.8672C250.229 31.4687 249.7 31.9304 249.004 32.2522C248.319 32.5735 247.497 32.7592 246.536 32.8096L244.153 32.9345L244.364 36.954C244.37 37.0845 244.334 37.1933 244.256 37.2807C244.177 37.368 244.073 37.4151 243.942 37.422L241.915 37.5282ZM243.984 30.7319L246.332 30.6088C246.936 30.5771 247.397 30.4044 247.713 30.0906C248.042 29.7761 248.19 29.3225 248.159 28.7296C248.132 28.2079 247.955 27.7891 247.63 27.4733C247.316 27.1568 246.821 27.0163 246.145 27.0517L243.798 27.1748L243.984 30.7319Z" fill="#36342C"/>
</svg>
