<?xml version="1.0" encoding="UTF-8" standalone="no"?>
<svg
   width="155"
   height="89"
   viewBox="0 0 155 89"
   fill="none"
   version="1.1"
   id="svg3">
  <defs
     id="defs3" />
  <path
     d="M1.82 16.3057C1.732 16.3057 1.664 16.2817 1.616 16.2337C1.568 16.1777 1.544 16.1097 1.544 16.0297V8.18166C1.544 8.10166 1.568 8.03766 1.616 7.98966C1.664 7.93366 1.732 7.90566 1.82 7.90566H2.456C2.536 7.90566 2.6 7.93366 2.648 7.98966C2.696 8.03766 2.72 8.10166 2.72 8.18166V15.2617H6.716C6.804 15.2617 6.872 15.2897 6.92 15.3457C6.968 15.3937 6.992 15.4617 6.992 15.5497V16.0297C6.992 16.1097 6.968 16.1777 6.92 16.2337C6.872 16.2817 6.804 16.3057 6.716 16.3057H1.82ZM10.3848 16.4257C9.56081 16.4257 8.90481 16.1737 8.41681 15.6697C7.92881 15.1577 7.66081 14.4617 7.61281 13.5817C7.60481 13.4777 7.60081 13.3457 7.60081 13.1857C7.60081 13.0177 7.60481 12.8817 7.61281 12.7777C7.64481 12.2097 7.77681 11.7137 8.00881 11.2897C8.24081 10.8577 8.55681 10.5257 8.95681 10.2937C9.36481 10.0617 9.84081 9.94566 10.3848 9.94566C10.9928 9.94566 11.5008 10.0737 11.9088 10.3297C12.3248 10.5857 12.6408 10.9497 12.8568 11.4217C13.0728 11.8937 13.1808 12.4457 13.1808 13.0777V13.2817C13.1808 13.3697 13.1528 13.4377 13.0968 13.4857C13.0488 13.5337 12.9848 13.5577 12.9048 13.5577H8.75281C8.75281 13.5657 8.75281 13.5817 8.75281 13.6057C8.75281 13.6297 8.75281 13.6497 8.75281 13.6657C8.76881 13.9937 8.84081 14.3017 8.96881 14.5897C9.09681 14.8697 9.28081 15.0977 9.52081 15.2737C9.76081 15.4497 10.0488 15.5377 10.3848 15.5377C10.6728 15.5377 10.9128 15.4937 11.1048 15.4057C11.2968 15.3177 11.4528 15.2217 11.5728 15.1177C11.6928 15.0057 11.7728 14.9217 11.8128 14.8657C11.8848 14.7617 11.9408 14.7017 11.9808 14.6857C12.0208 14.6617 12.0848 14.6497 12.1728 14.6497H12.7488C12.8288 14.6497 12.8928 14.6737 12.9408 14.7217C12.9968 14.7617 13.0208 14.8217 13.0128 14.9017C13.0048 15.0217 12.9408 15.1697 12.8208 15.3457C12.7008 15.5137 12.5288 15.6817 12.3048 15.8497C12.0808 16.0177 11.8088 16.1577 11.4888 16.2697C11.1688 16.3737 10.8008 16.4257 10.3848 16.4257ZM8.75281 12.7297H12.0408V12.6937C12.0408 12.3337 11.9728 12.0137 11.8368 11.7337C11.7088 11.4537 11.5208 11.2337 11.2728 11.0737C11.0248 10.9057 10.7288 10.8217 10.3848 10.8217C10.0408 10.8217 9.74481 10.9057 9.49681 11.0737C9.25681 11.2337 9.07281 11.4537 8.94481 11.7337C8.81681 12.0137 8.75281 12.3337 8.75281 12.6937V12.7297ZM16.4567 16.3057C16.3367 16.3057 16.2407 16.2777 16.1687 16.2217C16.1047 16.1657 16.0527 16.0937 16.0127 16.0057L13.7927 10.4377C13.7767 10.3977 13.7687 10.3577 13.7687 10.3177C13.7687 10.2457 13.7927 10.1857 13.8407 10.1377C13.8887 10.0897 13.9487 10.0657 14.0207 10.0657H14.5967C14.6847 10.0657 14.7527 10.0897 14.8007 10.1377C14.8487 10.1857 14.8767 10.2297 14.8847 10.2697L16.7207 14.9977L18.5447 10.2697C18.5607 10.2297 18.5887 10.1857 18.6287 10.1377C18.6767 10.0897 18.7447 10.0657 18.8327 10.0657H19.4207C19.4847 10.0657 19.5407 10.0897 19.5887 10.1377C19.6447 10.1857 19.6727 10.2457 19.6727 10.3177C19.6727 10.3577 19.6647 10.3977 19.6487 10.4377L17.4167 16.0057C17.3847 16.0937 17.3327 16.1657 17.2607 16.2217C17.1967 16.2777 17.1007 16.3057 16.9727 16.3057H16.4567ZM23.0706 16.4257C22.2466 16.4257 21.5906 16.1737 21.1026 15.6697C20.6146 15.1577 20.3466 14.4617 20.2986 13.5817C20.2906 13.4777 20.2866 13.3457 20.2866 13.1857C20.2866 13.0177 20.2906 12.8817 20.2986 12.7777C20.3306 12.2097 20.4626 11.7137 20.6946 11.2897C20.9266 10.8577 21.2426 10.5257 21.6426 10.2937C22.0506 10.0617 22.5266 9.94566 23.0706 9.94566C23.6786 9.94566 24.1866 10.0737 24.5946 10.3297C25.0106 10.5857 25.3266 10.9497 25.5426 11.4217C25.7586 11.8937 25.8666 12.4457 25.8666 13.0777V13.2817C25.8666 13.3697 25.8386 13.4377 25.7826 13.4857C25.7346 13.5337 25.6706 13.5577 25.5906 13.5577H21.4386C21.4386 13.5657 21.4386 13.5817 21.4386 13.6057C21.4386 13.6297 21.4386 13.6497 21.4386 13.6657C21.4546 13.9937 21.5266 14.3017 21.6546 14.5897C21.7826 14.8697 21.9666 15.0977 22.2066 15.2737C22.4466 15.4497 22.7346 15.5377 23.0706 15.5377C23.3586 15.5377 23.5986 15.4937 23.7906 15.4057C23.9826 15.3177 24.1386 15.2217 24.2586 15.1177C24.3786 15.0057 24.4586 14.9217 24.4986 14.8657C24.5706 14.7617 24.6266 14.7017 24.6666 14.6857C24.7066 14.6617 24.7706 14.6497 24.8586 14.6497H25.4346C25.5146 14.6497 25.5786 14.6737 25.6266 14.7217C25.6826 14.7617 25.7066 14.8217 25.6986 14.9017C25.6906 15.0217 25.6266 15.1697 25.5066 15.3457C25.3866 15.5137 25.2146 15.6817 24.9906 15.8497C24.7666 16.0177 24.4946 16.1577 24.1746 16.2697C23.8546 16.3737 23.4866 16.4257 23.0706 16.4257ZM21.4386 12.7297H24.7266V12.6937C24.7266 12.3337 24.6586 12.0137 24.5226 11.7337C24.3946 11.4537 24.2066 11.2337 23.9586 11.0737C23.7106 10.9057 23.4146 10.8217 23.0706 10.8217C22.7266 10.8217 22.4306 10.9057 22.1826 11.0737C21.9426 11.2337 21.7586 11.4537 21.6306 11.7337C21.5026 12.0137 21.4386 12.3337 21.4386 12.6937V12.7297ZM27.4694 16.3057C27.3894 16.3057 27.3214 16.2817 27.2654 16.2337C27.2174 16.1777 27.1934 16.1097 27.1934 16.0297V8.06166C27.1934 7.98166 27.2174 7.91766 27.2654 7.86966C27.3214 7.81366 27.3894 7.78566 27.4694 7.78566H28.0334C28.1214 7.78566 28.1894 7.81366 28.2374 7.86966C28.2854 7.91766 28.3094 7.98166 28.3094 8.06166V16.0297C28.3094 16.1097 28.2854 16.1777 28.2374 16.2337C28.1894 16.2817 28.1214 16.3057 28.0334 16.3057H27.4694ZM35.7168 16.4257C35.1648 16.4257 34.6968 16.3417 34.3128 16.1737C33.9368 15.9977 33.6288 15.7577 33.3888 15.4537C33.1488 15.1497 32.9728 14.8017 32.8608 14.4097C32.7568 14.0177 32.6968 13.6017 32.6808 13.1617C32.6728 12.9457 32.6648 12.7177 32.6568 12.4777C32.6568 12.2377 32.6568 11.9977 32.6568 11.7577C32.6648 11.5097 32.6728 11.2737 32.6808 11.0497C32.6888 10.6097 32.7488 10.1937 32.8608 9.80166C32.9808 9.40166 33.1568 9.05366 33.3888 8.75766C33.6288 8.45366 33.9408 8.21766 34.3248 8.04966C34.7088 7.87366 35.1728 7.78566 35.7168 7.78566C36.2688 7.78566 36.7328 7.87366 37.1088 8.04966C37.4928 8.21766 37.8048 8.45366 38.0448 8.75766C38.2848 9.05366 38.4608 9.40166 38.5728 9.80166C38.6928 10.1937 38.7568 10.6097 38.7648 11.0497C38.7728 11.2737 38.7768 11.5097 38.7768 11.7577C38.7848 11.9977 38.7848 12.2377 38.7768 12.4777C38.7768 12.7177 38.7728 12.9457 38.7648 13.1617C38.7568 13.6017 38.6928 14.0177 38.5728 14.4097C38.4608 14.8017 38.2848 15.1497 38.0448 15.4537C37.8128 15.7577 37.5048 15.9977 37.1208 16.1737C36.7448 16.3417 36.2768 16.4257 35.7168 16.4257ZM35.7168 15.4057C36.3408 15.4057 36.8008 15.2017 37.0968 14.7937C37.4008 14.3777 37.5568 13.8137 37.5648 13.1017C37.5808 12.8697 37.5888 12.6457 37.5888 12.4297C37.5888 12.2057 37.5888 11.9857 37.5888 11.7697C37.5888 11.5457 37.5808 11.3257 37.5648 11.1097C37.5568 10.4137 37.4008 9.85766 37.0968 9.44166C36.8008 9.01766 36.3408 8.80566 35.7168 8.80566C35.1008 8.80566 34.6408 9.01766 34.3368 9.44166C34.0408 9.85766 33.8848 10.4137 33.8688 11.1097C33.8688 11.3257 33.8648 11.5457 33.8568 11.7697C33.8568 11.9857 33.8568 12.2057 33.8568 12.4297C33.8648 12.6457 33.8688 12.8697 33.8688 13.1017C33.8848 13.8137 34.0448 14.3777 34.3488 14.7937C34.6528 15.2017 35.1088 15.4057 35.7168 15.4057ZM42.986 16.4257C42.482 16.4257 42.042 16.3657 41.666 16.2457C41.29 16.1177 40.974 15.9497 40.718 15.7417C40.462 15.5337 40.266 15.3057 40.13 15.0577C40.002 14.8097 39.934 14.5537 39.926 14.2897C39.926 14.2177 39.95 14.1617 39.998 14.1217C40.046 14.0817 40.106 14.0617 40.178 14.0617H40.766C40.838 14.0617 40.902 14.0777 40.958 14.1097C41.014 14.1417 41.062 14.2097 41.102 14.3137C41.182 14.6017 41.318 14.8257 41.51 14.9857C41.71 15.1457 41.938 15.2577 42.194 15.3217C42.458 15.3777 42.722 15.4057 42.986 15.4057C43.538 15.4057 43.986 15.2737 44.33 15.0097C44.674 14.7457 44.846 14.3577 44.846 13.8457C44.846 13.3257 44.69 12.9537 44.378 12.7297C44.066 12.5057 43.634 12.3937 43.082 12.3937H41.942C41.862 12.3937 41.794 12.3697 41.738 12.3217C41.69 12.2737 41.666 12.2057 41.666 12.1177V11.7937C41.666 11.7217 41.678 11.6617 41.702 11.6137C41.734 11.5577 41.766 11.5097 41.798 11.4697L44.126 8.92566H40.586C40.506 8.92566 40.438 8.90166 40.382 8.85366C40.334 8.80566 40.31 8.73766 40.31 8.64966V8.19366C40.31 8.10566 40.334 8.03766 40.382 7.98966C40.438 7.93366 40.506 7.90566 40.586 7.90566H45.374C45.462 7.90566 45.53 7.93366 45.578 7.98966C45.634 8.03766 45.662 8.10566 45.662 8.19366V8.62566C45.662 8.68166 45.646 8.73366 45.614 8.78166C45.59 8.82166 45.562 8.86166 45.53 8.90166L43.214 11.4817L43.406 11.4937C43.934 11.5097 44.394 11.6057 44.786 11.7817C45.186 11.9577 45.494 12.2217 45.71 12.5737C45.934 12.9177 46.046 13.3537 46.046 13.8817C46.046 14.4177 45.914 14.8777 45.65 15.2617C45.386 15.6377 45.022 15.9257 44.558 16.1257C44.094 16.3257 43.57 16.4257 42.986 16.4257Z"
     fill="#88836D"
     id="path1" />
  <path
     d="M6.572 40.3057C6.396 40.3057 6.252 40.2497 6.14 40.1377C6.028 40.0257 5.972 39.8817 5.972 39.7057V26.8417H1.604C1.444 26.8417 1.308 26.7857 1.196 26.6737C1.084 26.5617 1.028 26.4257 1.028 26.2657V24.1057C1.028 23.9297 1.084 23.7857 1.196 23.6737C1.308 23.5617 1.444 23.5057 1.604 23.5057H14.18C14.356 23.5057 14.5 23.5617 14.612 23.6737C14.724 23.7857 14.78 23.9297 14.78 24.1057V26.2657C14.78 26.4257 14.724 26.5617 14.612 26.6737C14.5 26.7857 14.356 26.8417 14.18 26.8417H9.836V39.7057C9.836 39.8817 9.78 40.0257 9.668 40.1377C9.556 40.2497 9.412 40.3057 9.236 40.3057H6.572ZM19.5163 40.5457C17.6762 40.5457 16.2122 40.0337 15.1242 39.0097C14.0522 37.9857 13.4842 36.4977 13.4202 34.5457C13.4202 34.4177 13.4202 34.2497 13.4202 34.0417C13.4202 33.8177 13.4202 33.6417 13.4202 33.5137C13.4842 32.2817 13.7642 31.2257 14.2602 30.3457C14.7562 29.4497 15.4522 28.7697 16.3482 28.3057C17.2442 27.8257 18.2922 27.5857 19.4922 27.5857C20.8363 27.5857 21.9563 27.8657 22.8523 28.4257C23.7643 28.9697 24.4443 29.7217 24.8923 30.6817C25.3563 31.6257 25.5883 32.7137 25.5883 33.9457V34.4977C25.5883 34.6577 25.5243 34.7937 25.3963 34.9057C25.2843 35.0177 25.1483 35.0737 24.9882 35.0737H17.1402C17.1402 35.0897 17.1402 35.1217 17.1402 35.1697C17.1402 35.2017 17.1402 35.2337 17.1402 35.2657C17.1562 35.7777 17.2522 36.2497 17.4282 36.6817C17.6202 37.0977 17.8843 37.4337 18.2203 37.6897C18.5723 37.9457 18.9883 38.0737 19.4683 38.0737C19.8683 38.0737 20.1963 38.0177 20.4523 37.9057C20.7083 37.7937 20.9163 37.6577 21.0763 37.4977C21.2523 37.3377 21.3803 37.2017 21.4603 37.0897C21.6043 36.9297 21.7163 36.8337 21.7963 36.8017C21.8923 36.7537 22.0363 36.7297 22.2283 36.7297H24.7243C24.8843 36.7297 25.0122 36.7777 25.1082 36.8737C25.2203 36.9537 25.2683 37.0737 25.2523 37.2337C25.2363 37.4897 25.1003 37.8097 24.8443 38.1937C24.6043 38.5617 24.2443 38.9297 23.7643 39.2977C23.2843 39.6497 22.6843 39.9457 21.9643 40.1857C21.2603 40.4257 20.4443 40.5457 19.5163 40.5457ZM17.1402 32.8897H21.8443V32.8417C21.8443 32.2657 21.7483 31.7697 21.5563 31.3537C21.3803 30.9217 21.1163 30.5857 20.7642 30.3457C20.4123 30.1057 19.9883 29.9857 19.4922 29.9857C18.9962 29.9857 18.5723 30.1057 18.2203 30.3457C17.8683 30.5857 17.5963 30.9217 17.4043 31.3537C17.2283 31.7697 17.1402 32.2657 17.1402 32.8417V32.8897ZM27.8433 40.3057C27.6833 40.3057 27.5473 40.2497 27.4353 40.1377C27.3233 40.0257 27.2673 39.8817 27.2673 39.7057V28.4257C27.2673 28.2497 27.3233 28.1057 27.4353 27.9937C27.5473 27.8817 27.6833 27.8257 27.8433 27.8257H30.1953C30.3713 27.8257 30.5153 27.8817 30.6273 27.9937C30.7393 28.1057 30.7953 28.2497 30.7953 28.4257V29.3617C31.2113 28.8497 31.7473 28.4257 32.4033 28.0897C33.0593 27.7537 33.8593 27.5857 34.8033 27.5857C35.7473 27.5857 36.5713 27.8017 37.2753 28.2337C37.9953 28.6497 38.5553 29.2657 38.9553 30.0817C39.3713 30.8817 39.5793 31.8577 39.5793 33.0097V39.7057C39.5793 39.8817 39.5153 40.0257 39.3873 40.1377C39.2753 40.2497 39.1393 40.3057 38.9793 40.3057H36.4353C36.2593 40.3057 36.1153 40.2497 36.0033 40.1377C35.8913 40.0257 35.8353 39.8817 35.8353 39.7057V33.1537C35.8353 32.3057 35.6273 31.6497 35.2113 31.1857C34.8113 30.7057 34.2193 30.4657 33.4353 30.4657C32.6833 30.4657 32.0833 30.7057 31.6353 31.1857C31.1873 31.6497 30.9633 32.3057 30.9633 33.1537V39.7057C30.9633 39.8817 30.9073 40.0257 30.7953 40.1377C30.6833 40.2497 30.5473 40.3057 30.3873 40.3057H27.8433ZM46.6548 40.5457C45.6628 40.5457 44.8068 40.4337 44.0868 40.2097C43.3828 39.9697 42.8068 39.6817 42.3588 39.3457C41.9268 39.0097 41.5988 38.6737 41.3748 38.3377C41.1668 37.9857 41.0548 37.6897 41.0388 37.4497C41.0228 37.2737 41.0788 37.1297 41.2068 37.0177C41.3348 36.9057 41.4628 36.8497 41.5908 36.8497H43.9188C43.9668 36.8497 44.0148 36.8577 44.0628 36.8737C44.1108 36.8897 44.1588 36.9297 44.2068 36.9937C44.4148 37.1377 44.6308 37.3057 44.8548 37.4977C45.0788 37.6737 45.3348 37.8257 45.6228 37.9537C45.9268 38.0817 46.3028 38.1457 46.7508 38.1457C47.2788 38.1457 47.7268 38.0417 48.0948 37.8337C48.4628 37.6097 48.6468 37.2977 48.6468 36.8977C48.6468 36.6097 48.5588 36.3697 48.3828 36.1777C48.2228 35.9857 47.9108 35.8097 47.4468 35.6497C46.9828 35.4897 46.2948 35.3137 45.3828 35.1217C44.5188 34.9297 43.7828 34.6737 43.1748 34.3537C42.5668 34.0337 42.1108 33.6337 41.8068 33.1537C41.5028 32.6577 41.3508 32.0657 41.3508 31.3777C41.3508 30.7537 41.5428 30.1537 41.9268 29.5777C42.3268 29.0017 42.9108 28.5297 43.6788 28.1617C44.4468 27.7777 45.4068 27.5857 46.5588 27.5857C47.4388 27.5857 48.2068 27.6977 48.8628 27.9217C49.5348 28.1297 50.0948 28.4017 50.5428 28.7377C50.9908 29.0577 51.3268 29.3937 51.5508 29.7457C51.7908 30.0817 51.9188 30.3777 51.9348 30.6337C51.9508 30.7937 51.9028 30.9297 51.7908 31.0417C51.6788 31.1537 51.5508 31.2097 51.4068 31.2097H49.2708C49.1908 31.2097 49.1188 31.2017 49.0548 31.1857C48.9908 31.1537 48.9348 31.1137 48.8868 31.0657C48.6948 30.9377 48.4948 30.7937 48.2868 30.6337C48.0948 30.4577 47.8628 30.3057 47.5908 30.1777C47.3188 30.0497 46.9668 29.9857 46.5348 29.9857C46.0068 29.9857 45.5988 30.1057 45.3108 30.3457C45.0388 30.5697 44.9028 30.8577 44.9028 31.2097C44.9028 31.4337 44.9748 31.6417 45.1188 31.8337C45.2628 32.0257 45.5588 32.2017 46.0068 32.3617C46.4548 32.5217 47.1348 32.6897 48.0468 32.8657C49.1348 33.0577 49.9988 33.3457 50.6388 33.7297C51.2788 34.1137 51.7348 34.5617 52.0068 35.0737C52.2948 35.5697 52.4388 36.1057 52.4388 36.6817C52.4388 37.4337 52.2148 38.1057 51.7668 38.6977C51.3188 39.2737 50.6628 39.7297 49.7988 40.0657C48.9508 40.3857 47.9028 40.5457 46.6548 40.5457ZM59.5906 40.5457C57.7506 40.5457 56.2866 40.0337 55.1986 39.0097C54.1266 37.9857 53.5586 36.4977 53.4946 34.5457C53.4946 34.4177 53.4946 34.2497 53.4946 34.0417C53.4946 33.8177 53.4946 33.6417 53.4946 33.5137C53.5586 32.2817 53.8386 31.2257 54.3346 30.3457C54.8306 29.4497 55.5266 28.7697 56.4226 28.3057C57.3186 27.8257 58.3666 27.5857 59.5666 27.5857C60.9106 27.5857 62.0306 27.8657 62.9266 28.4257C63.8386 28.9697 64.5186 29.7217 64.9666 30.6817C65.4306 31.6257 65.6626 32.7137 65.6626 33.9457V34.4977C65.6626 34.6577 65.5986 34.7937 65.4706 34.9057C65.3586 35.0177 65.2226 35.0737 65.0626 35.0737H57.2146C57.2146 35.0897 57.2146 35.1217 57.2146 35.1697C57.2146 35.2017 57.2146 35.2337 57.2146 35.2657C57.2306 35.7777 57.3266 36.2497 57.5026 36.6817C57.6946 37.0977 57.9586 37.4337 58.2946 37.6897C58.6466 37.9457 59.0626 38.0737 59.5426 38.0737C59.9426 38.0737 60.2706 38.0177 60.5266 37.9057C60.7826 37.7937 60.9906 37.6577 61.1506 37.4977C61.3266 37.3377 61.4546 37.2017 61.5346 37.0897C61.6786 36.9297 61.7906 36.8337 61.8706 36.8017C61.9666 36.7537 62.1106 36.7297 62.3026 36.7297H64.7986C64.9586 36.7297 65.0866 36.7777 65.1826 36.8737C65.2946 36.9537 65.3426 37.0737 65.3266 37.2337C65.3106 37.4897 65.1746 37.8097 64.9186 38.1937C64.6786 38.5617 64.3186 38.9297 63.8386 39.2977C63.3586 39.6497 62.7586 39.9457 62.0386 40.1857C61.3346 40.4257 60.5186 40.5457 59.5906 40.5457ZM57.2146 32.8897H61.9186V32.8417C61.9186 32.2657 61.8226 31.7697 61.6306 31.3537C61.4546 30.9217 61.1906 30.5857 60.8386 30.3457C60.4866 30.1057 60.0626 29.9857 59.5666 29.9857C59.0706 29.9857 58.6466 30.1057 58.2946 30.3457C57.9426 30.5857 57.6706 30.9217 57.4786 31.3537C57.3026 31.7697 57.2146 32.2657 57.2146 32.8417V32.8897Z"
     fill="#AA5939"
     id="path2"
     style="fill:#f47a00;fill-opacity:1" />
  <path
     d="M2.26 63.3057C2.15333 63.3057 2.06267 63.2737 1.988 63.2097C1.924 63.135 1.892 63.0443 1.892 62.9377V52.4897C1.892 52.3723 1.924 52.2817 1.988 52.2177C2.06267 52.143 2.15333 52.1057 2.26 52.1057H3.06C3.188 52.1057 3.284 52.1377 3.348 52.2017C3.412 52.2657 3.44933 52.319 3.46 52.3617L6.852 58.8257L10.26 52.3617C10.2813 52.319 10.3187 52.2657 10.372 52.2017C10.436 52.1377 10.532 52.1057 10.66 52.1057H11.444C11.5613 52.1057 11.652 52.143 11.716 52.2177C11.7907 52.2817 11.828 52.3723 11.828 52.4897V62.9377C11.828 63.0443 11.7907 63.135 11.716 63.2097C11.652 63.2737 11.5613 63.3057 11.444 63.3057H10.66C10.5533 63.3057 10.4627 63.2737 10.388 63.2097C10.324 63.135 10.292 63.0443 10.292 62.9377V55.0657L7.62 60.2817C7.57733 60.3883 7.51333 60.4737 7.428 60.5377C7.34267 60.591 7.236 60.6177 7.108 60.6177H6.612C6.47333 60.6177 6.36133 60.591 6.276 60.5377C6.20133 60.4737 6.13733 60.3883 6.084 60.2817L3.412 55.0657V62.9377C3.412 63.0443 3.37467 63.135 3.3 63.2097C3.236 63.2737 3.15067 63.3057 3.044 63.3057H2.26ZM16.3871 63.4657C15.8538 63.4657 15.3685 63.359 14.9311 63.1457C14.4938 62.9323 14.1418 62.6443 13.8751 62.2817C13.6085 61.919 13.4751 61.5083 13.4751 61.0497C13.4751 60.3137 13.7738 59.727 14.3711 59.2897C14.9685 58.8523 15.7471 58.5643 16.7071 58.4257L19.0911 58.0897V57.6257C19.0911 57.1137 18.9418 56.7137 18.6431 56.4257C18.3551 56.1377 17.8805 55.9937 17.2191 55.9937C16.7391 55.9937 16.3498 56.0897 16.0511 56.2817C15.7631 56.4737 15.5605 56.719 15.4431 57.0177C15.3791 57.1777 15.2671 57.2577 15.1071 57.2577H14.3871C14.2698 57.2577 14.1791 57.2257 14.1151 57.1617C14.0618 57.087 14.0351 57.0017 14.0351 56.9057C14.0351 56.7457 14.0938 56.5483 14.2111 56.3137C14.3391 56.079 14.5311 55.8497 14.7871 55.6257C15.0431 55.4017 15.3685 55.215 15.7631 55.0657C16.1685 54.9057 16.6591 54.8257 17.2351 54.8257C17.8751 54.8257 18.4138 54.911 18.8511 55.0817C19.2885 55.2417 19.6298 55.4603 19.8751 55.7377C20.1311 56.015 20.3125 56.3297 20.4191 56.6817C20.5365 57.0337 20.5951 57.391 20.5951 57.7537V62.9377C20.5951 63.0443 20.5578 63.135 20.4831 63.2097C20.4191 63.2737 20.3338 63.3057 20.2271 63.3057H19.4911C19.3738 63.3057 19.2831 63.2737 19.2191 63.2097C19.1551 63.135 19.1231 63.0443 19.1231 62.9377V62.2497C18.9845 62.4417 18.7978 62.6337 18.5631 62.8257C18.3285 63.007 18.0351 63.1617 17.6831 63.2897C17.3311 63.407 16.8991 63.4657 16.3871 63.4657ZM16.7231 62.2657C17.1605 62.2657 17.5605 62.175 17.9231 61.9937C18.2858 61.8017 18.5685 61.5083 18.7711 61.1137C18.9845 60.719 19.0911 60.223 19.0911 59.6257V59.1777L17.2351 59.4497C16.4778 59.5563 15.9071 59.7377 15.5231 59.9937C15.1391 60.239 14.9471 60.5537 14.9471 60.9377C14.9471 61.2363 15.0325 61.487 15.2031 61.6897C15.3845 61.8817 15.6085 62.0257 15.8751 62.1217C16.1525 62.2177 16.4351 62.2657 16.7231 62.2657ZM22.9433 63.3057C22.8366 63.3057 22.7459 63.2737 22.6713 63.2097C22.6073 63.135 22.5753 63.0443 22.5753 62.9377V55.3537C22.5753 55.247 22.6073 55.1617 22.6713 55.0977C22.7459 55.023 22.8366 54.9857 22.9433 54.9857H23.6953C23.8019 54.9857 23.8873 55.023 23.9513 55.0977C24.0259 55.1617 24.0633 55.247 24.0633 55.3537V56.0577C24.3406 55.695 24.6873 55.4017 25.1033 55.1777C25.5299 54.943 26.0739 54.8257 26.7353 54.8257C27.4286 54.8257 28.0153 54.9803 28.4953 55.2897C28.9859 55.5883 29.3539 56.0097 29.5993 56.5537C29.8446 57.087 29.9673 57.711 29.9673 58.4257V62.9377C29.9673 63.0443 29.9353 63.135 29.8713 63.2097C29.8073 63.2737 29.7219 63.3057 29.6153 63.3057H28.8153C28.7086 63.3057 28.6179 63.2737 28.5433 63.2097C28.4793 63.135 28.4473 63.0443 28.4473 62.9377V58.5057C28.4473 57.759 28.2659 57.1777 27.9033 56.7617C27.5406 56.335 27.0073 56.1217 26.3033 56.1217C25.6419 56.1217 25.1086 56.335 24.7033 56.7617C24.3086 57.1777 24.1113 57.759 24.1113 58.5057V62.9377C24.1113 63.0443 24.0739 63.135 23.9993 63.2097C23.9353 63.2737 23.8499 63.3057 23.7433 63.3057H22.9433ZM34.2784 63.4657C33.745 63.4657 33.2597 63.359 32.8224 63.1457C32.385 62.9323 32.033 62.6443 31.7664 62.2817C31.4997 61.919 31.3664 61.5083 31.3664 61.0497C31.3664 60.3137 31.665 59.727 32.2624 59.2897C32.8597 58.8523 33.6384 58.5643 34.5984 58.4257L36.9824 58.0897V57.6257C36.9824 57.1137 36.833 56.7137 36.5344 56.4257C36.2464 56.1377 35.7717 55.9937 35.1104 55.9937C34.6304 55.9937 34.241 56.0897 33.9424 56.2817C33.6544 56.4737 33.4517 56.719 33.3344 57.0177C33.2704 57.1777 33.1584 57.2577 32.9984 57.2577H32.2784C32.161 57.2577 32.0704 57.2257 32.0064 57.1617C31.953 57.087 31.9264 57.0017 31.9264 56.9057C31.9264 56.7457 31.985 56.5483 32.1024 56.3137C32.2304 56.079 32.4224 55.8497 32.6784 55.6257C32.9344 55.4017 33.2597 55.215 33.6544 55.0657C34.0597 54.9057 34.5504 54.8257 35.1264 54.8257C35.7664 54.8257 36.305 54.911 36.7424 55.0817C37.1797 55.2417 37.521 55.4603 37.7664 55.7377C38.0224 56.015 38.2037 56.3297 38.3104 56.6817C38.4277 57.0337 38.4864 57.391 38.4864 57.7537V62.9377C38.4864 63.0443 38.449 63.135 38.3744 63.2097C38.3104 63.2737 38.225 63.3057 38.1184 63.3057H37.3824C37.265 63.3057 37.1744 63.2737 37.1104 63.2097C37.0464 63.135 37.0144 63.0443 37.0144 62.9377V62.2497C36.8757 62.4417 36.689 62.6337 36.4544 62.8257C36.2197 63.007 35.9264 63.1617 35.5744 63.2897C35.2224 63.407 34.7904 63.4657 34.2784 63.4657ZM34.6144 62.2657C35.0517 62.2657 35.4517 62.175 35.8144 61.9937C36.177 61.8017 36.4597 61.5083 36.6624 61.1137C36.8757 60.719 36.9824 60.223 36.9824 59.6257V59.1777L35.1264 59.4497C34.369 59.5563 33.7984 59.7377 33.4144 59.9937C33.0304 60.239 32.8384 60.5537 32.8384 60.9377C32.8384 61.2363 32.9237 61.487 33.0944 61.6897C33.2757 61.8817 33.4997 62.0257 33.7664 62.1217C34.0437 62.2177 34.3264 62.2657 34.6144 62.2657ZM43.8745 66.8257C43.1492 66.8257 42.5518 66.7297 42.0825 66.5377C41.6238 66.3457 41.2612 66.111 40.9945 65.8337C40.7385 65.567 40.5518 65.295 40.4345 65.0177C40.3278 64.751 40.2692 64.5377 40.2585 64.3777C40.2478 64.271 40.2798 64.1803 40.3545 64.1057C40.4398 64.031 40.5305 63.9937 40.6265 63.9937H41.3945C41.4905 63.9937 41.5705 64.015 41.6345 64.0577C41.6985 64.1003 41.7518 64.191 41.7945 64.3297C41.8585 64.4897 41.9545 64.6657 42.0825 64.8577C42.2105 65.0603 42.4078 65.231 42.6745 65.3697C42.9412 65.519 43.3145 65.5937 43.7945 65.5937C44.2958 65.5937 44.7172 65.5243 45.0585 65.3857C45.3998 65.2577 45.6558 65.023 45.8265 64.6817C46.0078 64.351 46.0985 63.8923 46.0985 63.3057V62.2177C45.8425 62.5483 45.5065 62.8257 45.0905 63.0497C44.6745 63.263 44.1518 63.3697 43.5225 63.3697C42.9252 63.3697 42.4132 63.2683 41.9865 63.0657C41.5598 62.8523 41.2078 62.5697 40.9305 62.2177C40.6638 61.855 40.4612 61.4443 40.3225 60.9857C40.1945 60.527 40.1198 60.047 40.0985 59.5457C40.0878 59.247 40.0878 58.9537 40.0985 58.6657C40.1198 58.1643 40.1945 57.6843 40.3225 57.2257C40.4612 56.767 40.6638 56.3563 40.9305 55.9937C41.2078 55.631 41.5598 55.3483 41.9865 55.1457C42.4132 54.9323 42.9252 54.8257 43.5225 54.8257C44.1625 54.8257 44.6905 54.9483 45.1065 55.1937C45.5332 55.4283 45.8798 55.7163 46.1465 56.0577V55.3697C46.1465 55.263 46.1785 55.1723 46.2425 55.0977C46.3172 55.023 46.4078 54.9857 46.5145 54.9857H47.2505C47.3572 54.9857 47.4478 55.023 47.5225 55.0977C47.5972 55.1723 47.6345 55.263 47.6345 55.3697V63.1297C47.6345 63.8443 47.5118 64.479 47.2665 65.0337C47.0318 65.5883 46.6372 66.0257 46.0825 66.3457C45.5385 66.6657 44.8025 66.8257 43.8745 66.8257ZM43.8425 62.0897C44.3758 62.0897 44.8025 61.967 45.1225 61.7217C45.4532 61.4763 45.6932 61.167 45.8425 60.7937C46.0025 60.4203 46.0878 60.0417 46.0985 59.6577C46.1092 59.5083 46.1145 59.327 46.1145 59.1137C46.1145 58.8897 46.1092 58.703 46.0985 58.5537C46.0878 58.1697 46.0025 57.791 45.8425 57.4177C45.6932 57.0443 45.4532 56.735 45.1225 56.4897C44.8025 56.2443 44.3758 56.1217 43.8425 56.1217C43.3092 56.1217 42.8825 56.2443 42.5625 56.4897C42.2425 56.7243 42.0132 57.039 41.8745 57.4337C41.7358 57.8177 41.6558 58.2337 41.6345 58.6817C41.6238 58.959 41.6238 59.2417 41.6345 59.5297C41.6558 59.9777 41.7358 60.399 41.8745 60.7937C42.0132 61.1777 42.2425 61.4923 42.5625 61.7377C42.8825 61.9723 43.3092 62.0897 43.8425 62.0897ZM53.0054 63.4657C51.9067 63.4657 51.032 63.1297 50.3814 62.4577C49.7307 61.775 49.3734 60.847 49.3094 59.6737C49.2987 59.535 49.2934 59.359 49.2934 59.1457C49.2934 58.9217 49.2987 58.7403 49.3094 58.6017C49.352 57.8443 49.528 57.183 49.8374 56.6177C50.1467 56.0417 50.568 55.599 51.1014 55.2897C51.6454 54.9803 52.28 54.8257 53.0054 54.8257C53.816 54.8257 54.4934 54.9963 55.0374 55.3377C55.592 55.679 56.0134 56.1643 56.3014 56.7937C56.5894 57.423 56.7334 58.159 56.7334 59.0017V59.2737C56.7334 59.391 56.696 59.4817 56.6214 59.5457C56.5574 59.6097 56.472 59.6417 56.3654 59.6417H50.8294C50.8294 59.6523 50.8294 59.6737 50.8294 59.7057C50.8294 59.7377 50.8294 59.7643 50.8294 59.7857C50.8507 60.223 50.9467 60.6337 51.1174 61.0177C51.288 61.391 51.5334 61.695 51.8534 61.9297C52.1734 62.1643 52.5574 62.2817 53.0054 62.2817C53.3894 62.2817 53.7094 62.223 53.9654 62.1057C54.2214 61.9883 54.4294 61.8603 54.5894 61.7217C54.7494 61.5723 54.856 61.4603 54.9094 61.3857C55.0054 61.247 55.08 61.167 55.1334 61.1457C55.1867 61.1137 55.272 61.0977 55.3894 61.0977H56.1574C56.264 61.0977 56.3494 61.1297 56.4134 61.1937C56.488 61.247 56.52 61.327 56.5094 61.4337C56.4987 61.5937 56.4134 61.791 56.2534 62.0257C56.0934 62.2497 55.864 62.4737 55.5654 62.6977C55.2667 62.9217 54.904 63.1083 54.4774 63.2577C54.0507 63.3963 53.56 63.4657 53.0054 63.4657ZM50.8294 58.5377H55.2134V58.4897C55.2134 58.0097 55.1227 57.583 54.9414 57.2097C54.7707 56.8363 54.52 56.543 54.1894 56.3297C53.8587 56.1057 53.464 55.9937 53.0054 55.9937C52.5467 55.9937 52.152 56.1057 51.8214 56.3297C51.5014 56.543 51.256 56.8363 51.0854 57.2097C50.9147 57.583 50.8294 58.0097 50.8294 58.4897V58.5377ZM60.6465 63.4657C60.1132 63.4657 59.6278 63.359 59.1905 63.1457C58.7532 62.9323 58.4012 62.6443 58.1345 62.2817C57.8678 61.919 57.7345 61.5083 57.7345 61.0497C57.7345 60.3137 58.0332 59.727 58.6305 59.2897C59.2278 58.8523 60.0065 58.5643 60.9665 58.4257L63.3505 58.0897V57.6257C63.3505 57.1137 63.2012 56.7137 62.9025 56.4257C62.6145 56.1377 62.1398 55.9937 61.4785 55.9937C60.9985 55.9937 60.6092 56.0897 60.3105 56.2817C60.0225 56.4737 59.8198 56.719 59.7025 57.0177C59.6385 57.1777 59.5265 57.2577 59.3665 57.2577H58.6465C58.5292 57.2577 58.4385 57.2257 58.3745 57.1617C58.3212 57.087 58.2945 57.0017 58.2945 56.9057C58.2945 56.7457 58.3532 56.5483 58.4705 56.3137C58.5985 56.079 58.7905 55.8497 59.0465 55.6257C59.3025 55.4017 59.6278 55.215 60.0225 55.0657C60.4278 54.9057 60.9185 54.8257 61.4945 54.8257C62.1345 54.8257 62.6732 54.911 63.1105 55.0817C63.5478 55.2417 63.8892 55.4603 64.1345 55.7377C64.3905 56.015 64.5718 56.3297 64.6785 56.6817C64.7958 57.0337 64.8545 57.391 64.8545 57.7537V62.9377C64.8545 63.0443 64.8172 63.135 64.7425 63.2097C64.6785 63.2737 64.5932 63.3057 64.4865 63.3057H63.7505C63.6332 63.3057 63.5425 63.2737 63.4785 63.2097C63.4145 63.135 63.3825 63.0443 63.3825 62.9377V62.2497C63.2438 62.4417 63.0572 62.6337 62.8225 62.8257C62.5878 63.007 62.2945 63.1617 61.9425 63.2897C61.5905 63.407 61.1585 63.4657 60.6465 63.4657ZM60.9825 62.2657C61.4198 62.2657 61.8198 62.175 62.1825 61.9937C62.5452 61.8017 62.8278 61.5083 63.0305 61.1137C63.2438 60.719 63.3505 60.223 63.3505 59.6257V59.1777L61.4945 59.4497C60.7372 59.5563 60.1665 59.7377 59.7825 59.9937C59.3985 60.239 59.2065 60.5537 59.2065 60.9377C59.2065 61.2363 59.2918 61.487 59.4625 61.6897C59.6438 61.8817 59.8678 62.0257 60.1345 62.1217C60.4118 62.2177 60.6945 62.2657 60.9825 62.2657ZM70.9466 63.4657C70.3066 63.4657 69.7733 63.3537 69.3466 63.1297C68.92 62.895 68.5786 62.607 68.3226 62.2657V62.9377C68.3226 63.0443 68.2853 63.135 68.2106 63.2097C68.1466 63.2737 68.0613 63.3057 67.9546 63.3057H67.2186C67.112 63.3057 67.0213 63.2737 66.9466 63.2097C66.8826 63.135 66.8506 63.0443 66.8506 62.9377V52.3137C66.8506 52.207 66.8826 52.1217 66.9466 52.0577C67.0213 51.983 67.112 51.9457 67.2186 51.9457H67.9866C68.104 51.9457 68.1946 51.983 68.2586 52.0577C68.3226 52.1217 68.3546 52.207 68.3546 52.3137V55.9937C68.6213 55.663 68.9626 55.3857 69.3786 55.1617C69.8053 54.9377 70.328 54.8257 70.9466 54.8257C71.544 54.8257 72.0506 54.9323 72.4666 55.1457C72.8933 55.3483 73.24 55.631 73.5066 55.9937C73.784 56.3563 73.992 56.767 74.1306 57.2257C74.2693 57.6843 74.344 58.1643 74.3546 58.6657C74.3653 58.8363 74.3706 58.9963 74.3706 59.1457C74.3706 59.295 74.3653 59.455 74.3546 59.6257C74.344 60.1377 74.2693 60.623 74.1306 61.0817C73.992 61.5403 73.784 61.951 73.5066 62.3137C73.24 62.6657 72.8933 62.9483 72.4666 63.1617C72.0506 63.3643 71.544 63.4657 70.9466 63.4657ZM70.6106 62.1697C71.1653 62.1697 71.5973 62.0523 71.9066 61.8177C72.2266 61.5723 72.456 61.2577 72.5946 60.8737C72.7333 60.479 72.8133 60.0577 72.8346 59.6097C72.8453 59.3003 72.8453 58.991 72.8346 58.6817C72.8133 58.2337 72.7333 57.8177 72.5946 57.4337C72.456 57.039 72.2266 56.7243 71.9066 56.4897C71.5973 56.2443 71.1653 56.1217 70.6106 56.1217C70.1093 56.1217 69.6933 56.239 69.3626 56.4737C69.032 56.7083 68.7813 57.007 68.6106 57.3697C68.4506 57.7323 68.3653 58.1003 68.3546 58.4737C68.344 58.6443 68.3386 58.8523 68.3386 59.0977C68.3386 59.3323 68.344 59.535 68.3546 59.7057C68.376 60.1003 68.4613 60.4897 68.6106 60.8737C68.7706 61.247 69.0106 61.5563 69.3306 61.8017C69.6613 62.047 70.088 62.1697 70.6106 62.1697ZM76.4143 63.3057C76.3076 63.3057 76.2169 63.2737 76.1423 63.2097C76.0783 63.135 76.0463 63.0443 76.0463 62.9377V52.3137C76.0463 52.207 76.0783 52.1217 76.1423 52.0577C76.2169 51.983 76.3076 51.9457 76.4143 51.9457H77.1663C77.2836 51.9457 77.3743 51.983 77.4383 52.0577C77.5023 52.1217 77.5343 52.207 77.5343 52.3137V62.9377C77.5343 63.0443 77.5023 63.135 77.4383 63.2097C77.3743 63.2737 77.2836 63.3057 77.1663 63.3057H76.4143ZM82.9129 63.4657C81.8142 63.4657 80.9395 63.1297 80.2889 62.4577C79.6382 61.775 79.2809 60.847 79.2169 59.6737C79.2062 59.535 79.2009 59.359 79.2009 59.1457C79.2009 58.9217 79.2062 58.7403 79.2169 58.6017C79.2595 57.8443 79.4355 57.183 79.7449 56.6177C80.0542 56.0417 80.4755 55.599 81.0089 55.2897C81.5529 54.9803 82.1875 54.8257 82.9129 54.8257C83.7235 54.8257 84.4009 54.9963 84.9449 55.3377C85.4995 55.679 85.9209 56.1643 86.2089 56.7937C86.4969 57.423 86.6409 58.159 86.6409 59.0017V59.2737C86.6409 59.391 86.6035 59.4817 86.5289 59.5457C86.4649 59.6097 86.3795 59.6417 86.2729 59.6417H80.7369C80.7369 59.6523 80.7369 59.6737 80.7369 59.7057C80.7369 59.7377 80.7369 59.7643 80.7369 59.7857C80.7582 60.223 80.8542 60.6337 81.0249 61.0177C81.1955 61.391 81.4409 61.695 81.7609 61.9297C82.0809 62.1643 82.4649 62.2817 82.9129 62.2817C83.2969 62.2817 83.6169 62.223 83.8729 62.1057C84.1289 61.9883 84.3369 61.8603 84.4969 61.7217C84.6569 61.5723 84.7635 61.4603 84.8169 61.3857C84.9129 61.247 84.9875 61.167 85.0409 61.1457C85.0942 61.1137 85.1795 61.0977 85.2969 61.0977H86.0649C86.1715 61.0977 86.2569 61.1297 86.3209 61.1937C86.3955 61.247 86.4275 61.327 86.4169 61.4337C86.4062 61.5937 86.3209 61.791 86.1609 62.0257C86.0009 62.2497 85.7715 62.4737 85.4729 62.6977C85.1742 62.9217 84.8115 63.1083 84.3849 63.2577C83.9582 63.3963 83.4675 63.4657 82.9129 63.4657ZM80.7369 58.5377H85.1209V58.4897C85.1209 58.0097 85.0302 57.583 84.8489 57.2097C84.6782 56.8363 84.4275 56.543 84.0969 56.3297C83.7662 56.1057 83.3715 55.9937 82.9129 55.9937C82.4542 55.9937 82.0595 56.1057 81.7289 56.3297C81.4089 56.543 81.1635 56.8363 80.9929 57.2097C80.8222 57.583 80.7369 58.0097 80.7369 58.4897V58.5377ZM92.739 63.3057C92.6323 63.3057 92.5417 63.2737 92.467 63.2097C92.403 63.135 92.371 63.0443 92.371 62.9377V56.2657H91.011C90.9043 56.2657 90.8137 56.2337 90.739 56.1697C90.675 56.095 90.643 56.0043 90.643 55.8977V55.3537C90.643 55.247 90.675 55.1617 90.739 55.0977C90.8137 55.023 90.9043 54.9857 91.011 54.9857H92.371V54.1857C92.371 53.6417 92.4617 53.167 92.643 52.7617C92.8243 52.3457 93.1123 52.0257 93.507 51.8017C93.9123 51.5777 94.451 51.4657 95.123 51.4657H96.083C96.1897 51.4657 96.275 51.503 96.339 51.5777C96.403 51.6417 96.435 51.727 96.435 51.8337V52.3777C96.435 52.4843 96.403 52.575 96.339 52.6497C96.275 52.7137 96.1897 52.7457 96.083 52.7457H95.155C94.6537 52.7457 94.3123 52.879 94.131 53.1457C93.9497 53.4017 93.859 53.775 93.859 54.2657V54.9857H95.923C96.0297 54.9857 96.115 55.023 96.179 55.0977C96.243 55.1617 96.275 55.247 96.275 55.3537V55.8977C96.275 56.0043 96.243 56.095 96.179 56.1697C96.115 56.2337 96.0297 56.2657 95.923 56.2657H93.859V62.9377C93.859 63.0443 93.8217 63.135 93.747 63.2097C93.683 63.2737 93.5977 63.3057 93.491 63.3057H92.739ZM100.627 63.4657C99.8163 63.4657 99.139 63.311 98.595 63.0017C98.051 62.6923 97.635 62.2657 97.347 61.7217C97.059 61.167 96.899 60.5377 96.867 59.8337C96.8563 59.6523 96.851 59.423 96.851 59.1457C96.851 58.8577 96.8563 58.6283 96.867 58.4577C96.899 57.743 97.059 57.1137 97.347 56.5697C97.6457 56.0257 98.067 55.599 98.611 55.2897C99.155 54.9803 99.827 54.8257 100.627 54.8257C101.427 54.8257 102.099 54.9803 102.643 55.2897C103.187 55.599 103.603 56.0257 103.891 56.5697C104.19 57.1137 104.355 57.743 104.387 58.4577C104.398 58.6283 104.403 58.8577 104.403 59.1457C104.403 59.423 104.398 59.6523 104.387 59.8337C104.355 60.5377 104.195 61.167 103.907 61.7217C103.619 62.2657 103.203 62.6923 102.659 63.0017C102.115 63.311 101.438 63.4657 100.627 63.4657ZM100.627 62.2337C101.288 62.2337 101.816 62.0257 102.211 61.6097C102.606 61.183 102.819 60.5643 102.851 59.7537C102.862 59.5937 102.867 59.391 102.867 59.1457C102.867 58.9003 102.862 58.6977 102.851 58.5377C102.819 57.727 102.606 57.1137 102.211 56.6977C101.816 56.271 101.288 56.0577 100.627 56.0577C99.9657 56.0577 99.4323 56.271 99.027 56.6977C98.6323 57.1137 98.4243 57.727 98.403 58.5377C98.3923 58.6977 98.387 58.9003 98.387 59.1457C98.387 59.391 98.3923 59.5937 98.403 59.7537C98.4243 60.5643 98.6323 61.183 99.027 61.6097C99.4323 62.0257 99.9657 62.2337 100.627 62.2337ZM106.454 63.3057C106.348 63.3057 106.257 63.2737 106.182 63.2097C106.118 63.135 106.086 63.0443 106.086 62.9377V55.3697C106.086 55.263 106.118 55.1723 106.182 55.0977C106.257 55.023 106.348 54.9857 106.454 54.9857H107.19C107.297 54.9857 107.388 55.023 107.462 55.0977C107.537 55.1723 107.574 55.263 107.574 55.3697V56.0737C107.788 55.711 108.081 55.439 108.454 55.2577C108.828 55.0763 109.276 54.9857 109.798 54.9857H110.438C110.545 54.9857 110.63 55.023 110.694 55.0977C110.758 55.1617 110.79 55.247 110.79 55.3537V56.0097C110.79 56.1163 110.758 56.2017 110.694 56.2657C110.63 56.3297 110.545 56.3617 110.438 56.3617H109.478C108.902 56.3617 108.449 56.5323 108.118 56.8737C107.788 57.2043 107.622 57.6577 107.622 58.2337V62.9377C107.622 63.0443 107.585 63.135 107.51 63.2097C107.436 63.2737 107.345 63.3057 107.238 63.3057H106.454ZM4.996 83.4657C3.89733 83.4657 3.02267 83.1297 2.372 82.4577C1.72133 81.775 1.364 80.847 1.3 79.6737C1.28933 79.535 1.284 79.359 1.284 79.1457C1.284 78.9217 1.28933 78.7403 1.3 78.6017C1.34267 77.8443 1.51867 77.183 1.828 76.6177C2.13733 76.0417 2.55867 75.599 3.092 75.2897C3.636 74.9803 4.27067 74.8257 4.996 74.8257C5.80667 74.8257 6.484 74.9963 7.028 75.3377C7.58267 75.679 8.004 76.1643 8.292 76.7937C8.58 77.423 8.724 78.159 8.724 79.0017V79.2737C8.724 79.391 8.68667 79.4817 8.612 79.5457C8.548 79.6097 8.46267 79.6417 8.356 79.6417H2.82C2.82 79.6523 2.82 79.6737 2.82 79.7057C2.82 79.7377 2.82 79.7643 2.82 79.7857C2.84133 80.223 2.93733 80.6337 3.108 81.0177C3.27867 81.391 3.524 81.695 3.844 81.9297C4.164 82.1643 4.548 82.2817 4.996 82.2817C5.38 82.2817 5.7 82.223 5.956 82.1057C6.212 81.9883 6.42 81.8603 6.58 81.7217C6.74 81.5723 6.84667 81.4603 6.9 81.3857C6.996 81.247 7.07067 81.167 7.124 81.1457C7.17733 81.1137 7.26267 81.0977 7.38 81.0977H8.148C8.25467 81.0977 8.34 81.1297 8.404 81.1937C8.47867 81.247 8.51067 81.327 8.5 81.4337C8.48933 81.5937 8.404 81.791 8.244 82.0257C8.084 82.2497 7.85467 82.4737 7.556 82.6977C7.25733 82.9217 6.89467 83.1083 6.468 83.2577C6.04133 83.3963 5.55067 83.4657 4.996 83.4657ZM2.82 78.5377H7.204V78.4897C7.204 78.0097 7.11333 77.583 6.932 77.2097C6.76133 76.8363 6.51067 76.543 6.18 76.3297C5.84933 76.1057 5.45467 75.9937 4.996 75.9937C4.53733 75.9937 4.14267 76.1057 3.812 76.3297C3.492 76.543 3.24667 76.8363 3.076 77.2097C2.90533 77.583 2.82 78.0097 2.82 78.4897V78.5377ZM9.76125 83.3057C9.67592 83.3057 9.59592 83.2737 9.52125 83.2097C9.45725 83.1457 9.42525 83.0657 9.42525 82.9697C9.42525 82.9377 9.43058 82.9003 9.44125 82.8577C9.46258 82.8043 9.49458 82.7457 9.53725 82.6817L12.3213 79.0497L9.71325 75.6097C9.67058 75.5457 9.63858 75.4923 9.61725 75.4497C9.60658 75.407 9.60125 75.3643 9.60125 75.3217C9.60125 75.2257 9.63325 75.1457 9.69725 75.0817C9.76125 75.0177 9.84125 74.9857 9.93725 74.9857H10.7533C10.8706 74.9857 10.9559 75.0177 11.0093 75.0817C11.0733 75.135 11.1266 75.1883 11.1693 75.2417L13.2973 78.0097L15.4253 75.2577C15.4679 75.2043 15.5159 75.1457 15.5693 75.0817C15.6333 75.0177 15.7239 74.9857 15.8413 74.9857H16.6253C16.7213 74.9857 16.8013 75.0177 16.8653 75.0817C16.9293 75.1457 16.9613 75.2257 16.9613 75.3217C16.9613 75.3643 16.9506 75.407 16.9293 75.4497C16.9186 75.4923 16.8919 75.5457 16.8493 75.6097L14.2093 79.0817L16.9933 82.6817C17.0359 82.7457 17.0626 82.799 17.0733 82.8417C17.0946 82.8843 17.1053 82.927 17.1053 82.9697C17.1053 83.0657 17.0733 83.1457 17.0093 83.2097C16.9453 83.2737 16.8653 83.3057 16.7693 83.3057H15.9213C15.8146 83.3057 15.7293 83.279 15.6653 83.2257C15.6013 83.1723 15.5479 83.119 15.5053 83.0657L13.2493 80.1377L10.9933 83.0657C10.9506 83.1083 10.8973 83.1617 10.8333 83.2257C10.7799 83.279 10.6946 83.3057 10.5773 83.3057H9.76125ZM18.8343 86.3457C18.7276 86.3457 18.6369 86.3083 18.5623 86.2337C18.4983 86.1697 18.4663 86.0843 18.4663 85.9777V75.3537C18.4663 75.247 18.4983 75.1617 18.5623 75.0977C18.6369 75.023 18.7276 74.9857 18.8343 74.9857H19.5703C19.6769 74.9857 19.7623 75.023 19.8263 75.0977C19.9009 75.1617 19.9383 75.247 19.9383 75.3537V76.0577C20.1943 75.7057 20.5356 75.4123 20.9623 75.1777C21.3889 74.943 21.9223 74.8257 22.5623 74.8257C23.1596 74.8257 23.6663 74.927 24.0823 75.1297C24.5089 75.3323 24.8556 75.6097 25.1223 75.9617C25.3996 76.3137 25.6076 76.7137 25.7463 77.1617C25.8849 77.6097 25.9596 78.0897 25.9703 78.6017C25.9809 78.7723 25.9863 78.9537 25.9863 79.1457C25.9863 79.3377 25.9809 79.519 25.9703 79.6897C25.9596 80.191 25.8849 80.671 25.7463 81.1297C25.6076 81.5777 25.3996 81.9777 25.1223 82.3297C24.8556 82.671 24.5089 82.9483 24.0823 83.1617C23.6663 83.3643 23.1596 83.4657 22.5623 83.4657C21.9436 83.4657 21.4209 83.3537 20.9943 83.1297C20.5783 82.895 20.2369 82.607 19.9703 82.2657V85.9777C19.9703 86.0843 19.9383 86.1697 19.8743 86.2337C19.8103 86.3083 19.7196 86.3457 19.6023 86.3457H18.8343ZM22.2263 82.1697C22.7809 82.1697 23.2129 82.0523 23.5223 81.8177C23.8423 81.5723 24.0716 81.2577 24.2103 80.8737C24.3489 80.479 24.4289 80.0577 24.4503 79.6097C24.4609 79.3003 24.4609 78.991 24.4503 78.6817C24.4289 78.2337 24.3489 77.8177 24.2103 77.4337C24.0716 77.039 23.8423 76.7243 23.5223 76.4897C23.2129 76.2443 22.7809 76.1217 22.2263 76.1217C21.7036 76.1217 21.2769 76.2443 20.9463 76.4897C20.6263 76.735 20.3863 77.0497 20.2263 77.4337C20.0769 77.807 19.9916 78.191 19.9703 78.5857C19.9596 78.7563 19.9543 78.959 19.9543 79.1937C19.9543 79.4283 19.9596 79.6363 19.9703 79.8177C19.9809 80.191 20.0663 80.559 20.2263 80.9217C20.3969 81.2843 20.6476 81.583 20.9783 81.8177C21.3089 82.0523 21.7249 82.1697 22.2263 82.1697ZM30.9735 83.4657C29.8748 83.4657 29.0002 83.1297 28.3495 82.4577C27.6988 81.775 27.3415 80.847 27.2775 79.6737C27.2668 79.535 27.2615 79.359 27.2615 79.1457C27.2615 78.9217 27.2668 78.7403 27.2775 78.6017C27.3202 77.8443 27.4962 77.183 27.8055 76.6177C28.1148 76.0417 28.5362 75.599 29.0695 75.2897C29.6135 74.9803 30.2482 74.8257 30.9735 74.8257C31.7842 74.8257 32.4615 74.9963 33.0055 75.3377C33.5602 75.679 33.9815 76.1643 34.2695 76.7937C34.5575 77.423 34.7015 78.159 34.7015 79.0017V79.2737C34.7015 79.391 34.6642 79.4817 34.5895 79.5457C34.5255 79.6097 34.4402 79.6417 34.3335 79.6417H28.7975C28.7975 79.6523 28.7975 79.6737 28.7975 79.7057C28.7975 79.7377 28.7975 79.7643 28.7975 79.7857C28.8188 80.223 28.9148 80.6337 29.0855 81.0177C29.2562 81.391 29.5015 81.695 29.8215 81.9297C30.1415 82.1643 30.5255 82.2817 30.9735 82.2817C31.3575 82.2817 31.6775 82.223 31.9335 82.1057C32.1895 81.9883 32.3975 81.8603 32.5575 81.7217C32.7175 81.5723 32.8242 81.4603 32.8775 81.3857C32.9735 81.247 33.0482 81.167 33.1015 81.1457C33.1548 81.1137 33.2402 81.0977 33.3575 81.0977H34.1255C34.2322 81.0977 34.3175 81.1297 34.3815 81.1937C34.4562 81.247 34.4882 81.327 34.4775 81.4337C34.4668 81.5937 34.3815 81.791 34.2215 82.0257C34.0615 82.2497 33.8322 82.4737 33.5335 82.6977C33.2348 82.9217 32.8722 83.1083 32.4455 83.2577C32.0188 83.3963 31.5282 83.4657 30.9735 83.4657ZM28.7975 78.5377H33.1815V78.4897C33.1815 78.0097 33.0908 77.583 32.9095 77.2097C32.7388 76.8363 32.4882 76.543 32.1575 76.3297C31.8268 76.1057 31.4322 75.9937 30.9735 75.9937C30.5148 75.9937 30.1202 76.1057 29.7895 76.3297C29.4695 76.543 29.2242 76.8363 29.0535 77.2097C28.8828 77.583 28.7975 78.0097 28.7975 78.4897V78.5377ZM36.6626 83.3057C36.556 83.3057 36.4653 83.2737 36.3906 83.2097C36.3266 83.135 36.2946 83.0443 36.2946 82.9377V75.3697C36.2946 75.263 36.3266 75.1723 36.3906 75.0977C36.4653 75.023 36.556 74.9857 36.6626 74.9857H37.3986C37.5053 74.9857 37.596 75.023 37.6706 75.0977C37.7453 75.1723 37.7826 75.263 37.7826 75.3697V76.0737C37.996 75.711 38.2893 75.439 38.6626 75.2577C39.036 75.0763 39.484 74.9857 40.0066 74.9857H40.6466C40.7533 74.9857 40.8386 75.023 40.9026 75.0977C40.9666 75.1617 40.9986 75.247 40.9986 75.3537V76.0097C40.9986 76.1163 40.9666 76.2017 40.9026 76.2657C40.8386 76.3297 40.7533 76.3617 40.6466 76.3617H39.6866C39.1106 76.3617 38.6573 76.5323 38.3266 76.8737C37.996 77.2043 37.8306 77.6577 37.8306 78.2337V82.9377C37.8306 83.0443 37.7933 83.135 37.7186 83.2097C37.644 83.2737 37.5533 83.3057 37.4466 83.3057H36.6626ZM42.4208 83.3057C42.3141 83.3057 42.2234 83.2737 42.1488 83.2097C42.0848 83.135 42.0528 83.0443 42.0528 82.9377V75.3537C42.0528 75.247 42.0848 75.1617 42.1488 75.0977C42.2234 75.023 42.3141 74.9857 42.4208 74.9857H43.1888C43.2954 74.9857 43.3808 75.023 43.4448 75.0977C43.5088 75.1617 43.5408 75.247 43.5408 75.3537V82.9377C43.5408 83.0443 43.5088 83.135 43.4448 83.2097C43.3808 83.2737 43.2954 83.3057 43.1888 83.3057H42.4208ZM42.2928 73.4337C42.1861 73.4337 42.0954 73.4017 42.0208 73.3377C41.9568 73.263 41.9248 73.1723 41.9248 73.0657V72.2017C41.9248 72.095 41.9568 72.0097 42.0208 71.9457C42.0954 71.871 42.1861 71.8337 42.2928 71.8337H43.3008C43.4074 71.8337 43.4928 71.871 43.5568 71.9457C43.6314 72.0097 43.6688 72.095 43.6688 72.2017V73.0657C43.6688 73.1723 43.6314 73.263 43.5568 73.3377C43.4928 73.4017 43.4074 73.4337 43.3008 73.4337H42.2928ZM48.9198 83.4657C47.8211 83.4657 46.9464 83.1297 46.2958 82.4577C45.6451 81.775 45.2878 80.847 45.2238 79.6737C45.2131 79.535 45.2078 79.359 45.2078 79.1457C45.2078 78.9217 45.2131 78.7403 45.2238 78.6017C45.2664 77.8443 45.4424 77.183 45.7518 76.6177C46.0611 76.0417 46.4824 75.599 47.0158 75.2897C47.5598 74.9803 48.1944 74.8257 48.9198 74.8257C49.7304 74.8257 50.4078 74.9963 50.9518 75.3377C51.5064 75.679 51.9278 76.1643 52.2158 76.7937C52.5038 77.423 52.6478 78.159 52.6478 79.0017V79.2737C52.6478 79.391 52.6104 79.4817 52.5358 79.5457C52.4718 79.6097 52.3864 79.6417 52.2798 79.6417H46.7438C46.7438 79.6523 46.7438 79.6737 46.7438 79.7057C46.7438 79.7377 46.7438 79.7643 46.7438 79.7857C46.7651 80.223 46.8611 80.6337 47.0318 81.0177C47.2024 81.391 47.4478 81.695 47.7678 81.9297C48.0878 82.1643 48.4718 82.2817 48.9198 82.2817C49.3038 82.2817 49.6238 82.223 49.8798 82.1057C50.1358 81.9883 50.3438 81.8603 50.5038 81.7217C50.6638 81.5723 50.7704 81.4603 50.8238 81.3857C50.9198 81.247 50.9944 81.167 51.0478 81.1457C51.1011 81.1137 51.1864 81.0977 51.3038 81.0977H52.0718C52.1784 81.0977 52.2638 81.1297 52.3278 81.1937C52.4024 81.247 52.4344 81.327 52.4238 81.4337C52.4131 81.5937 52.3278 81.791 52.1678 82.0257C52.0078 82.2497 51.7784 82.4737 51.4798 82.6977C51.1811 82.9217 50.8184 83.1083 50.3918 83.2577C49.9651 83.3963 49.4744 83.4657 48.9198 83.4657ZM46.7438 78.5377H51.1278V78.4897C51.1278 78.0097 51.0371 77.583 50.8558 77.2097C50.6851 76.8363 50.4344 76.543 50.1038 76.3297C49.7731 76.1057 49.3784 75.9937 48.9198 75.9937C48.4611 75.9937 48.0664 76.1057 47.7358 76.3297C47.4158 76.543 47.1704 76.8363 46.9998 77.2097C46.8291 77.583 46.7438 78.0097 46.7438 78.4897V78.5377ZM54.6089 83.3057C54.5022 83.3057 54.4115 83.2737 54.3369 83.2097C54.2729 83.135 54.2409 83.0443 54.2409 82.9377V75.3537C54.2409 75.247 54.2729 75.1617 54.3369 75.0977C54.4115 75.023 54.5022 74.9857 54.6089 74.9857H55.3609C55.4675 74.9857 55.5529 75.023 55.6169 75.0977C55.6915 75.1617 55.7289 75.247 55.7289 75.3537V76.0577C56.0062 75.695 56.3529 75.4017 56.7689 75.1777C57.1955 74.943 57.7395 74.8257 58.4009 74.8257C59.0942 74.8257 59.6809 74.9803 60.1609 75.2897C60.6515 75.5883 61.0195 76.0097 61.2649 76.5537C61.5102 77.087 61.6329 77.711 61.6329 78.4257V82.9377C61.6329 83.0443 61.6009 83.135 61.5369 83.2097C61.4729 83.2737 61.3875 83.3057 61.2809 83.3057H60.4809C60.3742 83.3057 60.2835 83.2737 60.2089 83.2097C60.1449 83.135 60.1129 83.0443 60.1129 82.9377V78.5057C60.1129 77.759 59.9315 77.1777 59.5689 76.7617C59.2062 76.335 58.6729 76.1217 57.9689 76.1217C57.3075 76.1217 56.7742 76.335 56.3689 76.7617C55.9742 77.1777 55.7769 77.759 55.7769 78.5057V82.9377C55.7769 83.0443 55.7395 83.135 55.6649 83.2097C55.6009 83.2737 55.5155 83.3057 55.4089 83.3057H54.6089ZM66.984 83.4657C66.2267 83.4657 65.5707 83.3217 65.016 83.0337C64.472 82.735 64.0507 82.3137 63.752 81.7697C63.4533 81.215 63.2933 80.5537 63.272 79.7857C63.2613 79.6257 63.256 79.4123 63.256 79.1457C63.256 78.879 63.2613 78.6657 63.272 78.5057C63.2933 77.7377 63.4533 77.0817 63.752 76.5377C64.0507 75.983 64.472 75.5617 65.016 75.2737C65.5707 74.975 66.2267 74.8257 66.984 74.8257C67.6027 74.8257 68.1307 74.911 68.568 75.0817C69.016 75.2523 69.384 75.471 69.672 75.7377C69.96 76.0043 70.1733 76.2923 70.312 76.6017C70.4613 76.911 70.5413 77.2043 70.552 77.4817C70.5627 77.5883 70.5307 77.6737 70.456 77.7377C70.3813 77.8017 70.2907 77.8337 70.184 77.8337H69.416C69.3093 77.8337 69.2293 77.8123 69.176 77.7697C69.1227 77.7163 69.0693 77.631 69.016 77.5137C68.824 76.991 68.5627 76.623 68.232 76.4097C67.9013 76.1963 67.4907 76.0897 67 76.0897C66.36 76.0897 65.8373 76.287 65.432 76.6817C65.0373 77.0763 64.824 77.711 64.792 78.5857C64.7813 78.9697 64.7813 79.343 64.792 79.7057C64.824 80.591 65.0373 81.231 65.432 81.6257C65.8373 82.0097 66.36 82.2017 67 82.2017C67.4907 82.2017 67.9013 82.095 68.232 81.8817C68.5627 81.6683 68.824 81.3003 69.016 80.7777C69.0693 80.6603 69.1227 80.5803 69.176 80.5377C69.2293 80.4843 69.3093 80.4577 69.416 80.4577H70.184C70.2907 80.4577 70.3813 80.4897 70.456 80.5537C70.5307 80.6177 70.5627 80.703 70.552 80.8097C70.5413 81.0337 70.4933 81.263 70.408 81.4977C70.3227 81.7323 70.184 81.9723 69.992 82.2177C69.8107 82.4523 69.5813 82.6657 69.304 82.8577C69.0267 83.039 68.6907 83.1883 68.296 83.3057C67.912 83.4123 67.4747 83.4657 66.984 83.4657ZM75.4441 83.4657C74.3455 83.4657 73.4708 83.1297 72.8201 82.4577C72.1695 81.775 71.8121 80.847 71.7481 79.6737C71.7375 79.535 71.7321 79.359 71.7321 79.1457C71.7321 78.9217 71.7375 78.7403 71.7481 78.6017C71.7908 77.8443 71.9668 77.183 72.2761 76.6177C72.5855 76.0417 73.0068 75.599 73.5401 75.2897C74.0841 74.9803 74.7188 74.8257 75.4441 74.8257C76.2548 74.8257 76.9321 74.9963 77.4761 75.3377C78.0308 75.679 78.4521 76.1643 78.7401 76.7937C79.0281 77.423 79.1721 78.159 79.1721 79.0017V79.2737C79.1721 79.391 79.1348 79.4817 79.0601 79.5457C78.9961 79.6097 78.9108 79.6417 78.8041 79.6417H73.2681C73.2681 79.6523 73.2681 79.6737 73.2681 79.7057C73.2681 79.7377 73.2681 79.7643 73.2681 79.7857C73.2895 80.223 73.3855 80.6337 73.5561 81.0177C73.7268 81.391 73.9721 81.695 74.2921 81.9297C74.6121 82.1643 74.9961 82.2817 75.4441 82.2817C75.8281 82.2817 76.1481 82.223 76.4041 82.1057C76.6601 81.9883 76.8681 81.8603 77.0281 81.7217C77.1881 81.5723 77.2948 81.4603 77.3481 81.3857C77.4441 81.247 77.5188 81.167 77.5721 81.1457C77.6255 81.1137 77.7108 81.0977 77.8281 81.0977H78.5961C78.7028 81.0977 78.7881 81.1297 78.8521 81.1937C78.9268 81.247 78.9588 81.327 78.9481 81.4337C78.9375 81.5937 78.8521 81.791 78.6921 82.0257C78.5321 82.2497 78.3028 82.4737 78.0041 82.6977C77.7055 82.9217 77.3428 83.1083 76.9161 83.2577C76.4895 83.3963 75.9988 83.4657 75.4441 83.4657ZM73.2681 78.5377H77.6521V78.4897C77.6521 78.0097 77.5615 77.583 77.3801 77.2097C77.2095 76.8363 76.9588 76.543 76.6281 76.3297C76.2975 76.1057 75.9028 75.9937 75.4441 75.9937C74.9855 75.9937 74.5908 76.1057 74.2601 76.3297C73.9401 76.543 73.6948 76.8363 73.5241 77.2097C73.3535 77.583 73.2681 78.0097 73.2681 78.4897V78.5377ZM83.8053 83.4657C83.2186 83.4657 82.7119 83.3643 82.2853 83.1617C81.8586 82.9483 81.5066 82.6657 81.2293 82.3137C80.9626 81.951 80.7599 81.5403 80.6213 81.0817C80.4933 80.623 80.4186 80.1377 80.3973 79.6257C80.3866 79.455 80.3813 79.295 80.3813 79.1457C80.3813 78.9963 80.3866 78.8363 80.3973 78.6657C80.4186 78.1643 80.4933 77.6843 80.6213 77.2257C80.7599 76.767 80.9626 76.3563 81.2293 75.9937C81.5066 75.631 81.8586 75.3483 82.2853 75.1457C82.7119 74.9323 83.2186 74.8257 83.8053 74.8257C84.4346 74.8257 84.9573 74.9377 85.3733 75.1617C85.7893 75.3857 86.1306 75.663 86.3973 75.9937V72.3137C86.3973 72.207 86.4293 72.1217 86.4933 72.0577C86.5679 71.983 86.6586 71.9457 86.7653 71.9457H87.5333C87.6399 71.9457 87.7253 71.983 87.7893 72.0577C87.8639 72.1217 87.9013 72.207 87.9013 72.3137V82.9377C87.9013 83.0443 87.8639 83.135 87.7893 83.2097C87.7253 83.2737 87.6399 83.3057 87.5333 83.3057H86.8133C86.6959 83.3057 86.6053 83.2737 86.5413 83.2097C86.4773 83.135 86.4453 83.0443 86.4453 82.9377V82.2657C86.1786 82.607 85.8319 82.895 85.4053 83.1297C84.9786 83.3537 84.4453 83.4657 83.8053 83.4657ZM84.1413 82.1697C84.6746 82.1697 85.1013 82.047 85.4213 81.8017C85.7413 81.5563 85.9813 81.247 86.1413 80.8737C86.3013 80.4897 86.3866 80.1003 86.3973 79.7057C86.4079 79.535 86.4133 79.3323 86.4133 79.0977C86.4133 78.8523 86.4079 78.6443 86.3973 78.4737C86.3866 78.1003 86.2959 77.7323 86.1253 77.3697C85.9653 77.007 85.7199 76.7083 85.3893 76.4737C85.0693 76.239 84.6533 76.1217 84.1413 76.1217C83.5973 76.1217 83.1653 76.2443 82.8453 76.4897C82.5253 76.7243 82.2959 77.039 82.1573 77.4337C82.0186 77.8177 81.9386 78.2337 81.9173 78.6817C81.9066 78.991 81.9066 79.3003 81.9173 79.6097C81.9386 80.0577 82.0186 80.479 82.1573 80.8737C82.2959 81.2577 82.5253 81.5723 82.8453 81.8177C83.1653 82.0523 83.5973 82.1697 84.1413 82.1697ZM96.9228 83.4657C96.1654 83.4657 95.5094 83.3217 94.9548 83.0337C94.4108 82.735 93.9894 82.3137 93.6908 81.7697C93.3921 81.215 93.2321 80.5537 93.2108 79.7857C93.2001 79.6257 93.1948 79.4123 93.1948 79.1457C93.1948 78.879 93.2001 78.6657 93.2108 78.5057C93.2321 77.7377 93.3921 77.0817 93.6908 76.5377C93.9894 75.983 94.4108 75.5617 94.9548 75.2737C95.5094 74.975 96.1654 74.8257 96.9228 74.8257C97.5414 74.8257 98.0694 74.911 98.5068 75.0817C98.9548 75.2523 99.3228 75.471 99.6108 75.7377C99.8988 76.0043 100.112 76.2923 100.251 76.6017C100.4 76.911 100.48 77.2043 100.491 77.4817C100.501 77.5883 100.469 77.6737 100.395 77.7377C100.32 77.8017 100.229 77.8337 100.123 77.8337H99.3548C99.2481 77.8337 99.1681 77.8123 99.1148 77.7697C99.0614 77.7163 99.0081 77.631 98.9548 77.5137C98.7628 76.991 98.5014 76.623 98.1708 76.4097C97.8401 76.1963 97.4294 76.0897 96.9388 76.0897C96.2988 76.0897 95.7761 76.287 95.3708 76.6817C94.9761 77.0763 94.7628 77.711 94.7308 78.5857C94.7201 78.9697 94.7201 79.343 94.7308 79.7057C94.7628 80.591 94.9761 81.231 95.3708 81.6257C95.7761 82.0097 96.2988 82.2017 96.9388 82.2017C97.4294 82.2017 97.8401 82.095 98.1708 81.8817C98.5014 81.6683 98.7628 81.3003 98.9548 80.7777C99.0081 80.6603 99.0614 80.5803 99.1148 80.5377C99.1681 80.4843 99.2481 80.4577 99.3548 80.4577H100.123C100.229 80.4577 100.32 80.4897 100.395 80.5537C100.469 80.6177 100.501 80.703 100.491 80.8097C100.48 81.0337 100.432 81.263 100.347 81.4977C100.261 81.7323 100.123 81.9723 99.9308 82.2177C99.7494 82.4523 99.5201 82.6657 99.2428 82.8577C98.9654 83.039 98.6294 83.1883 98.2348 83.3057C97.8508 83.4123 97.4134 83.4657 96.9228 83.4657ZM103.292 86.3457C103.207 86.3457 103.132 86.3137 103.068 86.2497C103.004 86.1857 102.972 86.111 102.972 86.0257C102.972 85.983 102.978 85.9403 102.988 85.8977C102.999 85.855 103.02 85.8017 103.052 85.7377L104.284 82.8097L101.228 75.5937C101.175 75.4657 101.148 75.375 101.148 75.3217C101.148 75.2257 101.18 75.1457 101.244 75.0817C101.308 75.0177 101.388 74.9857 101.484 74.9857H102.268C102.375 74.9857 102.46 75.0123 102.524 75.0657C102.588 75.119 102.631 75.183 102.652 75.2577L105.084 81.0817L107.58 75.2577C107.612 75.183 107.655 75.119 107.708 75.0657C107.772 75.0123 107.863 74.9857 107.98 74.9857H108.732C108.828 74.9857 108.908 75.0177 108.972 75.0817C109.036 75.1457 109.068 75.2203 109.068 75.3057C109.068 75.359 109.042 75.455 108.988 75.5937L104.444 86.0737C104.412 86.1483 104.364 86.2123 104.3 86.2657C104.247 86.319 104.162 86.3457 104.044 86.3457H103.292ZM113.408 83.4657C112.65 83.4657 111.994 83.3217 111.44 83.0337C110.896 82.735 110.474 82.3137 110.176 81.7697C109.877 81.215 109.717 80.5537 109.696 79.7857C109.685 79.6257 109.68 79.4123 109.68 79.1457C109.68 78.879 109.685 78.6657 109.696 78.5057C109.717 77.7377 109.877 77.0817 110.176 76.5377C110.474 75.983 110.896 75.5617 111.44 75.2737C111.994 74.975 112.65 74.8257 113.408 74.8257C114.026 74.8257 114.554 74.911 114.992 75.0817C115.44 75.2523 115.808 75.471 116.096 75.7377C116.384 76.0043 116.597 76.2923 116.736 76.6017C116.885 76.911 116.965 77.2043 116.976 77.4817C116.986 77.5883 116.954 77.6737 116.88 77.7377C116.805 77.8017 116.714 77.8337 116.608 77.8337H115.84C115.733 77.8337 115.653 77.8123 115.6 77.7697C115.546 77.7163 115.493 77.631 115.44 77.5137C115.248 76.991 114.986 76.623 114.656 76.4097C114.325 76.1963 113.914 76.0897 113.424 76.0897C112.784 76.0897 112.261 76.287 111.856 76.6817C111.461 77.0763 111.248 77.711 111.216 78.5857C111.205 78.9697 111.205 79.343 111.216 79.7057C111.248 80.591 111.461 81.231 111.856 81.6257C112.261 82.0097 112.784 82.2017 113.424 82.2017C113.914 82.2017 114.325 82.095 114.656 81.8817C114.986 81.6683 115.248 81.3003 115.44 80.7777C115.493 80.6603 115.546 80.5803 115.6 80.5377C115.653 80.4843 115.733 80.4577 115.84 80.4577H116.608C116.714 80.4577 116.805 80.4897 116.88 80.5537C116.954 80.6177 116.986 80.703 116.976 80.8097C116.965 81.0337 116.917 81.263 116.832 81.4977C116.746 81.7323 116.608 81.9723 116.416 82.2177C116.234 82.4523 116.005 82.6657 115.728 82.8577C115.45 83.039 115.114 83.1883 114.72 83.3057C114.336 83.4123 113.898 83.4657 113.408 83.4657ZM118.94 83.3057C118.833 83.3057 118.743 83.2737 118.668 83.2097C118.604 83.135 118.572 83.0443 118.572 82.9377V72.3137C118.572 72.207 118.604 72.1217 118.668 72.0577C118.743 71.983 118.833 71.9457 118.94 71.9457H119.692C119.809 71.9457 119.9 71.983 119.964 72.0577C120.028 72.1217 120.06 72.207 120.06 72.3137V82.9377C120.06 83.0443 120.028 83.135 119.964 83.2097C119.9 83.2737 119.809 83.3057 119.692 83.3057H118.94ZM122.494 83.3057C122.388 83.3057 122.297 83.2737 122.222 83.2097C122.158 83.135 122.126 83.0443 122.126 82.9377V75.3537C122.126 75.247 122.158 75.1617 122.222 75.0977C122.297 75.023 122.388 74.9857 122.494 74.9857H123.262C123.369 74.9857 123.454 75.023 123.518 75.0977C123.582 75.1617 123.614 75.247 123.614 75.3537V82.9377C123.614 83.0443 123.582 83.135 123.518 83.2097C123.454 83.2737 123.369 83.3057 123.262 83.3057H122.494ZM122.366 73.4337C122.26 73.4337 122.169 73.4017 122.094 73.3377C122.03 73.263 121.998 73.1723 121.998 73.0657V72.2017C121.998 72.095 122.03 72.0097 122.094 71.9457C122.169 71.871 122.26 71.8337 122.366 71.8337H123.374C123.481 71.8337 123.566 71.871 123.63 71.9457C123.705 72.0097 123.742 72.095 123.742 72.2017V73.0657C123.742 73.1723 123.705 73.263 123.63 73.3377C123.566 73.4017 123.481 73.4337 123.374 73.4337H122.366ZM128.561 83.4657C127.964 83.4657 127.452 83.391 127.025 83.2417C126.599 83.0923 126.252 82.911 125.985 82.6977C125.719 82.4843 125.516 82.271 125.377 82.0577C125.249 81.8443 125.18 81.6737 125.169 81.5457C125.159 81.4283 125.196 81.3377 125.281 81.2737C125.367 81.2097 125.452 81.1777 125.537 81.1777H126.241C126.305 81.1777 126.353 81.1883 126.385 81.2097C126.428 81.2203 126.481 81.263 126.545 81.3377C126.684 81.487 126.839 81.6363 127.009 81.7857C127.18 81.935 127.388 82.0577 127.633 82.1537C127.889 82.2497 128.204 82.2977 128.577 82.2977C129.121 82.2977 129.569 82.1963 129.921 81.9937C130.273 81.7803 130.449 81.471 130.449 81.0657C130.449 80.799 130.375 80.5857 130.225 80.4257C130.087 80.2657 129.831 80.1217 129.457 79.9937C129.095 79.8657 128.593 79.7323 127.953 79.5937C127.313 79.4443 126.807 79.263 126.433 79.0497C126.06 78.8257 125.793 78.5643 125.633 78.2657C125.473 77.9563 125.393 77.6097 125.393 77.2257C125.393 76.831 125.511 76.4523 125.745 76.0897C125.98 75.7163 126.321 75.4123 126.769 75.1777C127.228 74.943 127.799 74.8257 128.481 74.8257C129.036 74.8257 129.511 74.895 129.905 75.0337C130.3 75.1723 130.625 75.3483 130.881 75.5617C131.137 75.7643 131.329 75.967 131.457 76.1697C131.585 76.3723 131.655 76.543 131.665 76.6817C131.676 76.7883 131.644 76.879 131.569 76.9537C131.495 77.0177 131.409 77.0497 131.313 77.0497H130.641C130.567 77.0497 130.503 77.0337 130.449 77.0017C130.407 76.9697 130.364 76.9323 130.321 76.8897C130.215 76.751 130.087 76.6123 129.937 76.4737C129.799 76.335 129.612 76.223 129.377 76.1377C129.153 76.0417 128.855 75.9937 128.481 75.9937C127.948 75.9937 127.548 76.1057 127.281 76.3297C127.015 76.5537 126.881 76.8363 126.881 77.1777C126.881 77.3803 126.94 77.5617 127.057 77.7217C127.175 77.8817 127.399 78.0257 127.729 78.1537C128.06 78.2817 128.551 78.4203 129.201 78.5697C129.905 78.7083 130.46 78.895 130.865 79.1297C131.271 79.3643 131.559 79.6363 131.729 79.9457C131.9 80.255 131.985 80.6123 131.985 81.0177C131.985 81.4657 131.852 81.8763 131.585 82.2497C131.329 82.623 130.945 82.9217 130.433 83.1457C129.932 83.359 129.308 83.4657 128.561 83.4657ZM136.75 83.3057C136.153 83.3057 135.667 83.1937 135.294 82.9697C134.921 82.735 134.649 82.4097 134.478 81.9937C134.307 81.567 134.222 81.0657 134.222 80.4897V76.2657H132.974C132.867 76.2657 132.777 76.2337 132.702 76.1697C132.638 76.095 132.606 76.0043 132.606 75.8977V75.3537C132.606 75.247 132.638 75.1617 132.702 75.0977C132.777 75.023 132.867 74.9857 132.974 74.9857H134.222V72.3137C134.222 72.207 134.254 72.1217 134.318 72.0577C134.393 71.983 134.483 71.9457 134.59 71.9457H135.342C135.449 71.9457 135.534 71.983 135.598 72.0577C135.673 72.1217 135.71 72.207 135.71 72.3137V74.9857H137.694C137.801 74.9857 137.886 75.023 137.95 75.0977C138.025 75.1617 138.062 75.247 138.062 75.3537V75.8977C138.062 76.0043 138.025 76.095 137.95 76.1697C137.886 76.2337 137.801 76.2657 137.694 76.2657H135.71V80.3777C135.71 80.879 135.795 81.2737 135.966 81.5617C136.137 81.8497 136.441 81.9937 136.878 81.9937H137.854C137.961 81.9937 138.046 82.031 138.11 82.1057C138.185 82.1697 138.222 82.255 138.222 82.3617V82.9377C138.222 83.0443 138.185 83.135 138.11 83.2097C138.046 83.2737 137.961 83.3057 137.854 83.3057H136.75ZM142.312 83.4657C141.715 83.4657 141.203 83.391 140.776 83.2417C140.349 83.0923 140.003 82.911 139.736 82.6977C139.469 82.4843 139.267 82.271 139.128 82.0577C139 81.8443 138.931 81.6737 138.92 81.5457C138.909 81.4283 138.947 81.3377 139.032 81.2737C139.117 81.2097 139.203 81.1777 139.288 81.1777H139.992C140.056 81.1777 140.104 81.1883 140.136 81.2097C140.179 81.2203 140.232 81.263 140.296 81.3377C140.435 81.487 140.589 81.6363 140.76 81.7857C140.931 81.935 141.139 82.0577 141.384 82.1537C141.64 82.2497 141.955 82.2977 142.328 82.2977C142.872 82.2977 143.32 82.1963 143.672 81.9937C144.024 81.7803 144.2 81.471 144.2 81.0657C144.2 80.799 144.125 80.5857 143.976 80.4257C143.837 80.2657 143.581 80.1217 143.208 79.9937C142.845 79.8657 142.344 79.7323 141.704 79.5937C141.064 79.4443 140.557 79.263 140.184 79.0497C139.811 78.8257 139.544 78.5643 139.384 78.2657C139.224 77.9563 139.144 77.6097 139.144 77.2257C139.144 76.831 139.261 76.4523 139.496 76.0897C139.731 75.7163 140.072 75.4123 140.52 75.1777C140.979 74.943 141.549 74.8257 142.232 74.8257C142.787 74.8257 143.261 74.895 143.656 75.0337C144.051 75.1723 144.376 75.3483 144.632 75.5617C144.888 75.7643 145.08 75.967 145.208 76.1697C145.336 76.3723 145.405 76.543 145.416 76.6817C145.427 76.7883 145.395 76.879 145.32 76.9537C145.245 77.0177 145.16 77.0497 145.064 77.0497H144.392C144.317 77.0497 144.253 77.0337 144.2 77.0017C144.157 76.9697 144.115 76.9323 144.072 76.8897C143.965 76.751 143.837 76.6123 143.688 76.4737C143.549 76.335 143.363 76.223 143.128 76.1377C142.904 76.0417 142.605 75.9937 142.232 75.9937C141.699 75.9937 141.299 76.1057 141.032 76.3297C140.765 76.5537 140.632 76.8363 140.632 77.1777C140.632 77.3803 140.691 77.5617 140.808 77.7217C140.925 77.8817 141.149 78.0257 141.48 78.1537C141.811 78.2817 142.301 78.4203 142.952 78.5697C143.656 78.7083 144.211 78.895 144.616 79.1297C145.021 79.3643 145.309 79.6363 145.48 79.9457C145.651 80.255 145.736 80.6123 145.736 81.0177C145.736 81.4657 145.603 81.8763 145.336 82.2497C145.08 82.623 144.696 82.9217 144.184 83.1457C143.683 83.359 143.059 83.4657 142.312 83.4657ZM147.524 83.3057C147.418 83.3057 147.327 83.2737 147.252 83.2097C147.188 83.135 147.156 83.0443 147.156 82.9377V81.7857C147.156 81.679 147.188 81.5937 147.252 81.5297C147.327 81.455 147.418 81.4177 147.524 81.4177H148.676C148.783 81.4177 148.868 81.455 148.932 81.5297C149.007 81.5937 149.044 81.679 149.044 81.7857V82.9377C149.044 83.0443 149.007 83.135 148.932 83.2097C148.868 83.2737 148.783 83.3057 148.676 83.3057H147.524Z"
     fill="#36342C"
     id="path3" />
</svg>
