<?xml version="1.0" encoding="UTF-8" standalone="no"?>
<svg
   width="155"
   height="89"
   viewBox="0 0 155 89"
   fill="none"
   version="1.1"
   id="svg3">
  <defs
     id="defs3" />
  <path
     d="M1.82 16.3057C1.732 16.3057 1.664 16.2817 1.616 16.2337C1.568 16.1777 1.544 16.1097 1.544 16.0297V8.18166C1.544 8.10166 1.568 8.03766 1.616 7.98966C1.664 7.93366 1.732 7.90566 1.82 7.90566H2.456C2.536 7.90566 2.6 7.93366 2.648 7.98966C2.696 8.03766 2.72 8.10166 2.72 8.18166V15.2617H6.716C6.804 15.2617 6.872 15.2897 6.92 15.3457C6.968 15.3937 6.992 15.4617 6.992 15.5497V16.0297C6.992 16.1097 6.968 16.1777 6.92 16.2337C6.872 16.2817 6.804 16.3057 6.716 16.3057H1.82ZM10.3848 16.4257C9.56081 16.4257 8.90481 16.1737 8.41681 15.6697C7.92881 15.1577 7.66081 14.4617 7.61281 13.5817C7.60481 13.4777 7.60081 13.3457 7.60081 13.1857C7.60081 13.0177 7.60481 12.8817 7.61281 12.7777C7.64481 12.2097 7.77681 11.7137 8.00881 11.2897C8.24081 10.8577 8.55681 10.5257 8.95681 10.2937C9.36481 10.0617 9.84081 9.94566 10.3848 9.94566C10.9928 9.94566 11.5008 10.0737 11.9088 10.3297C12.3248 10.5857 12.6408 10.9497 12.8568 11.4217C13.0728 11.8937 13.1808 12.4457 13.1808 13.0777V13.2817C13.1808 13.3697 13.1528 13.4377 13.0968 13.4857C13.0488 13.5337 12.9848 13.5577 12.9048 13.5577H8.75281C8.75281 13.5657 8.75281 13.5817 8.75281 13.6057C8.75281 13.6297 8.75281 13.6497 8.75281 13.6657C8.76881 13.9937 8.84081 14.3017 8.96881 14.5897C9.09681 14.8697 9.28081 15.0977 9.52081 15.2737C9.76081 15.4497 10.0488 15.5377 10.3848 15.5377C10.6728 15.5377 10.9128 15.4937 11.1048 15.4057C11.2968 15.3177 11.4528 15.2217 11.5728 15.1177C11.6928 15.0057 11.7728 14.9217 11.8128 14.8657C11.8848 14.7617 11.9408 14.7017 11.9808 14.6857C12.0208 14.6617 12.0848 14.6497 12.1728 14.6497H12.7488C12.8288 14.6497 12.8928 14.6737 12.9408 14.7217C12.9968 14.7617 13.0208 14.8217 13.0128 14.9017C13.0048 15.0217 12.9408 15.1697 12.8208 15.3457C12.7008 15.5137 12.5288 15.6817 12.3048 15.8497C12.0808 16.0177 11.8088 16.1577 11.4888 16.2697C11.1688 16.3737 10.8008 16.4257 10.3848 16.4257ZM8.75281 12.7297H12.0408V12.6937C12.0408 12.3337 11.9728 12.0137 11.8368 11.7337C11.7088 11.4537 11.5208 11.2337 11.2728 11.0737C11.0248 10.9057 10.7288 10.8217 10.3848 10.8217C10.0408 10.8217 9.74481 10.9057 9.49681 11.0737C9.25681 11.2337 9.07281 11.4537 8.94481 11.7337C8.81681 12.0137 8.75281 12.3337 8.75281 12.6937V12.7297ZM16.4567 16.3057C16.3367 16.3057 16.2407 16.2777 16.1687 16.2217C16.1047 16.1657 16.0527 16.0937 16.0127 16.0057L13.7927 10.4377C13.7767 10.3977 13.7687 10.3577 13.7687 10.3177C13.7687 10.2457 13.7927 10.1857 13.8407 10.1377C13.8887 10.0897 13.9487 10.0657 14.0207 10.0657H14.5967C14.6847 10.0657 14.7527 10.0897 14.8007 10.1377C14.8487 10.1857 14.8767 10.2297 14.8847 10.2697L16.7207 14.9977L18.5447 10.2697C18.5607 10.2297 18.5887 10.1857 18.6287 10.1377C18.6767 10.0897 18.7447 10.0657 18.8327 10.0657H19.4207C19.4847 10.0657 19.5407 10.0897 19.5887 10.1377C19.6447 10.1857 19.6727 10.2457 19.6727 10.3177C19.6727 10.3577 19.6647 10.3977 19.6487 10.4377L17.4167 16.0057C17.3847 16.0937 17.3327 16.1657 17.2607 16.2217C17.1967 16.2777 17.1007 16.3057 16.9727 16.3057H16.4567ZM23.0706 16.4257C22.2466 16.4257 21.5906 16.1737 21.1026 15.6697C20.6146 15.1577 20.3466 14.4617 20.2986 13.5817C20.2906 13.4777 20.2866 13.3457 20.2866 13.1857C20.2866 13.0177 20.2906 12.8817 20.2986 12.7777C20.3306 12.2097 20.4626 11.7137 20.6946 11.2897C20.9266 10.8577 21.2426 10.5257 21.6426 10.2937C22.0506 10.0617 22.5266 9.94566 23.0706 9.94566C23.6786 9.94566 24.1866 10.0737 24.5946 10.3297C25.0106 10.5857 25.3266 10.9497 25.5426 11.4217C25.7586 11.8937 25.8666 12.4457 25.8666 13.0777V13.2817C25.8666 13.3697 25.8386 13.4377 25.7826 13.4857C25.7346 13.5337 25.6706 13.5577 25.5906 13.5577H21.4386C21.4386 13.5657 21.4386 13.5817 21.4386 13.6057C21.4386 13.6297 21.4386 13.6497 21.4386 13.6657C21.4546 13.9937 21.5266 14.3017 21.6546 14.5897C21.7826 14.8697 21.9666 15.0977 22.2066 15.2737C22.4466 15.4497 22.7346 15.5377 23.0706 15.5377C23.3586 15.5377 23.5986 15.4937 23.7906 15.4057C23.9826 15.3177 24.1386 15.2217 24.2586 15.1177C24.3786 15.0057 24.4586 14.9217 24.4986 14.8657C24.5706 14.7617 24.6266 14.7017 24.6666 14.6857C24.7066 14.6617 24.7706 14.6497 24.8586 14.6497H25.4346C25.5146 14.6497 25.5786 14.6737 25.6266 14.7217C25.6826 14.7617 25.7066 14.8217 25.6986 14.9017C25.6906 15.0217 25.6266 15.1697 25.5066 15.3457C25.3866 15.5137 25.2146 15.6817 24.9906 15.8497C24.7666 16.0177 24.4946 16.1577 24.1746 16.2697C23.8546 16.3737 23.4866 16.4257 23.0706 16.4257ZM21.4386 12.7297H24.7266V12.6937C24.7266 12.3337 24.6586 12.0137 24.5226 11.7337C24.3946 11.4537 24.2066 11.2337 23.9586 11.0737C23.7106 10.9057 23.4146 10.8217 23.0706 10.8217C22.7266 10.8217 22.4306 10.9057 22.1826 11.0737C21.9426 11.2337 21.7586 11.4537 21.6306 11.7337C21.5026 12.0137 21.4386 12.3337 21.4386 12.6937V12.7297ZM27.4694 16.3057C27.3894 16.3057 27.3214 16.2817 27.2654 16.2337C27.2174 16.1777 27.1934 16.1097 27.1934 16.0297V8.06166C27.1934 7.98166 27.2174 7.91766 27.2654 7.86966C27.3214 7.81366 27.3894 7.78566 27.4694 7.78566H28.0334C28.1214 7.78566 28.1894 7.81366 28.2374 7.86966C28.2854 7.91766 28.3094 7.98166 28.3094 8.06166V16.0297C28.3094 16.1097 28.2854 16.1777 28.2374 16.2337C28.1894 16.2817 28.1214 16.3057 28.0334 16.3057H27.4694ZM35.7168 16.4257C35.1648 16.4257 34.6968 16.3417 34.3128 16.1737C33.9368 15.9977 33.6288 15.7577 33.3888 15.4537C33.1488 15.1497 32.9728 14.8017 32.8608 14.4097C32.7568 14.0177 32.6968 13.6017 32.6808 13.1617C32.6728 12.9457 32.6648 12.7177 32.6568 12.4777C32.6568 12.2377 32.6568 11.9977 32.6568 11.7577C32.6648 11.5097 32.6728 11.2737 32.6808 11.0497C32.6888 10.6097 32.7488 10.1937 32.8608 9.80166C32.9808 9.40166 33.1568 9.05366 33.3888 8.75766C33.6288 8.45366 33.9408 8.21766 34.3248 8.04966C34.7088 7.87366 35.1728 7.78566 35.7168 7.78566C36.2688 7.78566 36.7328 7.87366 37.1088 8.04966C37.4928 8.21766 37.8048 8.45366 38.0448 8.75766C38.2848 9.05366 38.4608 9.40166 38.5728 9.80166C38.6928 10.1937 38.7568 10.6097 38.7648 11.0497C38.7728 11.2737 38.7768 11.5097 38.7768 11.7577C38.7848 11.9977 38.7848 12.2377 38.7768 12.4777C38.7768 12.7177 38.7728 12.9457 38.7648 13.1617C38.7568 13.6017 38.6928 14.0177 38.5728 14.4097C38.4608 14.8017 38.2848 15.1497 38.0448 15.4537C37.8128 15.7577 37.5048 15.9977 37.1208 16.1737C36.7448 16.3417 36.2768 16.4257 35.7168 16.4257ZM35.7168 15.4057C36.3408 15.4057 36.8008 15.2017 37.0968 14.7937C37.4008 14.3777 37.5568 13.8137 37.5648 13.1017C37.5808 12.8697 37.5888 12.6457 37.5888 12.4297C37.5888 12.2057 37.5888 11.9857 37.5888 11.7697C37.5888 11.5457 37.5808 11.3257 37.5648 11.1097C37.5568 10.4137 37.4008 9.85766 37.0968 9.44166C36.8008 9.01766 36.3408 8.80566 35.7168 8.80566C35.1008 8.80566 34.6408 9.01766 34.3368 9.44166C34.0408 9.85766 33.8848 10.4137 33.8688 11.1097C33.8688 11.3257 33.8648 11.5457 33.8568 11.7697C33.8568 11.9857 33.8568 12.2057 33.8568 12.4297C33.8648 12.6457 33.8688 12.8697 33.8688 13.1017C33.8848 13.8137 34.0448 14.3777 34.3488 14.7937C34.6528 15.2017 35.1088 15.4057 35.7168 15.4057ZM42.722 16.3057C42.642 16.3057 42.574 16.2817 42.518 16.2337C42.47 16.1777 42.446 16.1097 42.446 16.0297V9.30966L40.454 10.8457C40.39 10.8937 40.322 10.9137 40.25 10.9057C40.178 10.8977 40.118 10.8617 40.07 10.7977L39.758 10.4017C39.71 10.3297 39.69 10.2577 39.698 10.1857C39.714 10.1137 39.754 10.0537 39.818 10.0057L42.434 7.98966C42.49 7.94966 42.542 7.92566 42.59 7.91766C42.638 7.90966 42.69 7.90566 42.746 7.90566H43.358C43.438 7.90566 43.502 7.93366 43.55 7.98966C43.598 8.03766 43.622 8.10166 43.622 8.18166V16.0297C43.622 16.1097 43.598 16.1777 43.55 16.2337C43.502 16.2817 43.438 16.3057 43.358 16.3057H42.722Z"
     fill="#88836D"
     id="path1" />
  <path
     d="M8.948 40.5457C7.444 40.5457 6.164 40.2977 5.108 39.8017C4.068 39.2897 3.26 38.5537 2.684 37.5937C2.108 36.6177 1.788 35.4337 1.724 34.0417C1.708 33.3857 1.7 32.6817 1.7 31.9297C1.7 31.1777 1.708 30.4577 1.724 29.7697C1.788 28.3937 2.108 27.2257 2.684 26.2657C3.276 25.2897 4.1 24.5457 5.156 24.0337C6.212 23.5217 7.476 23.2657 8.948 23.2657C10.02 23.2657 10.996 23.4017 11.876 23.6737C12.756 23.9457 13.516 24.3377 14.156 24.8497C14.796 25.3617 15.292 25.9617 15.644 26.6497C15.996 27.3377 16.188 28.1057 16.22 28.9537C16.22 29.0977 16.164 29.2177 16.052 29.3137C15.956 29.4097 15.836 29.4577 15.692 29.4577H12.956C12.764 29.4577 12.612 29.4097 12.5 29.3137C12.388 29.2177 12.3 29.0577 12.236 28.8337C11.996 27.8897 11.596 27.2417 11.036 26.8897C10.476 26.5377 9.78 26.3617 8.948 26.3617C7.956 26.3617 7.172 26.6337 6.596 27.1777C6.02 27.7217 5.708 28.6257 5.66 29.8897C5.612 31.2017 5.612 32.5457 5.66 33.9217C5.708 35.1857 6.02 36.0897 6.596 36.6337C7.172 37.1777 7.956 37.4497 8.948 37.4497C9.78 37.4497 10.476 37.2737 11.036 36.9217C11.612 36.5537 12.012 35.9057 12.236 34.9777C12.3 34.7377 12.388 34.5777 12.5 34.4977C12.612 34.4017 12.764 34.3537 12.956 34.3537H15.692C15.836 34.3537 15.956 34.4017 16.052 34.4977C16.164 34.5937 16.22 34.7137 16.22 34.8577C16.188 35.7057 15.996 36.4737 15.644 37.1617C15.292 37.8497 14.796 38.4497 14.156 38.9617C13.516 39.4737 12.756 39.8657 11.876 40.1377C10.996 40.4097 10.02 40.5457 8.948 40.5457ZM21.6046 40.5457C20.7566 40.5457 19.9966 40.3857 19.3246 40.0657C18.6526 39.7297 18.1166 39.2817 17.7166 38.7217C17.3166 38.1617 17.1166 37.5377 17.1166 36.8497C17.1166 35.7137 17.5726 34.8177 18.4846 34.1617C19.4126 33.5057 20.6286 33.0577 22.1326 32.8177L25.2766 32.3617V31.9297C25.2766 31.3057 25.1326 30.8257 24.8446 30.4897C24.5566 30.1537 24.0526 29.9857 23.3326 29.9857C22.8046 29.9857 22.3806 30.0897 22.0606 30.2977C21.7406 30.5057 21.4926 30.7777 21.3166 31.1137C21.1886 31.3217 21.0046 31.4257 20.7646 31.4257H18.4846C18.3086 31.4257 18.1726 31.3777 18.0766 31.2817C17.9806 31.1697 17.9406 31.0417 17.9566 30.8977C17.9566 30.6257 18.0606 30.3057 18.2686 29.9377C18.4766 29.5697 18.7966 29.2097 19.2286 28.8577C19.6606 28.4897 20.2126 28.1857 20.8846 27.9457C21.5566 27.7057 22.3806 27.5857 23.3566 27.5857C24.3646 27.5857 25.2286 27.7057 25.9486 27.9457C26.6686 28.1857 27.2446 28.5217 27.6766 28.9537C28.1086 29.3857 28.4286 29.8897 28.6366 30.4657C28.8446 31.0257 28.9486 31.6337 28.9486 32.2897V39.7057C28.9486 39.8817 28.8926 40.0257 28.7806 40.1377C28.6686 40.2497 28.5246 40.3057 28.3486 40.3057H25.9966C25.8366 40.3057 25.7006 40.2497 25.5886 40.1377C25.4766 40.0257 25.4206 39.8817 25.4206 39.7057V38.8177C25.2126 39.1217 24.9326 39.4097 24.5806 39.6817C24.2286 39.9377 23.8046 40.1457 23.3086 40.3057C22.8286 40.4657 22.2606 40.5457 21.6046 40.5457ZM22.5646 38.0497C23.0926 38.0497 23.5646 37.9377 23.9806 37.7137C24.3966 37.4897 24.7246 37.1457 24.9646 36.6817C25.2046 36.2177 25.3246 35.6337 25.3246 34.9297V34.5217L23.0926 34.8817C22.2286 35.0257 21.5966 35.2417 21.1966 35.5297C20.7966 35.8177 20.5966 36.1697 20.5966 36.5857C20.5966 36.8897 20.6846 37.1537 20.8606 37.3777C21.0526 37.6017 21.3006 37.7697 21.6046 37.8817C21.9086 37.9937 22.2286 38.0497 22.5646 38.0497ZM31.7105 40.3057C31.5505 40.3057 31.4145 40.2497 31.3025 40.1377C31.1905 40.0257 31.1345 39.8817 31.1345 39.7057V28.4257C31.1345 28.2657 31.1905 28.1297 31.3025 28.0177C31.4145 27.8897 31.5505 27.8257 31.7105 27.8257H34.0625C34.2225 27.8257 34.3585 27.8897 34.4705 28.0177C34.5985 28.1297 34.6625 28.2657 34.6625 28.4257V29.3857C35.0625 28.8897 35.5505 28.5057 36.1265 28.2337C36.7185 27.9617 37.3985 27.8257 38.1665 27.8257H39.1985C39.3585 27.8257 39.4945 27.8817 39.6065 27.9937C39.7185 28.1057 39.7745 28.2497 39.7745 28.4257V30.4897C39.7745 30.6657 39.7185 30.8097 39.6065 30.9217C39.4945 31.0337 39.3585 31.0897 39.1985 31.0897H37.0865C36.3825 31.0897 35.8305 31.2897 35.4305 31.6897C35.0305 32.0737 34.8305 32.6257 34.8305 33.3457V39.7057C34.8305 39.8817 34.7745 40.0257 34.6625 40.1377C34.5505 40.2497 34.4065 40.3057 34.2305 40.3057H31.7105ZM46.2716 40.5457C44.4316 40.5457 42.9676 40.0337 41.8796 39.0097C40.8076 37.9857 40.2396 36.4977 40.1756 34.5457C40.1756 34.4177 40.1756 34.2497 40.1756 34.0417C40.1756 33.8177 40.1756 33.6417 40.1756 33.5137C40.2396 32.2817 40.5196 31.2257 41.0156 30.3457C41.5116 29.4497 42.2076 28.7697 43.1036 28.3057C43.9996 27.8257 45.0476 27.5857 46.2476 27.5857C47.5916 27.5857 48.7116 27.8657 49.6076 28.4257C50.5196 28.9697 51.1996 29.7217 51.6476 30.6817C52.1116 31.6257 52.3436 32.7137 52.3436 33.9457V34.4977C52.3436 34.6577 52.2796 34.7937 52.1516 34.9057C52.0396 35.0177 51.9036 35.0737 51.7436 35.0737H43.8956C43.8956 35.0897 43.8956 35.1217 43.8956 35.1697C43.8956 35.2017 43.8956 35.2337 43.8956 35.2657C43.9116 35.7777 44.0076 36.2497 44.1836 36.6817C44.3756 37.0977 44.6396 37.4337 44.9756 37.6897C45.3276 37.9457 45.7436 38.0737 46.2236 38.0737C46.6236 38.0737 46.9516 38.0177 47.2076 37.9057C47.4636 37.7937 47.6716 37.6577 47.8316 37.4977C48.0076 37.3377 48.1356 37.2017 48.2156 37.0897C48.3596 36.9297 48.4716 36.8337 48.5516 36.8017C48.6476 36.7537 48.7916 36.7297 48.9836 36.7297H51.4796C51.6396 36.7297 51.7676 36.7777 51.8636 36.8737C51.9756 36.9537 52.0236 37.0737 52.0076 37.2337C51.9916 37.4897 51.8556 37.8097 51.5996 38.1937C51.3596 38.5617 50.9996 38.9297 50.5196 39.2977C50.0396 39.6497 49.4396 39.9457 48.7196 40.1857C48.0156 40.4257 47.1996 40.5457 46.2716 40.5457ZM43.8956 32.8897H48.5996V32.8417C48.5996 32.2657 48.5036 31.7697 48.3116 31.3537C48.1356 30.9217 47.8716 30.5857 47.5196 30.3457C47.1676 30.1057 46.7436 29.9857 46.2476 29.9857C45.7516 29.9857 45.3276 30.1057 44.9756 30.3457C44.6236 30.5857 44.3516 30.9217 44.1596 31.3537C43.9836 31.7697 43.8956 32.2657 43.8956 32.8417V32.8897ZM55.8969 40.3057C55.7209 40.3057 55.5769 40.2497 55.4649 40.1377C55.3529 40.0257 55.2969 39.8817 55.2969 39.7057V30.6577H53.4249C53.2489 30.6577 53.1049 30.6017 52.9929 30.4897C52.8809 30.3777 52.8249 30.2337 52.8249 30.0577V28.4257C52.8249 28.2497 52.8809 28.1057 52.9929 27.9937C53.1049 27.8817 53.2489 27.8257 53.4249 27.8257H55.2969V26.9617C55.2969 25.9377 55.4889 25.0977 55.8729 24.4417C56.2569 23.7857 56.8169 23.3057 57.5529 23.0017C58.2889 22.6977 59.1929 22.5457 60.2649 22.5457H62.0169C62.1929 22.5457 62.3369 22.6017 62.4489 22.7137C62.5609 22.8257 62.6169 22.9697 62.6169 23.1457V24.7777C62.6169 24.9537 62.5609 25.0977 62.4489 25.2097C62.3369 25.3217 62.1929 25.3777 62.0169 25.3777H60.4089C59.8169 25.3777 59.4009 25.5217 59.1609 25.8097C58.9369 26.0977 58.8249 26.5217 58.8249 27.0817V27.8257H61.7769C61.9529 27.8257 62.0969 27.8817 62.2089 27.9937C62.3209 28.1057 62.3769 28.2497 62.3769 28.4257V30.0577C62.3769 30.2337 62.3209 30.3777 62.2089 30.4897C62.0969 30.6017 61.9529 30.6577 61.7769 30.6577H58.8249V39.7057C58.8249 39.8817 58.7689 40.0257 58.6569 40.1377C58.5449 40.2497 58.4089 40.3057 58.2489 40.3057H55.8969ZM64.0505 40.3057C63.8905 40.3057 63.7545 40.2497 63.6425 40.1377C63.5305 40.0257 63.4745 39.8817 63.4745 39.7057V28.4257C63.4745 28.2657 63.5305 28.1297 63.6425 28.0177C63.7545 27.8897 63.8905 27.8257 64.0505 27.8257H66.4025C66.5625 27.8257 66.6985 27.8897 66.8105 28.0177C66.9385 28.1297 67.0025 28.2657 67.0025 28.4257V29.3857C67.4025 28.8897 67.8905 28.5057 68.4665 28.2337C69.0585 27.9617 69.7385 27.8257 70.5065 27.8257H71.5385C71.6985 27.8257 71.8345 27.8817 71.9465 27.9937C72.0585 28.1057 72.1145 28.2497 72.1145 28.4257V30.4897C72.1145 30.6657 72.0585 30.8097 71.9465 30.9217C71.8345 31.0337 71.6985 31.0897 71.5385 31.0897H69.4265C68.7225 31.0897 68.1705 31.2897 67.7705 31.6897C67.3705 32.0737 67.1705 32.6257 67.1705 33.3457V39.7057C67.1705 39.8817 67.1145 40.0257 67.0025 40.1377C66.8905 40.2497 66.7465 40.3057 66.5705 40.3057H64.0505ZM78.6116 40.5457C76.7716 40.5457 75.3076 40.0337 74.2196 39.0097C73.1476 37.9857 72.5796 36.4977 72.5156 34.5457C72.5156 34.4177 72.5156 34.2497 72.5156 34.0417C72.5156 33.8177 72.5156 33.6417 72.5156 33.5137C72.5796 32.2817 72.8596 31.2257 73.3556 30.3457C73.8516 29.4497 74.5476 28.7697 75.4436 28.3057C76.3396 27.8257 77.3876 27.5857 78.5876 27.5857C79.9316 27.5857 81.0516 27.8657 81.9476 28.4257C82.8596 28.9697 83.5396 29.7217 83.9876 30.6817C84.4516 31.6257 84.6836 32.7137 84.6836 33.9457V34.4977C84.6836 34.6577 84.6196 34.7937 84.4916 34.9057C84.3796 35.0177 84.2436 35.0737 84.0836 35.0737H76.2356C76.2356 35.0897 76.2356 35.1217 76.2356 35.1697C76.2356 35.2017 76.2356 35.2337 76.2356 35.2657C76.2516 35.7777 76.3476 36.2497 76.5236 36.6817C76.7156 37.0977 76.9796 37.4337 77.3156 37.6897C77.6676 37.9457 78.0836 38.0737 78.5636 38.0737C78.9636 38.0737 79.2916 38.0177 79.5476 37.9057C79.8036 37.7937 80.0116 37.6577 80.1716 37.4977C80.3476 37.3377 80.4756 37.2017 80.5556 37.0897C80.6996 36.9297 80.8116 36.8337 80.8916 36.8017C80.9876 36.7537 81.1316 36.7297 81.3236 36.7297H83.8196C83.9796 36.7297 84.1076 36.7777 84.2036 36.8737C84.3156 36.9537 84.3636 37.0737 84.3476 37.2337C84.3316 37.4897 84.1956 37.8097 83.9396 38.1937C83.6996 38.5617 83.3396 38.9297 82.8596 39.2977C82.3796 39.6497 81.7796 39.9457 81.0596 40.1857C80.3556 40.4257 79.5396 40.5457 78.6116 40.5457ZM76.2356 32.8897H80.9396V32.8417C80.9396 32.2657 80.8436 31.7697 80.6516 31.3537C80.4756 30.9217 80.2116 30.5857 79.8596 30.3457C79.5076 30.1057 79.0836 29.9857 78.5876 29.9857C78.0916 29.9857 77.6676 30.1057 77.3156 30.3457C76.9636 30.5857 76.6916 30.9217 76.4996 31.3537C76.3236 31.7697 76.2356 32.2657 76.2356 32.8417V32.8897ZM91.9306 40.5457C90.0906 40.5457 88.6266 40.0337 87.5386 39.0097C86.4666 37.9857 85.8986 36.4977 85.8346 34.5457C85.8346 34.4177 85.8346 34.2497 85.8346 34.0417C85.8346 33.8177 85.8346 33.6417 85.8346 33.5137C85.8986 32.2817 86.1786 31.2257 86.6746 30.3457C87.1706 29.4497 87.8666 28.7697 88.7626 28.3057C89.6586 27.8257 90.7066 27.5857 91.9066 27.5857C93.2506 27.5857 94.3706 27.8657 95.2666 28.4257C96.1786 28.9697 96.8586 29.7217 97.3066 30.6817C97.7706 31.6257 98.0026 32.7137 98.0026 33.9457V34.4977C98.0026 34.6577 97.9386 34.7937 97.8106 34.9057C97.6986 35.0177 97.5626 35.0737 97.4026 35.0737H89.5546C89.5546 35.0897 89.5546 35.1217 89.5546 35.1697C89.5546 35.2017 89.5546 35.2337 89.5546 35.2657C89.5706 35.7777 89.6666 36.2497 89.8426 36.6817C90.0346 37.0977 90.2986 37.4337 90.6346 37.6897C90.9866 37.9457 91.4026 38.0737 91.8826 38.0737C92.2826 38.0737 92.6106 38.0177 92.8666 37.9057C93.1226 37.7937 93.3306 37.6577 93.4906 37.4977C93.6666 37.3377 93.7946 37.2017 93.8746 37.0897C94.0186 36.9297 94.1306 36.8337 94.2106 36.8017C94.3066 36.7537 94.4506 36.7297 94.6426 36.7297H97.1386C97.2986 36.7297 97.4266 36.7777 97.5226 36.8737C97.6346 36.9537 97.6826 37.0737 97.6666 37.2337C97.6506 37.4897 97.5146 37.8097 97.2586 38.1937C97.0186 38.5617 96.6586 38.9297 96.1786 39.2977C95.6986 39.6497 95.0986 39.9457 94.3786 40.1857C93.6746 40.4257 92.8586 40.5457 91.9306 40.5457ZM89.5546 32.8897H94.2586V32.8417C94.2586 32.2657 94.1626 31.7697 93.9706 31.3537C93.7946 30.9217 93.5306 30.5857 93.1786 30.3457C92.8266 30.1057 92.4026 29.9857 91.9066 29.9857C91.4106 29.9857 90.9866 30.1057 90.6346 30.3457C90.2826 30.5857 90.0106 30.9217 89.8186 31.3537C89.6426 31.7697 89.5546 32.2657 89.5546 32.8417V32.8897Z"
     fill="#63B281"
     id="path2"
     style="fill:#007191;fill-opacity:1" />
  <path
     d="M5.924 63.4657C4.94267 63.4657 4.12667 63.2843 3.476 62.9217C2.836 62.559 2.35067 62.0523 2.02 61.4017C1.68933 60.751 1.508 59.9937 1.476 59.1297C1.46533 58.6923 1.46 58.223 1.46 57.7217C1.46 57.2203 1.46533 56.7403 1.476 56.2817C1.508 55.4177 1.68933 54.6603 2.02 54.0097C2.35067 53.359 2.836 52.8523 3.476 52.4897C4.12667 52.127 4.94267 51.9457 5.924 51.9457C6.66 51.9457 7.30533 52.047 7.86 52.2497C8.41467 52.4523 8.87333 52.7243 9.236 53.0657C9.60933 53.407 9.892 53.791 10.084 54.2177C10.276 54.6337 10.3827 55.0657 10.404 55.5137C10.4147 55.6097 10.3827 55.6897 10.308 55.7537C10.244 55.8177 10.164 55.8497 10.068 55.8497H9.188C9.092 55.8497 9.00667 55.823 8.932 55.7697C8.868 55.7163 8.82 55.6203 8.788 55.4817C8.60667 54.6497 8.26533 54.079 7.764 53.7697C7.27333 53.4603 6.65467 53.3057 5.908 53.3057C5.05467 53.3057 4.37733 53.551 3.876 54.0417C3.37467 54.5217 3.10267 55.295 3.06 56.3617C3.028 57.2363 3.028 58.1323 3.06 59.0497C3.10267 60.1163 3.37467 60.895 3.876 61.3857C4.37733 61.8657 5.05467 62.1057 5.908 62.1057C6.65467 62.1057 7.27333 61.951 7.764 61.6417C8.26533 61.3323 8.60667 60.7617 8.788 59.9297C8.82 59.791 8.868 59.695 8.932 59.6417C9.00667 59.5883 9.092 59.5617 9.188 59.5617H10.068C10.164 59.5617 10.244 59.5937 10.308 59.6577C10.3827 59.7217 10.4147 59.8017 10.404 59.8977C10.3827 60.3457 10.276 60.783 10.084 61.2097C9.892 61.6257 9.60933 62.0043 9.236 62.3457C8.87333 62.687 8.41467 62.959 7.86 63.1617C7.30533 63.3643 6.66 63.4657 5.924 63.4657ZM15.4283 63.4657C14.6176 63.4657 13.9403 63.311 13.3963 63.0017C12.8523 62.6923 12.4363 62.2657 12.1483 61.7217C11.8603 61.167 11.7003 60.5377 11.6683 59.8337C11.6576 59.6523 11.6523 59.423 11.6523 59.1457C11.6523 58.8577 11.6576 58.6283 11.6683 58.4577C11.7003 57.743 11.8603 57.1137 12.1483 56.5697C12.4469 56.0257 12.8683 55.599 13.4123 55.2897C13.9563 54.9803 14.6283 54.8257 15.4283 54.8257C16.2283 54.8257 16.9003 54.9803 17.4443 55.2897C17.9883 55.599 18.4043 56.0257 18.6923 56.5697C18.9909 57.1137 19.1563 57.743 19.1883 58.4577C19.1989 58.6283 19.2043 58.8577 19.2043 59.1457C19.2043 59.423 19.1989 59.6523 19.1883 59.8337C19.1563 60.5377 18.9963 61.167 18.7083 61.7217C18.4203 62.2657 18.0043 62.6923 17.4603 63.0017C16.9163 63.311 16.2389 63.4657 15.4283 63.4657ZM15.4283 62.2337C16.0896 62.2337 16.6176 62.0257 17.0123 61.6097C17.4069 61.183 17.6203 60.5643 17.6523 59.7537C17.6629 59.5937 17.6683 59.391 17.6683 59.1457C17.6683 58.9003 17.6629 58.6977 17.6523 58.5377C17.6203 57.727 17.4069 57.1137 17.0123 56.6977C16.6176 56.271 16.0896 56.0577 15.4283 56.0577C14.7669 56.0577 14.2336 56.271 13.8283 56.6977C13.4336 57.1137 13.2256 57.727 13.2043 58.5377C13.1936 58.6977 13.1883 58.9003 13.1883 59.1457C13.1883 59.391 13.1936 59.5937 13.2043 59.7537C13.2256 60.5643 13.4336 61.183 13.8283 61.6097C14.2336 62.0257 14.7669 62.2337 15.4283 62.2337ZM21.2558 63.3057C21.1491 63.3057 21.0584 63.2737 20.9838 63.2097C20.9198 63.135 20.8878 63.0443 20.8878 62.9377V55.3537C20.8878 55.247 20.9198 55.1617 20.9838 55.0977C21.0584 55.023 21.1491 54.9857 21.2558 54.9857H21.9758C22.0824 54.9857 22.1678 55.023 22.2318 55.0977C22.3064 55.1617 22.3438 55.247 22.3438 55.3537V55.9137C22.5891 55.583 22.8984 55.3217 23.2718 55.1297C23.6451 54.927 24.0931 54.8257 24.6158 54.8257C25.8211 54.815 26.6744 55.3057 27.1758 56.2977C27.4211 55.8497 27.7784 55.4923 28.2478 55.2257C28.7171 54.959 29.2504 54.8257 29.8478 54.8257C30.4024 54.8257 30.9038 54.9537 31.3518 55.2097C31.8104 55.4657 32.1678 55.855 32.4238 56.3777C32.6904 56.8897 32.8238 57.535 32.8238 58.3137V62.9377C32.8238 63.0443 32.7864 63.135 32.7118 63.2097C32.6478 63.2737 32.5624 63.3057 32.4558 63.3057H31.7038C31.5971 63.3057 31.5064 63.2737 31.4318 63.2097C31.3678 63.135 31.3358 63.0443 31.3358 62.9377V58.4577C31.3358 57.8603 31.2504 57.391 31.0798 57.0497C30.9091 56.7083 30.6798 56.4683 30.3918 56.3297C30.1038 56.191 29.7891 56.1217 29.4478 56.1217C29.1704 56.1217 28.8878 56.191 28.5998 56.3297C28.3118 56.4683 28.0718 56.7083 27.8798 57.0497C27.6984 57.391 27.6078 57.8603 27.6078 58.4577V62.9377C27.6078 63.0443 27.5704 63.135 27.4958 63.2097C27.4318 63.2737 27.3464 63.3057 27.2398 63.3057H26.4878C26.3811 63.3057 26.2904 63.2737 26.2158 63.2097C26.1518 63.135 26.1198 63.0443 26.1198 62.9377V58.4577C26.1198 57.8603 26.0291 57.391 25.8478 57.0497C25.6664 56.7083 25.4318 56.4683 25.1438 56.3297C24.8558 56.191 24.5518 56.1217 24.2318 56.1217C23.9544 56.1217 23.6718 56.191 23.3838 56.3297C23.0958 56.4683 22.8558 56.7083 22.6638 57.0497C22.4824 57.391 22.3918 57.855 22.3918 58.4417V62.9377C22.3918 63.0443 22.3544 63.135 22.2798 63.2097C22.2158 63.2737 22.1304 63.3057 22.0238 63.3057H21.2558ZM35.8615 63.3057C35.7548 63.3057 35.6642 63.2737 35.5895 63.2097C35.5255 63.135 35.4935 63.0443 35.4935 62.9377V56.2657H34.1335C34.0268 56.2657 33.9362 56.2337 33.8615 56.1697C33.7975 56.095 33.7655 56.0043 33.7655 55.8977V55.3537C33.7655 55.247 33.7975 55.1617 33.8615 55.0977C33.9362 55.023 34.0268 54.9857 34.1335 54.9857H35.4935V54.1857C35.4935 53.6417 35.5842 53.167 35.7655 52.7617C35.9468 52.3457 36.2348 52.0257 36.6295 51.8017C37.0348 51.5777 37.5735 51.4657 38.2455 51.4657H39.2055C39.3122 51.4657 39.3975 51.503 39.4615 51.5777C39.5255 51.6417 39.5575 51.727 39.5575 51.8337V52.3777C39.5575 52.4843 39.5255 52.575 39.4615 52.6497C39.3975 52.7137 39.3122 52.7457 39.2055 52.7457H38.2775C37.7762 52.7457 37.4348 52.879 37.2535 53.1457C37.0722 53.4017 36.9815 53.775 36.9815 54.2657V54.9857H39.0455C39.1522 54.9857 39.2375 55.023 39.3015 55.0977C39.3655 55.1617 39.3975 55.247 39.3975 55.3537V55.8977C39.3975 56.0043 39.3655 56.095 39.3015 56.1697C39.2375 56.2337 39.1522 56.2657 39.0455 56.2657H36.9815V62.9377C36.9815 63.0443 36.9442 63.135 36.8695 63.2097C36.8055 63.2737 36.7202 63.3057 36.6135 63.3057H35.8615ZM43.7495 63.4657C42.9388 63.4657 42.2615 63.311 41.7175 63.0017C41.1735 62.6923 40.7575 62.2657 40.4695 61.7217C40.1815 61.167 40.0215 60.5377 39.9895 59.8337C39.9788 59.6523 39.9735 59.423 39.9735 59.1457C39.9735 58.8577 39.9788 58.6283 39.9895 58.4577C40.0215 57.743 40.1815 57.1137 40.4695 56.5697C40.7682 56.0257 41.1895 55.599 41.7335 55.2897C42.2775 54.9803 42.9495 54.8257 43.7495 54.8257C44.5495 54.8257 45.2215 54.9803 45.7655 55.2897C46.3095 55.599 46.7255 56.0257 47.0135 56.5697C47.3122 57.1137 47.4775 57.743 47.5095 58.4577C47.5202 58.6283 47.5255 58.8577 47.5255 59.1457C47.5255 59.423 47.5202 59.6523 47.5095 59.8337C47.4775 60.5377 47.3175 61.167 47.0295 61.7217C46.7415 62.2657 46.3255 62.6923 45.7815 63.0017C45.2375 63.311 44.5602 63.4657 43.7495 63.4657ZM43.7495 62.2337C44.4108 62.2337 44.9388 62.0257 45.3335 61.6097C45.7282 61.183 45.9415 60.5643 45.9735 59.7537C45.9842 59.5937 45.9895 59.391 45.9895 59.1457C45.9895 58.9003 45.9842 58.6977 45.9735 58.5377C45.9415 57.727 45.7282 57.1137 45.3335 56.6977C44.9388 56.271 44.4108 56.0577 43.7495 56.0577C43.0882 56.0577 42.5548 56.271 42.1495 56.6977C41.7548 57.1137 41.5468 57.727 41.5255 58.5377C41.5148 58.6977 41.5095 58.9003 41.5095 59.1457C41.5095 59.391 41.5148 59.5937 41.5255 59.7537C41.5468 60.5643 41.7548 61.183 42.1495 61.6097C42.5548 62.0257 43.0882 62.2337 43.7495 62.2337ZM49.577 63.3057C49.4703 63.3057 49.3797 63.2737 49.305 63.2097C49.241 63.135 49.209 63.0443 49.209 62.9377V55.3697C49.209 55.263 49.241 55.1723 49.305 55.0977C49.3797 55.023 49.4703 54.9857 49.577 54.9857H50.313C50.4197 54.9857 50.5103 55.023 50.585 55.0977C50.6597 55.1723 50.697 55.263 50.697 55.3697V56.0737C50.9103 55.711 51.2037 55.439 51.577 55.2577C51.9503 55.0763 52.3983 54.9857 52.921 54.9857H53.561C53.6677 54.9857 53.753 55.023 53.817 55.0977C53.881 55.1617 53.913 55.247 53.913 55.3537V56.0097C53.913 56.1163 53.881 56.2017 53.817 56.2657C53.753 56.3297 53.6677 56.3617 53.561 56.3617H52.601C52.025 56.3617 51.5717 56.5323 51.241 56.8737C50.9103 57.2043 50.745 57.6577 50.745 58.2337V62.9377C50.745 63.0443 50.7077 63.135 50.633 63.2097C50.5583 63.2737 50.4677 63.3057 50.361 63.3057H49.577ZM58.2151 63.3057C57.6178 63.3057 57.1325 63.1937 56.7591 62.9697C56.3858 62.735 56.1138 62.4097 55.9431 61.9937C55.7725 61.567 55.6871 61.0657 55.6871 60.4897V56.2657H54.4391C54.3325 56.2657 54.2418 56.2337 54.1671 56.1697C54.1031 56.095 54.0711 56.0043 54.0711 55.8977V55.3537C54.0711 55.247 54.1031 55.1617 54.1671 55.0977C54.2418 55.023 54.3325 54.9857 54.4391 54.9857H55.6871V52.3137C55.6871 52.207 55.7191 52.1217 55.7831 52.0577C55.8578 51.983 55.9485 51.9457 56.0551 51.9457H56.8071C56.9138 51.9457 56.9991 51.983 57.0631 52.0577C57.1378 52.1217 57.1751 52.207 57.1751 52.3137V54.9857H59.1591C59.2658 54.9857 59.3511 55.023 59.4151 55.0977C59.4898 55.1617 59.5271 55.247 59.5271 55.3537V55.8977C59.5271 56.0043 59.4898 56.095 59.4151 56.1697C59.3511 56.2337 59.2658 56.2657 59.1591 56.2657H57.1751V60.3777C57.1751 60.879 57.2605 61.2737 57.4311 61.5617C57.6018 61.8497 57.9058 61.9937 58.3431 61.9937H59.3191C59.4258 61.9937 59.5111 62.031 59.5751 62.1057C59.6498 62.1697 59.6871 62.255 59.6871 62.3617V62.9377C59.6871 63.0443 59.6498 63.135 59.5751 63.2097C59.5111 63.2737 59.4258 63.3057 59.3191 63.3057H58.2151ZM63.2171 63.4657C62.6838 63.4657 62.1985 63.359 61.7611 63.1457C61.3238 62.9323 60.9718 62.6443 60.7051 62.2817C60.4385 61.919 60.3051 61.5083 60.3051 61.0497C60.3051 60.3137 60.6038 59.727 61.2011 59.2897C61.7985 58.8523 62.5771 58.5643 63.5371 58.4257L65.9211 58.0897V57.6257C65.9211 57.1137 65.7718 56.7137 65.4731 56.4257C65.1851 56.1377 64.7105 55.9937 64.0491 55.9937C63.5691 55.9937 63.1798 56.0897 62.8811 56.2817C62.5931 56.4737 62.3905 56.719 62.2731 57.0177C62.2091 57.1777 62.0971 57.2577 61.9371 57.2577H61.2171C61.0998 57.2577 61.0091 57.2257 60.9451 57.1617C60.8918 57.087 60.8651 57.0017 60.8651 56.9057C60.8651 56.7457 60.9238 56.5483 61.0411 56.3137C61.1691 56.079 61.3611 55.8497 61.6171 55.6257C61.8731 55.4017 62.1985 55.215 62.5931 55.0657C62.9985 54.9057 63.4891 54.8257 64.0651 54.8257C64.7051 54.8257 65.2438 54.911 65.6811 55.0817C66.1185 55.2417 66.4598 55.4603 66.7051 55.7377C66.9611 56.015 67.1425 56.3297 67.2491 56.6817C67.3665 57.0337 67.4251 57.391 67.4251 57.7537V62.9377C67.4251 63.0443 67.3878 63.135 67.3131 63.2097C67.2491 63.2737 67.1638 63.3057 67.0571 63.3057H66.3211C66.2038 63.3057 66.1131 63.2737 66.0491 63.2097C65.9851 63.135 65.9531 63.0443 65.9531 62.9377V62.2497C65.8145 62.4417 65.6278 62.6337 65.3931 62.8257C65.1585 63.007 64.8651 63.1617 64.5131 63.2897C64.1611 63.407 63.7291 63.4657 63.2171 63.4657ZM63.5531 62.2657C63.9905 62.2657 64.3905 62.175 64.7531 61.9937C65.1158 61.8017 65.3985 61.5083 65.6011 61.1137C65.8145 60.719 65.9211 60.223 65.9211 59.6257V59.1777L64.0651 59.4497C63.3078 59.5563 62.7371 59.7377 62.3531 59.9937C61.9691 60.239 61.7771 60.5537 61.7771 60.9377C61.7771 61.2363 61.8625 61.487 62.0331 61.6897C62.2145 61.8817 62.4385 62.0257 62.7051 62.1217C62.9825 62.2177 63.2651 62.2657 63.5531 62.2657ZM73.5173 63.4657C72.8773 63.4657 72.3439 63.3537 71.9173 63.1297C71.4906 62.895 71.1493 62.607 70.8933 62.2657V62.9377C70.8933 63.0443 70.8559 63.135 70.7813 63.2097C70.7173 63.2737 70.6319 63.3057 70.5253 63.3057H69.7893C69.6826 63.3057 69.5919 63.2737 69.5173 63.2097C69.4533 63.135 69.4213 63.0443 69.4213 62.9377V52.3137C69.4213 52.207 69.4533 52.1217 69.5173 52.0577C69.5919 51.983 69.6826 51.9457 69.7893 51.9457H70.5573C70.6746 51.9457 70.7653 51.983 70.8293 52.0577C70.8933 52.1217 70.9253 52.207 70.9253 52.3137V55.9937C71.1919 55.663 71.5333 55.3857 71.9493 55.1617C72.3759 54.9377 72.8986 54.8257 73.5173 54.8257C74.1146 54.8257 74.6213 54.9323 75.0373 55.1457C75.4639 55.3483 75.8106 55.631 76.0773 55.9937C76.3546 56.3563 76.5626 56.767 76.7013 57.2257C76.8399 57.6843 76.9146 58.1643 76.9253 58.6657C76.9359 58.8363 76.9413 58.9963 76.9413 59.1457C76.9413 59.295 76.9359 59.455 76.9253 59.6257C76.9146 60.1377 76.8399 60.623 76.7013 61.0817C76.5626 61.5403 76.3546 61.951 76.0773 62.3137C75.8106 62.6657 75.4639 62.9483 75.0373 63.1617C74.6213 63.3643 74.1146 63.4657 73.5173 63.4657ZM73.1813 62.1697C73.7359 62.1697 74.1679 62.0523 74.4773 61.8177C74.7973 61.5723 75.0266 61.2577 75.1653 60.8737C75.3039 60.479 75.3839 60.0577 75.4053 59.6097C75.4159 59.3003 75.4159 58.991 75.4053 58.6817C75.3839 58.2337 75.3039 57.8177 75.1653 57.4337C75.0266 57.039 74.7973 56.7243 74.4773 56.4897C74.1679 56.2443 73.7359 56.1217 73.1813 56.1217C72.6799 56.1217 72.2639 56.239 71.9333 56.4737C71.6026 56.7083 71.3519 57.007 71.1813 57.3697C71.0213 57.7323 70.9359 58.1003 70.9253 58.4737C70.9146 58.6443 70.9093 58.8523 70.9093 59.0977C70.9093 59.3323 70.9146 59.535 70.9253 59.7057C70.9466 60.1003 71.0319 60.4897 71.1813 60.8737C71.3413 61.247 71.5813 61.5563 71.9013 61.8017C72.2319 62.047 72.6586 62.1697 73.1813 62.1697ZM78.9849 63.3057C78.8782 63.3057 78.7875 63.2737 78.7129 63.2097C78.6489 63.135 78.6169 63.0443 78.6169 62.9377V52.3137C78.6169 52.207 78.6489 52.1217 78.7129 52.0577C78.7875 51.983 78.8782 51.9457 78.9849 51.9457H79.7369C79.8542 51.9457 79.9449 51.983 80.0089 52.0577C80.0729 52.1217 80.1049 52.207 80.1049 52.3137V62.9377C80.1049 63.0443 80.0729 63.135 80.0089 63.2097C79.9449 63.2737 79.8542 63.3057 79.7369 63.3057H78.9849ZM85.4835 63.4657C84.3848 63.4657 83.5102 63.1297 82.8595 62.4577C82.2088 61.775 81.8515 60.847 81.7875 59.6737C81.7768 59.535 81.7715 59.359 81.7715 59.1457C81.7715 58.9217 81.7768 58.7403 81.7875 58.6017C81.8302 57.8443 82.0062 57.183 82.3155 56.6177C82.6248 56.0417 83.0462 55.599 83.5795 55.2897C84.1235 54.9803 84.7582 54.8257 85.4835 54.8257C86.2942 54.8257 86.9715 54.9963 87.5155 55.3377C88.0702 55.679 88.4915 56.1643 88.7795 56.7937C89.0675 57.423 89.2115 58.159 89.2115 59.0017V59.2737C89.2115 59.391 89.1742 59.4817 89.0995 59.5457C89.0355 59.6097 88.9502 59.6417 88.8435 59.6417H83.3075C83.3075 59.6523 83.3075 59.6737 83.3075 59.7057C83.3075 59.7377 83.3075 59.7643 83.3075 59.7857C83.3288 60.223 83.4248 60.6337 83.5955 61.0177C83.7662 61.391 84.0115 61.695 84.3315 61.9297C84.6515 62.1643 85.0355 62.2817 85.4835 62.2817C85.8675 62.2817 86.1875 62.223 86.4435 62.1057C86.6995 61.9883 86.9075 61.8603 87.0675 61.7217C87.2275 61.5723 87.3342 61.4603 87.3875 61.3857C87.4835 61.247 87.5582 61.167 87.6115 61.1457C87.6648 61.1137 87.7502 61.0977 87.8675 61.0977H88.6355C88.7422 61.0977 88.8275 61.1297 88.8915 61.1937C88.9662 61.247 88.9982 61.327 88.9875 61.4337C88.9768 61.5937 88.8915 61.791 88.7315 62.0257C88.5715 62.2497 88.3422 62.4737 88.0435 62.6977C87.7448 62.9217 87.3822 63.1083 86.9555 63.2577C86.5288 63.3963 86.0382 63.4657 85.4835 63.4657ZM83.3075 58.5377H87.6915V58.4897C87.6915 58.0097 87.6008 57.583 87.4195 57.2097C87.2488 56.8363 86.9982 56.543 86.6675 56.3297C86.3368 56.1057 85.9422 55.9937 85.4835 55.9937C85.0248 55.9937 84.6302 56.1057 84.2995 56.3297C83.9795 56.543 83.7342 56.8363 83.5635 57.2097C83.3928 57.583 83.3075 58.0097 83.3075 58.4897V58.5377ZM95.3096 63.3057C95.203 63.3057 95.1123 63.2737 95.0376 63.2097C94.9736 63.135 94.9416 63.0443 94.9416 62.9377V56.2657H93.5816C93.475 56.2657 93.3843 56.2337 93.3096 56.1697C93.2456 56.095 93.2136 56.0043 93.2136 55.8977V55.3537C93.2136 55.247 93.2456 55.1617 93.3096 55.0977C93.3843 55.023 93.475 54.9857 93.5816 54.9857H94.9416V54.1857C94.9416 53.6417 95.0323 53.167 95.2136 52.7617C95.395 52.3457 95.683 52.0257 96.0776 51.8017C96.483 51.5777 97.0216 51.4657 97.6936 51.4657H98.6536C98.7603 51.4657 98.8456 51.503 98.9096 51.5777C98.9736 51.6417 99.0056 51.727 99.0056 51.8337V52.3777C99.0056 52.4843 98.9736 52.575 98.9096 52.6497C98.8456 52.7137 98.7603 52.7457 98.6536 52.7457H97.7256C97.2243 52.7457 96.883 52.879 96.7016 53.1457C96.5203 53.4017 96.4296 53.775 96.4296 54.2657V54.9857H98.4936C98.6003 54.9857 98.6856 55.023 98.7496 55.0977C98.8136 55.1617 98.8456 55.247 98.8456 55.3537V55.8977C98.8456 56.0043 98.8136 56.095 98.7496 56.1697C98.6856 56.2337 98.6003 56.2657 98.4936 56.2657H96.4296V62.9377C96.4296 63.0443 96.3923 63.135 96.3176 63.2097C96.2536 63.2737 96.1683 63.3057 96.0616 63.3057H95.3096ZM103.198 63.4657C102.387 63.4657 101.71 63.311 101.166 63.0017C100.622 62.6923 100.206 62.2657 99.9176 61.7217C99.6296 61.167 99.4696 60.5377 99.4376 59.8337C99.427 59.6523 99.4216 59.423 99.4216 59.1457C99.4216 58.8577 99.427 58.6283 99.4376 58.4577C99.4696 57.743 99.6296 57.1137 99.9176 56.5697C100.216 56.0257 100.638 55.599 101.182 55.2897C101.726 54.9803 102.398 54.8257 103.198 54.8257C103.998 54.8257 104.67 54.9803 105.214 55.2897C105.758 55.599 106.174 56.0257 106.462 56.5697C106.76 57.1137 106.926 57.743 106.958 58.4577C106.968 58.6283 106.974 58.8577 106.974 59.1457C106.974 59.423 106.968 59.6523 106.958 59.8337C106.926 60.5377 106.766 61.167 106.478 61.7217C106.19 62.2657 105.774 62.6923 105.23 63.0017C104.686 63.311 104.008 63.4657 103.198 63.4657ZM103.198 62.2337C103.859 62.2337 104.387 62.0257 104.782 61.6097C105.176 61.183 105.39 60.5643 105.422 59.7537C105.432 59.5937 105.438 59.391 105.438 59.1457C105.438 58.9003 105.432 58.6977 105.422 58.5377C105.39 57.727 105.176 57.1137 104.782 56.6977C104.387 56.271 103.859 56.0577 103.198 56.0577C102.536 56.0577 102.003 56.271 101.598 56.6977C101.203 57.1137 100.995 57.727 100.974 58.5377C100.963 58.6977 100.958 58.9003 100.958 59.1457C100.958 59.391 100.963 59.5937 100.974 59.7537C100.995 60.5643 101.203 61.183 101.598 61.6097C102.003 62.0257 102.536 62.2337 103.198 62.2337ZM109.025 63.3057C108.918 63.3057 108.828 63.2737 108.753 63.2097C108.689 63.135 108.657 63.0443 108.657 62.9377V55.3697C108.657 55.263 108.689 55.1723 108.753 55.0977C108.828 55.023 108.918 54.9857 109.025 54.9857H109.761C109.868 54.9857 109.958 55.023 110.033 55.0977C110.108 55.1723 110.145 55.263 110.145 55.3697V56.0737C110.358 55.711 110.652 55.439 111.025 55.2577C111.398 55.0763 111.846 54.9857 112.369 54.9857H113.009C113.116 54.9857 113.201 55.023 113.265 55.0977C113.329 55.1617 113.361 55.247 113.361 55.3537V56.0097C113.361 56.1163 113.329 56.2017 113.265 56.2657C113.201 56.3297 113.116 56.3617 113.009 56.3617H112.049C111.473 56.3617 111.02 56.5323 110.689 56.8737C110.358 57.2043 110.193 57.6577 110.193 58.2337V62.9377C110.193 63.0443 110.156 63.135 110.081 63.2097C110.006 63.2737 109.916 63.3057 109.809 63.3057H109.025ZM5.044 83.4657C4.28667 83.4657 3.63067 83.3217 3.076 83.0337C2.532 82.735 2.11067 82.3137 1.812 81.7697C1.51333 81.215 1.35333 80.5537 1.332 79.7857C1.32133 79.6257 1.316 79.4123 1.316 79.1457C1.316 78.879 1.32133 78.6657 1.332 78.5057C1.35333 77.7377 1.51333 77.0817 1.812 76.5377C2.11067 75.983 2.532 75.5617 3.076 75.2737C3.63067 74.975 4.28667 74.8257 5.044 74.8257C5.66267 74.8257 6.19067 74.911 6.628 75.0817C7.076 75.2523 7.444 75.471 7.732 75.7377C8.02 76.0043 8.23333 76.2923 8.372 76.6017C8.52133 76.911 8.60133 77.2043 8.612 77.4817C8.62267 77.5883 8.59067 77.6737 8.516 77.7377C8.44133 77.8017 8.35067 77.8337 8.244 77.8337H7.476C7.36933 77.8337 7.28933 77.8123 7.236 77.7697C7.18267 77.7163 7.12933 77.631 7.076 77.5137C6.884 76.991 6.62267 76.623 6.292 76.4097C5.96133 76.1963 5.55067 76.0897 5.06 76.0897C4.42 76.0897 3.89733 76.287 3.492 76.6817C3.09733 77.0763 2.884 77.711 2.852 78.5857C2.84133 78.9697 2.84133 79.343 2.852 79.7057C2.884 80.591 3.09733 81.231 3.492 81.6257C3.89733 82.0097 4.42 82.2017 5.06 82.2017C5.55067 82.2017 5.96133 82.095 6.292 81.8817C6.62267 81.6683 6.884 81.3003 7.076 80.7777C7.12933 80.6603 7.18267 80.5803 7.236 80.5377C7.28933 80.4843 7.36933 80.4577 7.476 80.4577H8.244C8.35067 80.4577 8.44133 80.4897 8.516 80.5537C8.59067 80.6177 8.62267 80.703 8.612 80.8097C8.60133 81.0337 8.55333 81.263 8.468 81.4977C8.38267 81.7323 8.244 81.9723 8.052 82.2177C7.87067 82.4523 7.64133 82.6657 7.364 82.8577C7.08667 83.039 6.75067 83.1883 6.356 83.3057C5.972 83.4123 5.53467 83.4657 5.044 83.4657ZM10.5761 83.3057C10.4695 83.3057 10.3788 83.2737 10.3041 83.2097C10.2401 83.135 10.2081 83.0443 10.2081 82.9377V72.3137C10.2081 72.207 10.2401 72.1217 10.3041 72.0577C10.3788 71.983 10.4695 71.9457 10.5761 71.9457H11.3761C11.4935 71.9457 11.5841 71.983 11.6481 72.0577C11.7121 72.1217 11.7441 72.207 11.7441 72.3137V76.0417C12.0321 75.679 12.3841 75.3857 12.8001 75.1617C13.2161 74.9377 13.7441 74.8257 14.3841 74.8257C15.0775 74.8257 15.6641 74.9803 16.1441 75.2897C16.6348 75.5883 17.0028 76.0097 17.2481 76.5537C17.5041 77.087 17.6321 77.711 17.6321 78.4257V82.9377C17.6321 83.0443 17.6001 83.135 17.5361 83.2097C17.4721 83.2737 17.3815 83.3057 17.2641 83.3057H16.4641C16.3575 83.3057 16.2668 83.2737 16.1921 83.2097C16.1281 83.135 16.0961 83.0443 16.0961 82.9377V78.5057C16.0961 77.759 15.9148 77.1777 15.5521 76.7617C15.1895 76.335 14.6561 76.1217 13.9521 76.1217C13.2908 76.1217 12.7575 76.335 12.3521 76.7617C11.9468 77.1777 11.7441 77.759 11.7441 78.5057V82.9377C11.7441 83.0443 11.7121 83.135 11.6481 83.2097C11.5841 83.2737 11.4935 83.3057 11.3761 83.3057H10.5761ZM19.9901 83.3057C19.8835 83.3057 19.7928 83.2737 19.7181 83.2097C19.6541 83.135 19.6221 83.0443 19.6221 82.9377V75.3537C19.6221 75.247 19.6541 75.1617 19.7181 75.0977C19.7928 75.023 19.8835 74.9857 19.9901 74.9857H20.7581C20.8648 74.9857 20.9501 75.023 21.0141 75.0977C21.0781 75.1617 21.1101 75.247 21.1101 75.3537V82.9377C21.1101 83.0443 21.0781 83.135 21.0141 83.2097C20.9501 83.2737 20.8648 83.3057 20.7581 83.3057H19.9901ZM19.8621 73.4337C19.7555 73.4337 19.6648 73.4017 19.5901 73.3377C19.5261 73.263 19.4941 73.1723 19.4941 73.0657V72.2017C19.4941 72.095 19.5261 72.0097 19.5901 71.9457C19.6648 71.871 19.7555 71.8337 19.8621 71.8337H20.8701C20.9768 71.8337 21.0621 71.871 21.1261 71.9457C21.2008 72.0097 21.2381 72.095 21.2381 72.2017V73.0657C21.2381 73.1723 21.2008 73.263 21.1261 73.3377C21.0621 73.4017 20.9768 73.4337 20.8701 73.4337H19.8621ZM23.5611 83.3057C23.4545 83.3057 23.3638 83.2737 23.2891 83.2097C23.2251 83.135 23.1931 83.0443 23.1931 82.9377V72.3137C23.1931 72.207 23.2251 72.1217 23.2891 72.0577C23.3638 71.983 23.4545 71.9457 23.5611 71.9457H24.3131C24.4305 71.9457 24.5211 71.983 24.5851 72.0577C24.6491 72.1217 24.6811 72.207 24.6811 72.3137V82.9377C24.6811 83.0443 24.6491 83.135 24.5851 83.2097C24.5211 83.2737 24.4305 83.3057 24.3131 83.3057H23.5611ZM29.7877 83.4657C29.2011 83.4657 28.6944 83.3643 28.2677 83.1617C27.8411 82.9483 27.4891 82.6657 27.2117 82.3137C26.9451 81.951 26.7424 81.5403 26.6037 81.0817C26.4757 80.623 26.4011 80.1377 26.3797 79.6257C26.3691 79.455 26.3637 79.295 26.3637 79.1457C26.3637 78.9963 26.3691 78.8363 26.3797 78.6657C26.4011 78.1643 26.4757 77.6843 26.6037 77.2257C26.7424 76.767 26.9451 76.3563 27.2117 75.9937C27.4891 75.631 27.8411 75.3483 28.2677 75.1457C28.6944 74.9323 29.2011 74.8257 29.7877 74.8257C30.4171 74.8257 30.9397 74.9377 31.3557 75.1617C31.7717 75.3857 32.1131 75.663 32.3797 75.9937V72.3137C32.3797 72.207 32.4117 72.1217 32.4757 72.0577C32.5504 71.983 32.6411 71.9457 32.7477 71.9457H33.5157C33.6224 71.9457 33.7077 71.983 33.7717 72.0577C33.8464 72.1217 33.8837 72.207 33.8837 72.3137V82.9377C33.8837 83.0443 33.8464 83.135 33.7717 83.2097C33.7077 83.2737 33.6224 83.3057 33.5157 83.3057H32.7957C32.6784 83.3057 32.5877 83.2737 32.5237 83.2097C32.4597 83.135 32.4277 83.0443 32.4277 82.9377V82.2657C32.1611 82.607 31.8144 82.895 31.3877 83.1297C30.9611 83.3537 30.4277 83.4657 29.7877 83.4657ZM30.1237 82.1697C30.6571 82.1697 31.0837 82.047 31.4037 81.8017C31.7237 81.5563 31.9637 81.247 32.1237 80.8737C32.2837 80.4897 32.3691 80.1003 32.3797 79.7057C32.3904 79.535 32.3957 79.3323 32.3957 79.0977C32.3957 78.8523 32.3904 78.6443 32.3797 78.4737C32.3691 78.1003 32.2784 77.7323 32.1077 77.3697C31.9477 77.007 31.7024 76.7083 31.3717 76.4737C31.0517 76.239 30.6357 76.1217 30.1237 76.1217C29.5797 76.1217 29.1477 76.2443 28.8277 76.4897C28.5077 76.7243 28.2784 77.039 28.1397 77.4337C28.0011 77.8177 27.9211 78.2337 27.8997 78.6817C27.8891 78.991 27.8891 79.3003 27.8997 79.6097C27.9211 80.0577 28.0011 80.479 28.1397 80.8737C28.2784 81.2577 28.5077 81.5723 28.8277 81.8177C29.1477 82.0523 29.5797 82.1697 30.1237 82.1697ZM36.3114 83.3057C36.2047 83.3057 36.114 83.2737 36.0394 83.2097C35.9754 83.135 35.9434 83.0443 35.9434 82.9377V75.3697C35.9434 75.263 35.9754 75.1723 36.0394 75.0977C36.114 75.023 36.2047 74.9857 36.3114 74.9857H37.0474C37.154 74.9857 37.2447 75.023 37.3194 75.0977C37.394 75.1723 37.4314 75.263 37.4314 75.3697V76.0737C37.6447 75.711 37.938 75.439 38.3114 75.2577C38.6847 75.0763 39.1327 74.9857 39.6554 74.9857H40.2954C40.402 74.9857 40.4874 75.023 40.5514 75.0977C40.6154 75.1617 40.6474 75.247 40.6474 75.3537V76.0097C40.6474 76.1163 40.6154 76.2017 40.5514 76.2657C40.4874 76.3297 40.402 76.3617 40.2954 76.3617H39.3354C38.7594 76.3617 38.306 76.5323 37.9754 76.8737C37.6447 77.2043 37.4794 77.6577 37.4794 78.2337V82.9377C37.4794 83.0443 37.442 83.135 37.3674 83.2097C37.2927 83.2737 37.202 83.3057 37.0954 83.3057H36.3114ZM44.8573 83.4657C43.7586 83.4657 42.8839 83.1297 42.2333 82.4577C41.5826 81.775 41.2253 80.847 41.1613 79.6737C41.1506 79.535 41.1453 79.359 41.1453 79.1457C41.1453 78.9217 41.1506 78.7403 41.1613 78.6017C41.2039 77.8443 41.3799 77.183 41.6893 76.6177C41.9986 76.0417 42.4199 75.599 42.9533 75.2897C43.4973 74.9803 44.1319 74.8257 44.8573 74.8257C45.6679 74.8257 46.3453 74.9963 46.8893 75.3377C47.4439 75.679 47.8653 76.1643 48.1533 76.7937C48.4413 77.423 48.5853 78.159 48.5853 79.0017V79.2737C48.5853 79.391 48.5479 79.4817 48.4733 79.5457C48.4093 79.6097 48.3239 79.6417 48.2173 79.6417H42.6813C42.6813 79.6523 42.6813 79.6737 42.6813 79.7057C42.6813 79.7377 42.6813 79.7643 42.6813 79.7857C42.7026 80.223 42.7986 80.6337 42.9693 81.0177C43.1399 81.391 43.3853 81.695 43.7053 81.9297C44.0253 82.1643 44.4093 82.2817 44.8573 82.2817C45.2413 82.2817 45.5613 82.223 45.8173 82.1057C46.0733 81.9883 46.2813 81.8603 46.4413 81.7217C46.6013 81.5723 46.7079 81.4603 46.7613 81.3857C46.8573 81.247 46.9319 81.167 46.9853 81.1457C47.0386 81.1137 47.1239 81.0977 47.2413 81.0977H48.0093C48.1159 81.0977 48.2013 81.1297 48.2653 81.1937C48.3399 81.247 48.3719 81.327 48.3613 81.4337C48.3506 81.5937 48.2653 81.791 48.1053 82.0257C47.9453 82.2497 47.7159 82.4737 47.4173 82.6977C47.1186 82.9217 46.7559 83.1083 46.3293 83.2577C45.9026 83.3963 45.4119 83.4657 44.8573 83.4657ZM42.6813 78.5377H47.0653V78.4897C47.0653 78.0097 46.9746 77.583 46.7933 77.2097C46.6226 76.8363 46.3719 76.543 46.0413 76.3297C45.7106 76.1057 45.3159 75.9937 44.8573 75.9937C44.3986 75.9937 44.0039 76.1057 43.6733 76.3297C43.3533 76.543 43.1079 76.8363 42.9373 77.2097C42.7666 77.583 42.6813 78.0097 42.6813 78.4897V78.5377ZM50.5464 83.3057C50.4397 83.3057 50.349 83.2737 50.2744 83.2097C50.2104 83.135 50.1784 83.0443 50.1784 82.9377V75.3537C50.1784 75.247 50.2104 75.1617 50.2744 75.0977C50.349 75.023 50.4397 74.9857 50.5464 74.9857H51.2984C51.405 74.9857 51.4904 75.023 51.5544 75.0977C51.629 75.1617 51.6664 75.247 51.6664 75.3537V76.0577C51.9437 75.695 52.2904 75.4017 52.7064 75.1777C53.133 74.943 53.677 74.8257 54.3384 74.8257C55.0317 74.8257 55.6184 74.9803 56.0984 75.2897C56.589 75.5883 56.957 76.0097 57.2024 76.5537C57.4477 77.087 57.5704 77.711 57.5704 78.4257V82.9377C57.5704 83.0443 57.5384 83.135 57.4744 83.2097C57.4104 83.2737 57.325 83.3057 57.2184 83.3057H56.4184C56.3117 83.3057 56.221 83.2737 56.1464 83.2097C56.0824 83.135 56.0504 83.0443 56.0504 82.9377V78.5057C56.0504 77.759 55.869 77.1777 55.5064 76.7617C55.1437 76.335 54.6104 76.1217 53.9064 76.1217C53.245 76.1217 52.7117 76.335 52.3064 76.7617C51.9117 77.1777 51.7144 77.759 51.7144 78.5057V82.9377C51.7144 83.0443 51.677 83.135 51.6024 83.2097C51.5384 83.2737 51.453 83.3057 51.3464 83.3057H50.5464ZM66.5714 83.4657C65.8354 83.4657 65.19 83.3323 64.6354 83.0657C64.0807 82.799 63.6487 82.431 63.3394 81.9617C63.03 81.4817 62.8754 80.9323 62.8754 80.3137C62.8754 79.823 62.9767 79.3963 63.1794 79.0337C63.3927 78.6603 63.67 78.3297 64.0114 78.0417C64.3527 77.7537 64.726 77.4923 65.1314 77.2577C64.63 76.7243 64.2727 76.255 64.0594 75.8497C63.8567 75.4443 63.7554 75.023 63.7554 74.5857C63.7554 74.1057 63.878 73.6683 64.1234 73.2737C64.3687 72.879 64.7154 72.559 65.1634 72.3137C65.6114 72.0683 66.1394 71.9457 66.7474 71.9457C67.334 71.9457 67.846 72.063 68.2834 72.2977C68.7314 72.5323 69.078 72.847 69.3234 73.2417C69.5687 73.6363 69.6914 74.079 69.6914 74.5697C69.6914 75.039 69.5794 75.4497 69.3554 75.8017C69.1314 76.1537 68.8327 76.4683 68.4594 76.7457C68.0967 77.023 67.6967 77.2843 67.2594 77.5297L69.9794 80.2017C70.15 79.903 70.31 79.5563 70.4594 79.1617C70.6194 78.767 70.742 78.303 70.8274 77.7697C70.8594 77.5563 70.9767 77.4497 71.1794 77.4497H71.8834C71.9794 77.4497 72.0594 77.4817 72.1234 77.5457C72.1874 77.6097 72.2194 77.6897 72.2194 77.7857C72.2087 78.0203 72.1714 78.271 72.1074 78.5377C72.054 78.8043 71.9687 79.087 71.8514 79.3857C71.7447 79.6843 71.6114 79.983 71.4514 80.2817C71.302 80.5697 71.126 80.8577 70.9234 81.1457L72.5554 82.7617C72.6514 82.847 72.6994 82.927 72.6994 83.0017C72.6994 83.0977 72.6727 83.1723 72.6194 83.2257C72.566 83.279 72.486 83.3057 72.3794 83.3057H71.4834C71.3767 83.3057 71.286 83.2897 71.2114 83.2577C71.1474 83.2257 71.094 83.1883 71.0514 83.1457L69.9954 82.1057C69.5794 82.511 69.0887 82.8417 68.5234 83.0977C67.958 83.343 67.3074 83.4657 66.5714 83.4657ZM66.5714 82.1857C66.998 82.1857 67.4247 82.1003 67.8514 81.9297C68.278 81.7483 68.6727 81.4817 69.0354 81.1297L66.0434 78.2017C65.5847 78.4577 65.1847 78.751 64.8434 79.0817C64.5127 79.4017 64.3474 79.8017 64.3474 80.2817C64.3474 80.687 64.4487 81.0337 64.6514 81.3217C64.8647 81.599 65.142 81.8123 65.4834 81.9617C65.8247 82.111 66.1874 82.1857 66.5714 82.1857ZM66.3794 76.6017C66.7207 76.4097 67.0354 76.2177 67.3234 76.0257C67.622 75.8337 67.8567 75.6203 68.0274 75.3857C68.2087 75.151 68.2994 74.8843 68.2994 74.5857C68.2994 74.159 68.15 73.8177 67.8514 73.5617C67.5527 73.3057 67.1847 73.1777 66.7474 73.1777C66.3314 73.1777 65.9634 73.3057 65.6434 73.5617C65.334 73.807 65.1794 74.1537 65.1794 74.6017C65.1794 74.783 65.2114 74.9697 65.2754 75.1617C65.35 75.343 65.4727 75.5457 65.6434 75.7697C65.814 75.9937 66.0594 76.271 66.3794 76.6017ZM81.6666 83.4657C81.0266 83.4657 80.4933 83.3537 80.0666 83.1297C79.64 82.895 79.2986 82.607 79.0426 82.2657V82.9377C79.0426 83.0443 79.0053 83.135 78.9306 83.2097C78.8666 83.2737 78.7813 83.3057 78.6746 83.3057H77.9386C77.832 83.3057 77.7413 83.2737 77.6666 83.2097C77.6026 83.135 77.5706 83.0443 77.5706 82.9377V72.3137C77.5706 72.207 77.6026 72.1217 77.6666 72.0577C77.7413 71.983 77.832 71.9457 77.9386 71.9457H78.7066C78.824 71.9457 78.9146 71.983 78.9786 72.0577C79.0426 72.1217 79.0746 72.207 79.0746 72.3137V75.9937C79.3413 75.663 79.6826 75.3857 80.0986 75.1617C80.5253 74.9377 81.048 74.8257 81.6666 74.8257C82.264 74.8257 82.7706 74.9323 83.1866 75.1457C83.6133 75.3483 83.96 75.631 84.2266 75.9937C84.504 76.3563 84.712 76.767 84.8506 77.2257C84.9893 77.6843 85.064 78.1643 85.0746 78.6657C85.0853 78.8363 85.0906 78.9963 85.0906 79.1457C85.0906 79.295 85.0853 79.455 85.0746 79.6257C85.064 80.1377 84.9893 80.623 84.8506 81.0817C84.712 81.5403 84.504 81.951 84.2266 82.3137C83.96 82.6657 83.6133 82.9483 83.1866 83.1617C82.7706 83.3643 82.264 83.4657 81.6666 83.4657ZM81.3306 82.1697C81.8853 82.1697 82.3173 82.0523 82.6266 81.8177C82.9466 81.5723 83.176 81.2577 83.3146 80.8737C83.4533 80.479 83.5333 80.0577 83.5546 79.6097C83.5653 79.3003 83.5653 78.991 83.5546 78.6817C83.5333 78.2337 83.4533 77.8177 83.3146 77.4337C83.176 77.039 82.9466 76.7243 82.6266 76.4897C82.3173 76.2443 81.8853 76.1217 81.3306 76.1217C80.8293 76.1217 80.4133 76.239 80.0826 76.4737C79.752 76.7083 79.5013 77.007 79.3306 77.3697C79.1706 77.7323 79.0853 78.1003 79.0746 78.4737C79.064 78.6443 79.0586 78.8523 79.0586 79.0977C79.0586 79.3323 79.064 79.535 79.0746 79.7057C79.096 80.1003 79.1813 80.4897 79.3306 80.8737C79.4906 81.247 79.7306 81.5563 80.0506 81.8017C80.3813 82.047 80.808 82.1697 81.3306 82.1697ZM90.0623 83.4657C88.9636 83.4657 88.0889 83.1297 87.4383 82.4577C86.7876 81.775 86.4303 80.847 86.3663 79.6737C86.3556 79.535 86.3503 79.359 86.3503 79.1457C86.3503 78.9217 86.3556 78.7403 86.3663 78.6017C86.4089 77.8443 86.5849 77.183 86.8943 76.6177C87.2036 76.0417 87.6249 75.599 88.1583 75.2897C88.7023 74.9803 89.3369 74.8257 90.0623 74.8257C90.8729 74.8257 91.5503 74.9963 92.0943 75.3377C92.6489 75.679 93.0703 76.1643 93.3583 76.7937C93.6463 77.423 93.7903 78.159 93.7903 79.0017V79.2737C93.7903 79.391 93.7529 79.4817 93.6783 79.5457C93.6143 79.6097 93.5289 79.6417 93.4223 79.6417H87.8863C87.8863 79.6523 87.8863 79.6737 87.8863 79.7057C87.8863 79.7377 87.8863 79.7643 87.8863 79.7857C87.9076 80.223 88.0036 80.6337 88.1743 81.0177C88.3449 81.391 88.5903 81.695 88.9103 81.9297C89.2303 82.1643 89.6143 82.2817 90.0623 82.2817C90.4463 82.2817 90.7663 82.223 91.0223 82.1057C91.2783 81.9883 91.4863 81.8603 91.6463 81.7217C91.8063 81.5723 91.9129 81.4603 91.9663 81.3857C92.0623 81.247 92.1369 81.167 92.1903 81.1457C92.2436 81.1137 92.3289 81.0977 92.4463 81.0977H93.2143C93.3209 81.0977 93.4063 81.1297 93.4703 81.1937C93.5449 81.247 93.5769 81.327 93.5663 81.4337C93.5556 81.5937 93.4703 81.791 93.3103 82.0257C93.1503 82.2497 92.9209 82.4737 92.6223 82.6977C92.3236 82.9217 91.9609 83.1083 91.5343 83.2577C91.1076 83.3963 90.6169 83.4657 90.0623 83.4657ZM87.8863 78.5377H92.2703V78.4897C92.2703 78.0097 92.1796 77.583 91.9983 77.2097C91.8276 76.8363 91.5769 76.543 91.2463 76.3297C90.9156 76.1057 90.5209 75.9937 90.0623 75.9937C89.6036 75.9937 89.2089 76.1057 88.8783 76.3297C88.5583 76.543 88.3129 76.8363 88.1423 77.2097C87.9716 77.583 87.8863 78.0097 87.8863 78.4897V78.5377ZM98.7914 86.8257C98.066 86.8257 97.4687 86.7297 96.9994 86.5377C96.5407 86.3457 96.178 86.111 95.9114 85.8337C95.6554 85.567 95.4687 85.295 95.3514 85.0177C95.2447 84.751 95.186 84.5377 95.1754 84.3777C95.1647 84.271 95.1967 84.1803 95.2714 84.1057C95.3567 84.031 95.4474 83.9937 95.5434 83.9937H96.3114C96.4074 83.9937 96.4874 84.015 96.5514 84.0577C96.6154 84.1003 96.6687 84.191 96.7114 84.3297C96.7754 84.4897 96.8714 84.6657 96.9994 84.8577C97.1274 85.0603 97.3247 85.231 97.5914 85.3697C97.858 85.519 98.2314 85.5937 98.7114 85.5937C99.2127 85.5937 99.634 85.5243 99.9754 85.3857C100.317 85.2577 100.573 85.023 100.743 84.6817C100.925 84.351 101.015 83.8923 101.015 83.3057V82.2177C100.759 82.5483 100.423 82.8257 100.007 83.0497C99.5914 83.263 99.0687 83.3697 98.4394 83.3697C97.842 83.3697 97.33 83.2683 96.9034 83.0657C96.4767 82.8523 96.1247 82.5697 95.8474 82.2177C95.5807 81.855 95.378 81.4443 95.2394 80.9857C95.1114 80.527 95.0367 80.047 95.0154 79.5457C95.0047 79.247 95.0047 78.9537 95.0154 78.6657C95.0367 78.1643 95.1114 77.6843 95.2394 77.2257C95.378 76.767 95.5807 76.3563 95.8474 75.9937C96.1247 75.631 96.4767 75.3483 96.9034 75.1457C97.33 74.9323 97.842 74.8257 98.4394 74.8257C99.0794 74.8257 99.6074 74.9483 100.023 75.1937C100.45 75.4283 100.797 75.7163 101.063 76.0577V75.3697C101.063 75.263 101.095 75.1723 101.159 75.0977C101.234 75.023 101.325 74.9857 101.431 74.9857H102.167C102.274 74.9857 102.365 75.023 102.439 75.0977C102.514 75.1723 102.551 75.263 102.551 75.3697V83.1297C102.551 83.8443 102.429 84.479 102.183 85.0337C101.949 85.5883 101.554 86.0257 100.999 86.3457C100.455 86.6657 99.7194 86.8257 98.7914 86.8257ZM98.7594 82.0897C99.2927 82.0897 99.7194 81.967 100.039 81.7217C100.37 81.4763 100.61 81.167 100.759 80.7937C100.919 80.4203 101.005 80.0417 101.015 79.6577C101.026 79.5083 101.031 79.327 101.031 79.1137C101.031 78.8897 101.026 78.703 101.015 78.5537C101.005 78.1697 100.919 77.791 100.759 77.4177C100.61 77.0443 100.37 76.735 100.039 76.4897C99.7194 76.2443 99.2927 76.1217 98.7594 76.1217C98.226 76.1217 97.7994 76.2443 97.4794 76.4897C97.1594 76.7243 96.93 77.039 96.7914 77.4337C96.6527 77.8177 96.5727 78.2337 96.5514 78.6817C96.5407 78.959 96.5407 79.2417 96.5514 79.5297C96.5727 79.9777 96.6527 80.399 96.7914 80.7937C96.93 81.1777 97.1594 81.4923 97.4794 81.7377C97.7994 81.9723 98.226 82.0897 98.7594 82.0897ZM104.978 83.3057C104.872 83.3057 104.781 83.2737 104.706 83.2097C104.642 83.135 104.61 83.0443 104.61 82.9377V75.3537C104.61 75.247 104.642 75.1617 104.706 75.0977C104.781 75.023 104.872 74.9857 104.978 74.9857H105.746C105.853 74.9857 105.938 75.023 106.002 75.0977C106.066 75.1617 106.098 75.247 106.098 75.3537V82.9377C106.098 83.0443 106.066 83.135 106.002 83.2097C105.938 83.2737 105.853 83.3057 105.746 83.3057H104.978ZM104.85 73.4337C104.744 73.4337 104.653 73.4017 104.578 73.3377C104.514 73.263 104.482 73.1723 104.482 73.0657V72.2017C104.482 72.095 104.514 72.0097 104.578 71.9457C104.653 71.871 104.744 71.8337 104.85 71.8337H105.858C105.965 71.8337 106.05 71.871 106.114 71.9457C106.189 72.0097 106.226 72.095 106.226 72.2017V73.0657C106.226 73.1723 106.189 73.263 106.114 73.3377C106.05 73.4017 105.965 73.4337 105.858 73.4337H104.85ZM108.533 83.3057C108.427 83.3057 108.336 83.2737 108.261 83.2097C108.197 83.135 108.165 83.0443 108.165 82.9377V75.3537C108.165 75.247 108.197 75.1617 108.261 75.0977C108.336 75.023 108.427 74.9857 108.533 74.9857H109.285C109.392 74.9857 109.477 75.023 109.541 75.0977C109.616 75.1617 109.653 75.247 109.653 75.3537V76.0577C109.931 75.695 110.277 75.4017 110.693 75.1777C111.12 74.943 111.664 74.8257 112.325 74.8257C113.019 74.8257 113.605 74.9803 114.085 75.2897C114.576 75.5883 114.944 76.0097 115.189 76.5537C115.435 77.087 115.557 77.711 115.557 78.4257V82.9377C115.557 83.0443 115.525 83.135 115.461 83.2097C115.397 83.2737 115.312 83.3057 115.205 83.3057H114.405C114.299 83.3057 114.208 83.2737 114.133 83.2097C114.069 83.135 114.037 83.0443 114.037 82.9377V78.5057C114.037 77.759 113.856 77.1777 113.493 76.7617C113.131 76.335 112.597 76.1217 111.893 76.1217C111.232 76.1217 110.699 76.335 110.293 76.7617C109.899 77.1777 109.701 77.759 109.701 78.5057V82.9377C109.701 83.0443 109.664 83.135 109.589 83.2097C109.525 83.2737 109.44 83.3057 109.333 83.3057H108.533ZM117.916 83.3057C117.81 83.3057 117.719 83.2737 117.644 83.2097C117.58 83.135 117.548 83.0443 117.548 82.9377V75.3537C117.548 75.247 117.58 75.1617 117.644 75.0977C117.719 75.023 117.81 74.9857 117.916 74.9857H118.668C118.775 74.9857 118.86 75.023 118.924 75.0977C118.999 75.1617 119.036 75.247 119.036 75.3537V76.0577C119.314 75.695 119.66 75.4017 120.076 75.1777C120.503 74.943 121.047 74.8257 121.708 74.8257C122.402 74.8257 122.988 74.9803 123.468 75.2897C123.959 75.5883 124.327 76.0097 124.572 76.5537C124.818 77.087 124.94 77.711 124.94 78.4257V82.9377C124.94 83.0443 124.908 83.135 124.844 83.2097C124.78 83.2737 124.695 83.3057 124.588 83.3057H123.788C123.682 83.3057 123.591 83.2737 123.516 83.2097C123.452 83.135 123.42 83.0443 123.42 82.9377V78.5057C123.42 77.759 123.239 77.1777 122.876 76.7617C122.514 76.335 121.98 76.1217 121.276 76.1217C120.615 76.1217 120.082 76.335 119.676 76.7617C119.282 77.1777 119.084 77.759 119.084 78.5057V82.9377C119.084 83.0443 119.047 83.135 118.972 83.2097C118.908 83.2737 118.823 83.3057 118.716 83.3057H117.916ZM130.243 83.4657C129.145 83.4657 128.27 83.1297 127.619 82.4577C126.969 81.775 126.611 80.847 126.547 79.6737C126.537 79.535 126.531 79.359 126.531 79.1457C126.531 78.9217 126.537 78.7403 126.547 78.6017C126.59 77.8443 126.766 77.183 127.075 76.6177C127.385 76.0417 127.806 75.599 128.339 75.2897C128.883 74.9803 129.518 74.8257 130.243 74.8257C131.054 74.8257 131.731 74.9963 132.275 75.3377C132.83 75.679 133.251 76.1643 133.539 76.7937C133.827 77.423 133.971 78.159 133.971 79.0017V79.2737C133.971 79.391 133.934 79.4817 133.859 79.5457C133.795 79.6097 133.71 79.6417 133.603 79.6417H128.067C128.067 79.6523 128.067 79.6737 128.067 79.7057C128.067 79.7377 128.067 79.7643 128.067 79.7857C128.089 80.223 128.185 80.6337 128.355 81.0177C128.526 81.391 128.771 81.695 129.091 81.9297C129.411 82.1643 129.795 82.2817 130.243 82.2817C130.627 82.2817 130.947 82.223 131.203 82.1057C131.459 81.9883 131.667 81.8603 131.827 81.7217C131.987 81.5723 132.094 81.4603 132.147 81.3857C132.243 81.247 132.318 81.167 132.371 81.1457C132.425 81.1137 132.51 81.0977 132.627 81.0977H133.395C133.502 81.0977 133.587 81.1297 133.651 81.1937C133.726 81.247 133.758 81.327 133.747 81.4337C133.737 81.5937 133.651 81.791 133.491 82.0257C133.331 82.2497 133.102 82.4737 132.803 82.6977C132.505 82.9217 132.142 83.1083 131.715 83.2577C131.289 83.3963 130.798 83.4657 130.243 83.4657ZM128.067 78.5377H132.451V78.4897C132.451 78.0097 132.361 77.583 132.179 77.2097C132.009 76.8363 131.758 76.543 131.427 76.3297C131.097 76.1057 130.702 75.9937 130.243 75.9937C129.785 75.9937 129.39 76.1057 129.059 76.3297C128.739 76.543 128.494 76.8363 128.323 77.2097C128.153 77.583 128.067 78.0097 128.067 78.4897V78.5377ZM135.933 83.3057C135.826 83.3057 135.735 83.2737 135.661 83.2097C135.597 83.135 135.565 83.0443 135.565 82.9377V75.3697C135.565 75.263 135.597 75.1723 135.661 75.0977C135.735 75.023 135.826 74.9857 135.933 74.9857H136.669C136.775 74.9857 136.866 75.023 136.941 75.0977C137.015 75.1723 137.053 75.263 137.053 75.3697V76.0737C137.266 75.711 137.559 75.439 137.933 75.2577C138.306 75.0763 138.754 74.9857 139.277 74.9857H139.917C140.023 74.9857 140.109 75.023 140.173 75.0977C140.237 75.1617 140.269 75.247 140.269 75.3537V76.0097C140.269 76.1163 140.237 76.2017 140.173 76.2657C140.109 76.3297 140.023 76.3617 139.917 76.3617H138.957C138.381 76.3617 137.927 76.5323 137.597 76.8737C137.266 77.2043 137.101 77.6577 137.101 78.2337V82.9377C137.101 83.0443 137.063 83.135 136.989 83.2097C136.914 83.2737 136.823 83.3057 136.717 83.3057H135.933ZM144.203 83.4657C143.605 83.4657 143.093 83.391 142.667 83.2417C142.24 83.0923 141.893 82.911 141.627 82.6977C141.36 82.4843 141.157 82.271 141.019 82.0577C140.891 81.8443 140.821 81.6737 140.811 81.5457C140.8 81.4283 140.837 81.3377 140.923 81.2737C141.008 81.2097 141.093 81.1777 141.179 81.1777H141.883C141.947 81.1777 141.995 81.1883 142.027 81.2097C142.069 81.2203 142.123 81.263 142.187 81.3377C142.325 81.487 142.48 81.6363 142.651 81.7857C142.821 81.935 143.029 82.0577 143.275 82.1537C143.531 82.2497 143.845 82.2977 144.219 82.2977C144.763 82.2977 145.211 82.1963 145.563 81.9937C145.915 81.7803 146.091 81.471 146.091 81.0657C146.091 80.799 146.016 80.5857 145.867 80.4257C145.728 80.2657 145.472 80.1217 145.099 79.9937C144.736 79.8657 144.235 79.7323 143.595 79.5937C142.955 79.4443 142.448 79.263 142.075 79.0497C141.701 78.8257 141.435 78.5643 141.275 78.2657C141.115 77.9563 141.035 77.6097 141.035 77.2257C141.035 76.831 141.152 76.4523 141.387 76.0897C141.621 75.7163 141.963 75.4123 142.411 75.1777C142.869 74.943 143.44 74.8257 144.123 74.8257C144.677 74.8257 145.152 74.895 145.547 75.0337C145.941 75.1723 146.267 75.3483 146.523 75.5617C146.779 75.7643 146.971 75.967 147.099 76.1697C147.227 76.3723 147.296 76.543 147.307 76.6817C147.317 76.7883 147.285 76.879 147.211 76.9537C147.136 77.0177 147.051 77.0497 146.955 77.0497H146.283C146.208 77.0497 146.144 77.0337 146.091 77.0017C146.048 76.9697 146.005 76.9323 145.963 76.8897C145.856 76.751 145.728 76.6123 145.579 76.4737C145.44 76.335 145.253 76.223 145.019 76.1377C144.795 76.0417 144.496 75.9937 144.123 75.9937C143.589 75.9937 143.189 76.1057 142.923 76.3297C142.656 76.5537 142.523 76.8363 142.523 77.1777C142.523 77.3803 142.581 77.5617 142.699 77.7217C142.816 77.8817 143.04 78.0257 143.371 78.1537C143.701 78.2817 144.192 78.4203 144.843 78.5697C145.547 78.7083 146.101 78.895 146.507 79.1297C146.912 79.3643 147.2 79.6363 147.371 79.9457C147.541 80.255 147.627 80.6123 147.627 81.0177C147.627 81.4657 147.493 81.8763 147.227 82.2497C146.971 82.623 146.587 82.9217 146.075 83.1457C145.573 83.359 144.949 83.4657 144.203 83.4657Z"
     fill="#36342C"
     id="path3" />
</svg>
