<?xml version="1.0" encoding="UTF-8" standalone="no"?>
<svg
   width="155"
   height="113"
   viewBox="0 0 155 113"
   fill="none"
   version="1.1"
   id="svg3">
  <defs
     id="defs3" />
  <path
     d="M1.82 16.3057C1.732 16.3057 1.664 16.2817 1.616 16.2337C1.568 16.1777 1.544 16.1097 1.544 16.0297V8.18166C1.544 8.10166 1.568 8.03766 1.616 7.98966C1.664 7.93366 1.732 7.90566 1.82 7.90566H2.456C2.536 7.90566 2.6 7.93366 2.648 7.98966C2.696 8.03766 2.72 8.10166 2.72 8.18166V15.2617H6.716C6.804 15.2617 6.872 15.2897 6.92 15.3457C6.968 15.3937 6.992 15.4617 6.992 15.5497V16.0297C6.992 16.1097 6.968 16.1777 6.92 16.2337C6.872 16.2817 6.804 16.3057 6.716 16.3057H1.82ZM10.3848 16.4257C9.56081 16.4257 8.90481 16.1737 8.41681 15.6697C7.92881 15.1577 7.66081 14.4617 7.61281 13.5817C7.60481 13.4777 7.60081 13.3457 7.60081 13.1857C7.60081 13.0177 7.60481 12.8817 7.61281 12.7777C7.64481 12.2097 7.77681 11.7137 8.00881 11.2897C8.24081 10.8577 8.55681 10.5257 8.95681 10.2937C9.36481 10.0617 9.84081 9.94566 10.3848 9.94566C10.9928 9.94566 11.5008 10.0737 11.9088 10.3297C12.3248 10.5857 12.6408 10.9497 12.8568 11.4217C13.0728 11.8937 13.1808 12.4457 13.1808 13.0777V13.2817C13.1808 13.3697 13.1528 13.4377 13.0968 13.4857C13.0488 13.5337 12.9848 13.5577 12.9048 13.5577H8.75281C8.75281 13.5657 8.75281 13.5817 8.75281 13.6057C8.75281 13.6297 8.75281 13.6497 8.75281 13.6657C8.76881 13.9937 8.84081 14.3017 8.96881 14.5897C9.09681 14.8697 9.28081 15.0977 9.52081 15.2737C9.76081 15.4497 10.0488 15.5377 10.3848 15.5377C10.6728 15.5377 10.9128 15.4937 11.1048 15.4057C11.2968 15.3177 11.4528 15.2217 11.5728 15.1177C11.6928 15.0057 11.7728 14.9217 11.8128 14.8657C11.8848 14.7617 11.9408 14.7017 11.9808 14.6857C12.0208 14.6617 12.0848 14.6497 12.1728 14.6497H12.7488C12.8288 14.6497 12.8928 14.6737 12.9408 14.7217C12.9968 14.7617 13.0208 14.8217 13.0128 14.9017C13.0048 15.0217 12.9408 15.1697 12.8208 15.3457C12.7008 15.5137 12.5288 15.6817 12.3048 15.8497C12.0808 16.0177 11.8088 16.1577 11.4888 16.2697C11.1688 16.3737 10.8008 16.4257 10.3848 16.4257ZM8.75281 12.7297H12.0408V12.6937C12.0408 12.3337 11.9728 12.0137 11.8368 11.7337C11.7088 11.4537 11.5208 11.2337 11.2728 11.0737C11.0248 10.9057 10.7288 10.8217 10.3848 10.8217C10.0408 10.8217 9.74481 10.9057 9.49681 11.0737C9.25681 11.2337 9.07281 11.4537 8.94481 11.7337C8.81681 12.0137 8.75281 12.3337 8.75281 12.6937V12.7297ZM16.4567 16.3057C16.3367 16.3057 16.2407 16.2777 16.1687 16.2217C16.1047 16.1657 16.0527 16.0937 16.0127 16.0057L13.7927 10.4377C13.7767 10.3977 13.7687 10.3577 13.7687 10.3177C13.7687 10.2457 13.7927 10.1857 13.8407 10.1377C13.8887 10.0897 13.9487 10.0657 14.0207 10.0657H14.5967C14.6847 10.0657 14.7527 10.0897 14.8007 10.1377C14.8487 10.1857 14.8767 10.2297 14.8847 10.2697L16.7207 14.9977L18.5447 10.2697C18.5607 10.2297 18.5887 10.1857 18.6287 10.1377C18.6767 10.0897 18.7447 10.0657 18.8327 10.0657H19.4207C19.4847 10.0657 19.5407 10.0897 19.5887 10.1377C19.6447 10.1857 19.6727 10.2457 19.6727 10.3177C19.6727 10.3577 19.6647 10.3977 19.6487 10.4377L17.4167 16.0057C17.3847 16.0937 17.3327 16.1657 17.2607 16.2217C17.1967 16.2777 17.1007 16.3057 16.9727 16.3057H16.4567ZM23.0706 16.4257C22.2466 16.4257 21.5906 16.1737 21.1026 15.6697C20.6146 15.1577 20.3466 14.4617 20.2986 13.5817C20.2906 13.4777 20.2866 13.3457 20.2866 13.1857C20.2866 13.0177 20.2906 12.8817 20.2986 12.7777C20.3306 12.2097 20.4626 11.7137 20.6946 11.2897C20.9266 10.8577 21.2426 10.5257 21.6426 10.2937C22.0506 10.0617 22.5266 9.94566 23.0706 9.94566C23.6786 9.94566 24.1866 10.0737 24.5946 10.3297C25.0106 10.5857 25.3266 10.9497 25.5426 11.4217C25.7586 11.8937 25.8666 12.4457 25.8666 13.0777V13.2817C25.8666 13.3697 25.8386 13.4377 25.7826 13.4857C25.7346 13.5337 25.6706 13.5577 25.5906 13.5577H21.4386C21.4386 13.5657 21.4386 13.5817 21.4386 13.6057C21.4386 13.6297 21.4386 13.6497 21.4386 13.6657C21.4546 13.9937 21.5266 14.3017 21.6546 14.5897C21.7826 14.8697 21.9666 15.0977 22.2066 15.2737C22.4466 15.4497 22.7346 15.5377 23.0706 15.5377C23.3586 15.5377 23.5986 15.4937 23.7906 15.4057C23.9826 15.3177 24.1386 15.2217 24.2586 15.1177C24.3786 15.0057 24.4586 14.9217 24.4986 14.8657C24.5706 14.7617 24.6266 14.7017 24.6666 14.6857C24.7066 14.6617 24.7706 14.6497 24.8586 14.6497H25.4346C25.5146 14.6497 25.5786 14.6737 25.6266 14.7217C25.6826 14.7617 25.7066 14.8217 25.6986 14.9017C25.6906 15.0217 25.6266 15.1697 25.5066 15.3457C25.3866 15.5137 25.2146 15.6817 24.9906 15.8497C24.7666 16.0177 24.4946 16.1577 24.1746 16.2697C23.8546 16.3737 23.4866 16.4257 23.0706 16.4257ZM21.4386 12.7297H24.7266V12.6937C24.7266 12.3337 24.6586 12.0137 24.5226 11.7337C24.3946 11.4537 24.2066 11.2337 23.9586 11.0737C23.7106 10.9057 23.4146 10.8217 23.0706 10.8217C22.7266 10.8217 22.4306 10.9057 22.1826 11.0737C21.9426 11.2337 21.7586 11.4537 21.6306 11.7337C21.5026 12.0137 21.4386 12.3337 21.4386 12.6937V12.7297ZM27.4694 16.3057C27.3894 16.3057 27.3214 16.2817 27.2654 16.2337C27.2174 16.1777 27.1934 16.1097 27.1934 16.0297V8.06166C27.1934 7.98166 27.2174 7.91766 27.2654 7.86966C27.3214 7.81366 27.3894 7.78566 27.4694 7.78566H28.0334C28.1214 7.78566 28.1894 7.81366 28.2374 7.86966C28.2854 7.91766 28.3094 7.98166 28.3094 8.06166V16.0297C28.3094 16.1097 28.2854 16.1777 28.2374 16.2337C28.1894 16.2817 28.1214 16.3057 28.0334 16.3057H27.4694ZM35.7168 16.4257C35.1648 16.4257 34.6968 16.3417 34.3128 16.1737C33.9368 15.9977 33.6288 15.7577 33.3888 15.4537C33.1488 15.1497 32.9728 14.8017 32.8608 14.4097C32.7568 14.0177 32.6968 13.6017 32.6808 13.1617C32.6728 12.9457 32.6648 12.7177 32.6568 12.4777C32.6568 12.2377 32.6568 11.9977 32.6568 11.7577C32.6648 11.5097 32.6728 11.2737 32.6808 11.0497C32.6888 10.6097 32.7488 10.1937 32.8608 9.80166C32.9808 9.40166 33.1568 9.05366 33.3888 8.75766C33.6288 8.45366 33.9408 8.21766 34.3248 8.04966C34.7088 7.87366 35.1728 7.78566 35.7168 7.78566C36.2688 7.78566 36.7328 7.87366 37.1088 8.04966C37.4928 8.21766 37.8048 8.45366 38.0448 8.75766C38.2848 9.05366 38.4608 9.40166 38.5728 9.80166C38.6928 10.1937 38.7568 10.6097 38.7648 11.0497C38.7728 11.2737 38.7768 11.5097 38.7768 11.7577C38.7848 11.9977 38.7848 12.2377 38.7768 12.4777C38.7768 12.7177 38.7728 12.9457 38.7648 13.1617C38.7568 13.6017 38.6928 14.0177 38.5728 14.4097C38.4608 14.8017 38.2848 15.1497 38.0448 15.4537C37.8128 15.7577 37.5048 15.9977 37.1208 16.1737C36.7448 16.3417 36.2768 16.4257 35.7168 16.4257ZM35.7168 15.4057C36.3408 15.4057 36.8008 15.2017 37.0968 14.7937C37.4008 14.3777 37.5568 13.8137 37.5648 13.1017C37.5808 12.8697 37.5888 12.6457 37.5888 12.4297C37.5888 12.2057 37.5888 11.9857 37.5888 11.7697C37.5888 11.5457 37.5808 11.3257 37.5648 11.1097C37.5568 10.4137 37.4008 9.85766 37.0968 9.44166C36.8008 9.01766 36.3408 8.80566 35.7168 8.80566C35.1008 8.80566 34.6408 9.01766 34.3368 9.44166C34.0408 9.85766 33.8848 10.4137 33.8688 11.1097C33.8688 11.3257 33.8648 11.5457 33.8568 11.7697C33.8568 11.9857 33.8568 12.2057 33.8568 12.4297C33.8648 12.6457 33.8688 12.8697 33.8688 13.1017C33.8848 13.8137 34.0448 14.3777 34.3488 14.7937C34.6528 15.2017 35.1088 15.4057 35.7168 15.4057ZM44.222 16.3057C44.142 16.3057 44.074 16.2817 44.018 16.2337C43.97 16.1777 43.946 16.1097 43.946 16.0297V14.3017H40.058C39.978 14.3017 39.91 14.2777 39.854 14.2297C39.806 14.1737 39.782 14.1057 39.782 14.0257V13.5457C39.782 13.5137 39.79 13.4657 39.806 13.4017C39.83 13.3297 39.866 13.2577 39.914 13.1857L43.514 8.10966C43.61 7.97366 43.758 7.90566 43.958 7.90566H44.822C44.902 7.90566 44.966 7.93366 45.014 7.98966C45.07 8.03766 45.098 8.10166 45.098 8.18166V13.2577H46.178C46.266 13.2577 46.334 13.2857 46.382 13.3417C46.438 13.3897 46.466 13.4537 46.466 13.5337V14.0257C46.466 14.1057 46.438 14.1737 46.382 14.2297C46.334 14.2777 46.27 14.3017 46.19 14.3017H45.098V16.0297C45.098 16.1097 45.07 16.1777 45.014 16.2337C44.966 16.2817 44.902 16.3057 44.822 16.3057H44.222ZM41.066 13.2817H43.958V9.16566L41.066 13.2817Z"
     fill="#88836D"
     id="path1" />
  <path
     d="M5.012 40.3057C4.756 40.3057 4.548 40.2337 4.388 40.0897C4.244 39.9457 4.156 39.7697 4.124 39.5617L1.388 24.1777C1.372 24.1457 1.364 24.1137 1.364 24.0817C1.364 24.0497 1.364 24.0257 1.364 24.0097C1.364 23.8817 1.412 23.7697 1.508 23.6737C1.604 23.5617 1.724 23.5057 1.868 23.5057H4.388C4.804 23.5057 5.036 23.6737 5.084 24.0097L6.884 34.1617L8.828 27.8497C8.876 27.7217 8.956 27.5857 9.068 27.4417C9.18 27.2977 9.364 27.2257 9.62 27.2257H11.132C11.388 27.2257 11.572 27.2977 11.684 27.4417C11.796 27.5857 11.868 27.7217 11.9 27.8497L13.868 34.1377L15.644 24.0097C15.692 23.6737 15.932 23.5057 16.364 23.5057H18.884C19.028 23.5057 19.148 23.5617 19.244 23.6737C19.34 23.7697 19.388 23.8817 19.388 24.0097C19.388 24.0257 19.388 24.0497 19.388 24.0817C19.388 24.1137 19.38 24.1457 19.364 24.1777L16.628 39.5617C16.596 39.7697 16.5 39.9457 16.34 40.0897C16.196 40.2337 15.996 40.3057 15.74 40.3057H13.796C13.54 40.3057 13.34 40.2417 13.196 40.1137C13.068 39.9697 12.98 39.8257 12.932 39.6817L10.364 32.2417L7.82 39.6817C7.772 39.8257 7.676 39.9697 7.532 40.1137C7.404 40.2417 7.204 40.3057 6.932 40.3057H5.012ZM21.6498 40.3057C21.4738 40.3057 21.3298 40.2497 21.2178 40.1377C21.1058 40.0257 21.0498 39.8817 21.0498 39.7057V23.8657C21.0498 23.6897 21.1058 23.5457 21.2178 23.4337C21.3298 23.3217 21.4738 23.2657 21.6498 23.2657H24.2418C24.4018 23.2657 24.5378 23.3217 24.6498 23.4337C24.7618 23.5457 24.8178 23.6897 24.8178 23.8657V29.2657C25.2498 28.7537 25.7778 28.3457 26.4018 28.0417C27.0258 27.7377 27.7778 27.5857 28.6578 27.5857C29.6018 27.5857 30.4338 27.8017 31.1538 28.2337C31.8898 28.6497 32.4658 29.2657 32.8818 30.0817C33.2978 30.8817 33.5058 31.8577 33.5058 33.0097V39.7057C33.5058 39.8817 33.4498 40.0257 33.3378 40.1377C33.2258 40.2497 33.0818 40.3057 32.9058 40.3057H30.2898C30.1298 40.3057 29.9938 40.2497 29.8818 40.1377C29.7698 40.0257 29.7138 39.8817 29.7138 39.7057V33.1537C29.7138 32.3057 29.5058 31.6497 29.0898 31.1857C28.6738 30.7057 28.0818 30.4657 27.3138 30.4657C26.5618 30.4657 25.9538 30.7057 25.4898 31.1857C25.0418 31.6497 24.8178 32.3057 24.8178 33.1537V39.7057C24.8178 39.8817 24.7618 40.0257 24.6498 40.1377C24.5378 40.2497 24.4018 40.3057 24.2418 40.3057H21.6498ZM36.2339 40.3057C36.0739 40.3057 35.9379 40.2497 35.8259 40.1377C35.7139 40.0257 35.6579 39.8817 35.6579 39.7057V28.4257C35.6579 28.2497 35.7139 28.1057 35.8259 27.9937C35.9379 27.8817 36.0739 27.8257 36.2339 27.8257H38.6339C38.8099 27.8257 38.9539 27.8817 39.0659 27.9937C39.1779 28.1057 39.2339 28.2497 39.2339 28.4257V39.7057C39.2339 39.8817 39.1779 40.0257 39.0659 40.1377C38.9539 40.2497 38.8099 40.3057 38.6339 40.3057H36.2339ZM36.1619 25.9057C36.0019 25.9057 35.8659 25.8497 35.7539 25.7377C35.6419 25.6257 35.5859 25.4817 35.5859 25.3057V23.3857C35.5859 23.2097 35.6419 23.0657 35.7539 22.9537C35.8659 22.8257 36.0019 22.7617 36.1619 22.7617H38.6819C38.8579 22.7617 39.0019 22.8257 39.1139 22.9537C39.2419 23.0657 39.3059 23.2097 39.3059 23.3857V25.3057C39.3059 25.4817 39.2419 25.6257 39.1139 25.7377C39.0019 25.8497 38.8579 25.9057 38.6819 25.9057H36.1619ZM47.5239 40.3057C46.5319 40.3057 45.6839 40.1457 44.9799 39.8257C44.2759 39.4897 43.7399 38.9777 43.3719 38.2897C43.0199 37.6017 42.8439 36.7377 42.8439 35.6977V30.6577H40.9719C40.7959 30.6577 40.6519 30.6017 40.5399 30.4897C40.4279 30.3777 40.3719 30.2337 40.3719 30.0577V28.4257C40.3719 28.2497 40.4279 28.1057 40.5399 27.9937C40.6519 27.8817 40.7959 27.8257 40.9719 27.8257H42.8439V23.8657C42.8439 23.6897 42.8999 23.5457 43.0119 23.4337C43.1399 23.3217 43.2839 23.2657 43.4439 23.2657H45.7959C45.9719 23.2657 46.1159 23.3217 46.2279 23.4337C46.3399 23.5457 46.3959 23.6897 46.3959 23.8657V27.8257H49.3959C49.5559 27.8257 49.6919 27.8817 49.8039 27.9937C49.9159 28.1057 49.9719 28.2497 49.9719 28.4257V30.0577C49.9719 30.2337 49.9159 30.3777 49.8039 30.4897C49.6919 30.6017 49.5559 30.6577 49.3959 30.6577H46.3959V35.4097C46.3959 36.0177 46.4999 36.4977 46.7079 36.8497C46.9319 37.1857 47.3159 37.3537 47.8599 37.3537H49.6119C49.7719 37.3537 49.9079 37.4097 50.0199 37.5217C50.1319 37.6337 50.1879 37.7697 50.1879 37.9297V39.7057C50.1879 39.8817 50.1319 40.0257 50.0199 40.1377C49.9079 40.2497 49.7719 40.3057 49.6119 40.3057H47.5239ZM57.1297 40.5457C55.2897 40.5457 53.8257 40.0337 52.7377 39.0097C51.6657 37.9857 51.0977 36.4977 51.0337 34.5457C51.0337 34.4177 51.0337 34.2497 51.0337 34.0417C51.0337 33.8177 51.0337 33.6417 51.0337 33.5137C51.0977 32.2817 51.3777 31.2257 51.8737 30.3457C52.3697 29.4497 53.0657 28.7697 53.9617 28.3057C54.8577 27.8257 55.9057 27.5857 57.1057 27.5857C58.4497 27.5857 59.5697 27.8657 60.4657 28.4257C61.3777 28.9697 62.0577 29.7217 62.5057 30.6817C62.9697 31.6257 63.2017 32.7137 63.2017 33.9457V34.4977C63.2017 34.6577 63.1377 34.7937 63.0097 34.9057C62.8977 35.0177 62.7617 35.0737 62.6017 35.0737H54.7537C54.7537 35.0897 54.7537 35.1217 54.7537 35.1697C54.7537 35.2017 54.7537 35.2337 54.7537 35.2657C54.7697 35.7777 54.8657 36.2497 55.0417 36.6817C55.2337 37.0977 55.4977 37.4337 55.8337 37.6897C56.1857 37.9457 56.6017 38.0737 57.0817 38.0737C57.4817 38.0737 57.8097 38.0177 58.0657 37.9057C58.3217 37.7937 58.5297 37.6577 58.6897 37.4977C58.8657 37.3377 58.9937 37.2017 59.0737 37.0897C59.2177 36.9297 59.3297 36.8337 59.4097 36.8017C59.5057 36.7537 59.6497 36.7297 59.8417 36.7297H62.3377C62.4977 36.7297 62.6257 36.7777 62.7217 36.8737C62.8337 36.9537 62.8817 37.0737 62.8657 37.2337C62.8497 37.4897 62.7137 37.8097 62.4577 38.1937C62.2177 38.5617 61.8577 38.9297 61.3777 39.2977C60.8977 39.6497 60.2977 39.9457 59.5777 40.1857C58.8737 40.4257 58.0577 40.5457 57.1297 40.5457ZM54.7537 32.8897H59.4577V32.8417C59.4577 32.2657 59.3617 31.7697 59.1697 31.3537C58.9937 30.9217 58.7297 30.5857 58.3777 30.3457C58.0257 30.1057 57.6017 29.9857 57.1057 29.9857C56.6097 29.9857 56.1857 30.1057 55.8337 30.3457C55.4817 30.5857 55.2097 30.9217 55.0177 31.3537C54.8417 31.7697 54.7537 32.2657 54.7537 32.8417V32.8897ZM2.876 64.3057C2.7 64.3057 2.556 64.2497 2.444 64.1377C2.332 64.0257 2.276 63.8817 2.276 63.7057V48.1057C2.276 47.9297 2.332 47.7857 2.444 47.6737C2.556 47.5617 2.7 47.5057 2.876 47.5057H5.42C5.596 47.5057 5.74 47.5617 5.852 47.6737C5.964 47.7857 6.02 47.9297 6.02 48.1057V53.5777L10.964 47.9617C11.028 47.8657 11.132 47.7697 11.276 47.6737C11.436 47.5617 11.644 47.5057 11.9 47.5057H14.804C14.948 47.5057 15.068 47.5617 15.164 47.6737C15.26 47.7697 15.308 47.8817 15.308 48.0097C15.308 48.1217 15.276 48.2177 15.212 48.2977L9.044 55.5457L15.668 63.5137C15.732 63.5777 15.764 63.6737 15.764 63.8017C15.764 63.9297 15.716 64.0497 15.62 64.1617C15.524 64.2577 15.404 64.3057 15.26 64.3057H12.26C11.972 64.3057 11.756 64.2417 11.612 64.1137C11.468 63.9857 11.372 63.8977 11.324 63.8497L6.02 57.7057V63.7057C6.02 63.8817 5.964 64.0257 5.852 64.1377C5.74 64.2497 5.596 64.3057 5.42 64.3057H2.876ZM17.4071 64.3057C17.2471 64.3057 17.1111 64.2497 16.9991 64.1377C16.8871 64.0257 16.8311 63.8817 16.8311 63.7057V52.4257C16.8311 52.2497 16.8871 52.1057 16.9991 51.9937C17.1111 51.8817 17.2471 51.8257 17.4071 51.8257H19.7591C19.9351 51.8257 20.0791 51.8817 20.1911 51.9937C20.3031 52.1057 20.3591 52.2497 20.3591 52.4257V53.3617C20.7751 52.8497 21.3111 52.4257 21.9671 52.0897C22.6231 51.7537 23.4231 51.5857 24.3671 51.5857C25.3111 51.5857 26.1351 51.8017 26.8391 52.2337C27.5591 52.6497 28.1191 53.2657 28.5191 54.0817C28.9351 54.8817 29.1431 55.8577 29.1431 57.0097V63.7057C29.1431 63.8817 29.0791 64.0257 28.9511 64.1377C28.8391 64.2497 28.7031 64.3057 28.5431 64.3057H25.9991C25.8231 64.3057 25.6791 64.2497 25.5671 64.1377C25.4551 64.0257 25.3991 63.8817 25.3991 63.7057V57.1537C25.3991 56.3057 25.1911 55.6497 24.7751 55.1857C24.3751 54.7057 23.7831 54.4657 22.9991 54.4657C22.2471 54.4657 21.6471 54.7057 21.1991 55.1857C20.7511 55.6497 20.5271 56.3057 20.5271 57.1537V63.7057C20.5271 63.8817 20.4711 64.0257 20.3591 64.1377C20.2471 64.2497 20.1111 64.3057 19.9511 64.3057H17.4071ZM35.8826 64.5457C34.9546 64.5457 34.1306 64.3377 33.4106 63.9217C32.7066 63.4897 32.1546 62.8737 31.7546 62.0737C31.3706 61.2577 31.1786 60.2737 31.1786 59.1217V52.4257C31.1786 52.2497 31.2346 52.1057 31.3466 51.9937C31.4586 51.8817 31.5946 51.8257 31.7546 51.8257H34.2986C34.4746 51.8257 34.6186 51.8817 34.7306 51.9937C34.8426 52.1057 34.8986 52.2497 34.8986 52.4257V58.9777C34.8986 60.7697 35.6826 61.6657 37.2506 61.6657C38.0026 61.6657 38.5946 61.4337 39.0266 60.9697C39.4746 60.4897 39.6986 59.8257 39.6986 58.9777V52.4257C39.6986 52.2497 39.7546 52.1057 39.8666 51.9937C39.9786 51.8817 40.1226 51.8257 40.2986 51.8257H42.8426C43.0026 51.8257 43.1386 51.8817 43.2506 51.9937C43.3626 52.1057 43.4186 52.2497 43.4186 52.4257V63.7057C43.4186 63.8817 43.3626 64.0257 43.2506 64.1377C43.1386 64.2497 43.0026 64.3057 42.8426 64.3057H40.4906C40.3146 64.3057 40.1706 64.2497 40.0586 64.1377C39.9466 64.0257 39.8906 63.8817 39.8906 63.7057V62.7697C39.4746 63.3457 38.9386 63.7857 38.2826 64.0897C37.6266 64.3937 36.8266 64.5457 35.8826 64.5457ZM51.2632 64.5457C50.0952 64.5457 49.0632 64.3297 48.1672 63.8977C47.2872 63.4657 46.5912 62.8417 46.0792 62.0257C45.5672 61.1937 45.2872 60.2017 45.2392 59.0497C45.2232 58.7937 45.2152 58.4737 45.2152 58.0897C45.2152 57.6897 45.2232 57.3617 45.2392 57.1057C45.2872 55.9377 45.5592 54.9457 46.0552 54.1297C46.5672 53.2977 47.2712 52.6657 48.1672 52.2337C49.0632 51.8017 50.0952 51.5857 51.2632 51.5857C52.3352 51.5857 53.2472 51.7377 53.9992 52.0417C54.7512 52.3297 55.3672 52.6977 55.8472 53.1457C56.3272 53.5937 56.6792 54.0657 56.9032 54.5617C57.1432 55.0417 57.2712 55.4657 57.2872 55.8337C57.3032 55.9937 57.2472 56.1377 57.1192 56.2657C57.0072 56.3777 56.8712 56.4337 56.7112 56.4337H54.1432C53.9832 56.4337 53.8552 56.3937 53.7592 56.3137C53.6792 56.2177 53.5992 56.0897 53.5192 55.9297C53.2952 55.3697 53.0072 54.9697 52.6552 54.7297C52.3032 54.4897 51.8632 54.3697 51.3352 54.3697C50.6152 54.3697 50.0472 54.6017 49.6312 55.0657C49.2152 55.5297 48.9912 56.2497 48.9592 57.2257C48.9432 57.8497 48.9432 58.4177 48.9592 58.9297C49.0072 59.9217 49.2312 60.6417 49.6312 61.0897C50.0472 61.5377 50.6152 61.7617 51.3352 61.7617C51.8952 61.7617 52.3432 61.6417 52.6792 61.4017C53.0152 61.1617 53.2952 60.7617 53.5192 60.2017C53.5832 60.0417 53.6632 59.9217 53.7592 59.8417C53.8552 59.7457 53.9832 59.6977 54.1432 59.6977H56.7112C56.8712 59.6977 57.0072 59.7617 57.1192 59.8897C57.2472 60.0017 57.3032 60.1377 57.2872 60.2977C57.2712 60.5697 57.1912 60.8897 57.0472 61.2577C56.9192 61.6257 56.7032 62.0017 56.3992 62.3857C56.1112 62.7697 55.7352 63.1297 55.2712 63.4657C54.8072 63.7857 54.2392 64.0497 53.5672 64.2577C52.9112 64.4497 52.1432 64.5457 51.2632 64.5457ZM59.5211 64.3057C59.3451 64.3057 59.2011 64.2497 59.0891 64.1377C58.9771 64.0257 58.9211 63.8817 58.9211 63.7057V47.8657C58.9211 47.6897 58.9771 47.5457 59.0891 47.4337C59.2011 47.3217 59.3451 47.2657 59.5211 47.2657H61.8731C62.0331 47.2657 62.1691 47.3217 62.2811 47.4337C62.3931 47.5457 62.4491 47.6897 62.4491 47.8657V55.9777L66.1451 52.2337C66.2731 52.1217 66.3851 52.0257 66.4811 51.9457C66.5931 51.8657 66.7611 51.8257 66.9851 51.8257H69.6971C69.8571 51.8257 69.9851 51.8817 70.0811 51.9937C70.1771 52.0897 70.2251 52.2097 70.2251 52.3537C70.2251 52.4177 70.2091 52.4897 70.1771 52.5697C70.1451 52.6497 70.0891 52.7137 70.0091 52.7617L65.3771 57.4177L70.6091 63.3937C70.7531 63.5217 70.8251 63.6497 70.8251 63.7777C70.8251 63.9217 70.7691 64.0497 70.6571 64.1617C70.5611 64.2577 70.4411 64.3057 70.2971 64.3057H67.5131C67.2731 64.3057 67.0971 64.2657 66.9851 64.1857C66.8891 64.1057 66.7771 64.0097 66.6491 63.8977L62.4491 59.1937V63.7057C62.4491 63.8817 62.3931 64.0257 62.2811 64.1377C62.1691 64.2497 62.0331 64.3057 61.8731 64.3057H59.5211ZM72.4183 64.3057C72.2423 64.3057 72.0983 64.2497 71.9863 64.1377C71.8743 64.0257 71.8183 63.8817 71.8183 63.7057V47.8657C71.8183 47.6897 71.8743 47.5457 71.9863 47.4337C72.0983 47.3217 72.2423 47.2657 72.4183 47.2657H74.8183C74.9783 47.2657 75.1143 47.3217 75.2263 47.4337C75.3383 47.5457 75.3943 47.6897 75.3943 47.8657V63.7057C75.3943 63.8817 75.3383 64.0257 75.2263 64.1377C75.1143 64.2497 74.9783 64.3057 74.8183 64.3057H72.4183ZM83.2756 64.5457C81.4356 64.5457 79.9716 64.0337 78.8836 63.0097C77.8116 61.9857 77.2436 60.4977 77.1796 58.5457C77.1796 58.4177 77.1796 58.2497 77.1796 58.0417C77.1796 57.8177 77.1796 57.6417 77.1796 57.5137C77.2436 56.2817 77.5236 55.2257 78.0196 54.3457C78.5156 53.4497 79.2116 52.7697 80.1076 52.3057C81.0036 51.8257 82.0516 51.5857 83.2516 51.5857C84.5956 51.5857 85.7156 51.8657 86.6116 52.4257C87.5236 52.9697 88.2036 53.7217 88.6516 54.6817C89.1156 55.6257 89.3476 56.7137 89.3476 57.9457V58.4977C89.3476 58.6577 89.2836 58.7937 89.1556 58.9057C89.0436 59.0177 88.9076 59.0737 88.7476 59.0737H80.8996C80.8996 59.0897 80.8996 59.1217 80.8996 59.1697C80.8996 59.2017 80.8996 59.2337 80.8996 59.2657C80.9156 59.7777 81.0116 60.2497 81.1876 60.6817C81.3796 61.0977 81.6436 61.4337 81.9796 61.6897C82.3316 61.9457 82.7476 62.0737 83.2276 62.0737C83.6276 62.0737 83.9556 62.0177 84.2116 61.9057C84.4676 61.7937 84.6756 61.6577 84.8356 61.4977C85.0116 61.3377 85.1396 61.2017 85.2196 61.0897C85.3636 60.9297 85.4756 60.8337 85.5556 60.8017C85.6516 60.7537 85.7956 60.7297 85.9876 60.7297H88.4836C88.6436 60.7297 88.7716 60.7777 88.8676 60.8737C88.9796 60.9537 89.0276 61.0737 89.0116 61.2337C88.9956 61.4897 88.8596 61.8097 88.6036 62.1937C88.3636 62.5617 88.0036 62.9297 87.5236 63.2977C87.0436 63.6497 86.4436 63.9457 85.7236 64.1857C85.0196 64.4257 84.2036 64.5457 83.2756 64.5457ZM80.8996 56.8897H85.6036V56.8417C85.6036 56.2657 85.5076 55.7697 85.3156 55.3537C85.1396 54.9217 84.8756 54.5857 84.5236 54.3457C84.1716 54.1057 83.7476 53.9857 83.2516 53.9857C82.7556 53.9857 82.3316 54.1057 81.9796 54.3457C81.6276 54.5857 81.3556 54.9217 81.1636 55.3537C80.9876 55.7697 80.8996 56.2657 80.8996 56.8417V56.8897ZM95.9467 64.5457C94.9547 64.5457 94.0987 64.4337 93.3787 64.2097C92.6747 63.9697 92.0987 63.6817 91.6507 63.3457C91.2187 63.0097 90.8907 62.6737 90.6667 62.3377C90.4587 61.9857 90.3467 61.6897 90.3307 61.4497C90.3147 61.2737 90.3707 61.1297 90.4987 61.0177C90.6267 60.9057 90.7547 60.8497 90.8827 60.8497H93.2107C93.2587 60.8497 93.3067 60.8577 93.3547 60.8737C93.4027 60.8897 93.4507 60.9297 93.4987 60.9937C93.7067 61.1377 93.9227 61.3057 94.1467 61.4977C94.3707 61.6737 94.6267 61.8257 94.9147 61.9537C95.2187 62.0817 95.5947 62.1457 96.0427 62.1457C96.5707 62.1457 97.0187 62.0417 97.3867 61.8337C97.7547 61.6097 97.9387 61.2977 97.9387 60.8977C97.9387 60.6097 97.8507 60.3697 97.6747 60.1777C97.5147 59.9857 97.2027 59.8097 96.7387 59.6497C96.2747 59.4897 95.5867 59.3137 94.6747 59.1217C93.8107 58.9297 93.0747 58.6737 92.4667 58.3537C91.8587 58.0337 91.4027 57.6337 91.0987 57.1537C90.7947 56.6577 90.6427 56.0657 90.6427 55.3777C90.6427 54.7537 90.8347 54.1537 91.2187 53.5777C91.6187 53.0017 92.2027 52.5297 92.9707 52.1617C93.7387 51.7777 94.6987 51.5857 95.8507 51.5857C96.7307 51.5857 97.4987 51.6977 98.1547 51.9217C98.8267 52.1297 99.3867 52.4017 99.8347 52.7377C100.283 53.0577 100.619 53.3937 100.843 53.7457C101.083 54.0817 101.211 54.3777 101.227 54.6337C101.243 54.7937 101.195 54.9297 101.083 55.0417C100.971 55.1537 100.843 55.2097 100.699 55.2097H98.5627C98.4827 55.2097 98.4107 55.2017 98.3467 55.1857C98.2827 55.1537 98.2267 55.1137 98.1787 55.0657C97.9867 54.9377 97.7867 54.7937 97.5787 54.6337C97.3867 54.4577 97.1547 54.3057 96.8827 54.1777C96.6107 54.0497 96.2587 53.9857 95.8267 53.9857C95.2987 53.9857 94.8907 54.1057 94.6027 54.3457C94.3307 54.5697 94.1947 54.8577 94.1947 55.2097C94.1947 55.4337 94.2667 55.6417 94.4107 55.8337C94.5547 56.0257 94.8507 56.2017 95.2987 56.3617C95.7467 56.5217 96.4267 56.6897 97.3387 56.8657C98.4267 57.0577 99.2907 57.3457 99.9307 57.7297C100.571 58.1137 101.027 58.5617 101.299 59.0737C101.587 59.5697 101.731 60.1057 101.731 60.6817C101.731 61.4337 101.507 62.1057 101.059 62.6977C100.611 63.2737 99.9547 63.7297 99.0907 64.0657C98.2427 64.3857 97.1947 64.5457 95.9467 64.5457Z"
     fill="#522B2A"
     id="path2"
     style="fill:#d31f11;fill-opacity:1" />
  <path
     d="M2.26 87.3057C2.14267 87.3057 2.052 87.2737 1.988 87.2097C1.924 87.135 1.892 87.0443 1.892 86.9377V76.4897C1.892 76.3723 1.924 76.2817 1.988 76.2177C2.052 76.143 2.14267 76.1057 2.26 76.1057H6.164C7.36933 76.1057 8.324 76.3883 9.028 76.9537C9.732 77.519 10.084 78.3563 10.084 79.4657C10.084 80.287 9.876 80.959 9.46 81.4817C9.05467 81.9937 8.5 82.351 7.796 82.5537L10.26 86.8097C10.292 86.8737 10.308 86.9323 10.308 86.9857C10.308 87.071 10.2707 87.1457 10.196 87.2097C10.132 87.2737 10.0573 87.3057 9.972 87.3057H9.204C9.02267 87.3057 8.88933 87.2577 8.804 87.1617C8.71867 87.0657 8.644 86.9697 8.58 86.8737L6.26 82.8097H3.46V86.9377C3.46 87.0443 3.42267 87.135 3.348 87.2097C3.284 87.2737 3.19333 87.3057 3.076 87.3057H2.26ZM3.46 81.4497H6.1C6.9 81.4497 7.49733 81.2843 7.892 80.9537C8.28667 80.6123 8.484 80.111 8.484 79.4497C8.484 78.799 8.28667 78.303 7.892 77.9617C7.508 77.6203 6.91067 77.4497 6.1 77.4497H3.46V81.4497ZM15.0666 87.4657C13.968 87.4657 13.0933 87.1297 12.4426 86.4577C11.792 85.775 11.4346 84.847 11.3706 83.6737C11.36 83.535 11.3546 83.359 11.3546 83.1457C11.3546 82.9217 11.36 82.7403 11.3706 82.6017C11.4133 81.8443 11.5893 81.183 11.8986 80.6177C12.208 80.0417 12.6293 79.599 13.1626 79.2897C13.7066 78.9803 14.3413 78.8257 15.0666 78.8257C15.8773 78.8257 16.5546 78.9963 17.0986 79.3377C17.6533 79.679 18.0746 80.1643 18.3626 80.7937C18.6506 81.423 18.7946 82.159 18.7946 83.0017V83.2737C18.7946 83.391 18.7573 83.4817 18.6826 83.5457C18.6186 83.6097 18.5333 83.6417 18.4266 83.6417H12.8906C12.8906 83.6523 12.8906 83.6737 12.8906 83.7057C12.8906 83.7377 12.8906 83.7643 12.8906 83.7857C12.912 84.223 13.008 84.6337 13.1786 85.0177C13.3493 85.391 13.5946 85.695 13.9146 85.9297C14.2346 86.1643 14.6186 86.2817 15.0666 86.2817C15.4506 86.2817 15.7706 86.223 16.0266 86.1057C16.2826 85.9883 16.4906 85.8603 16.6506 85.7217C16.8106 85.5723 16.9173 85.4603 16.9706 85.3857C17.0666 85.247 17.1413 85.167 17.1946 85.1457C17.248 85.1137 17.3333 85.0977 17.4506 85.0977H18.2186C18.3253 85.0977 18.4106 85.1297 18.4746 85.1937C18.5493 85.247 18.5813 85.327 18.5706 85.4337C18.56 85.5937 18.4746 85.791 18.3146 86.0257C18.1546 86.2497 17.9253 86.4737 17.6266 86.6977C17.328 86.9217 16.9653 87.1083 16.5386 87.2577C16.112 87.3963 15.6213 87.4657 15.0666 87.4657ZM12.8906 82.5377H17.2746V82.4897C17.2746 82.0097 17.184 81.583 17.0026 81.2097C16.832 80.8363 16.5813 80.543 16.2506 80.3297C15.92 80.1057 15.5253 79.9937 15.0666 79.9937C14.608 79.9937 14.2133 80.1057 13.8826 80.3297C13.5626 80.543 13.3173 80.8363 13.1466 81.2097C12.976 81.583 12.8906 82.0097 12.8906 82.4897V82.5377ZM26.4038 90.3457C26.2864 90.3457 26.1958 90.3083 26.1318 90.2337C26.0678 90.1697 26.0358 90.0843 26.0358 89.9777V86.2657C25.7691 86.607 25.4224 86.895 24.9958 87.1297C24.5798 87.3537 24.0624 87.4657 23.4438 87.4657C22.8571 87.4657 22.3504 87.3643 21.9238 87.1617C21.4971 86.9483 21.1451 86.671 20.8678 86.3297C20.6011 85.9777 20.3984 85.5777 20.2598 85.1297C20.1318 84.671 20.0571 84.191 20.0358 83.6897C20.0251 83.519 20.0198 83.3377 20.0198 83.1457C20.0198 82.9537 20.0251 82.7723 20.0358 82.6017C20.0571 82.0897 20.1318 81.6097 20.2598 81.1617C20.3984 80.7137 20.6011 80.3137 20.8678 79.9617C21.1451 79.6097 21.4971 79.3323 21.9238 79.1297C22.3504 78.927 22.8571 78.8257 23.4438 78.8257C24.0838 78.8257 24.6171 78.943 25.0438 79.1777C25.4704 79.4123 25.8118 79.7057 26.0678 80.0577V79.3537C26.0678 79.247 26.0998 79.1617 26.1638 79.0977C26.2384 79.023 26.3291 78.9857 26.4358 78.9857H27.1718C27.2784 78.9857 27.3638 79.023 27.4278 79.0977C27.5024 79.1617 27.5398 79.247 27.5398 79.3537V89.9777C27.5398 90.0843 27.5024 90.1697 27.4278 90.2337C27.3638 90.3083 27.2784 90.3457 27.1718 90.3457H26.4038ZM23.7798 86.1697C24.2918 86.1697 24.7078 86.0523 25.0278 85.8177C25.3584 85.583 25.6038 85.2843 25.7638 84.9217C25.9344 84.559 26.0251 84.191 26.0358 83.8177C26.0464 83.6363 26.0518 83.4283 26.0518 83.1937C26.0518 82.959 26.0464 82.7563 26.0358 82.5857C26.0251 82.191 25.9398 81.807 25.7798 81.4337C25.6198 81.0497 25.3744 80.735 25.0438 80.4897C24.7238 80.2443 24.3024 80.1217 23.7798 80.1217C23.2358 80.1217 22.8038 80.2443 22.4838 80.4897C22.1638 80.7243 21.9344 81.039 21.7958 81.4337C21.6571 81.8177 21.5771 82.2337 21.5558 82.6817C21.5451 82.991 21.5451 83.3003 21.5558 83.6097C21.5771 84.0577 21.6571 84.479 21.7958 84.8737C21.9344 85.2577 22.1638 85.5723 22.4838 85.8177C22.8038 86.0523 23.2358 86.1697 23.7798 86.1697ZM32.703 87.4657C32.0203 87.4657 31.439 87.3163 30.959 87.0177C30.4897 86.7083 30.1323 86.2817 29.887 85.7377C29.6417 85.1937 29.519 84.5697 29.519 83.8657V79.3537C29.519 79.247 29.551 79.1617 29.615 79.0977C29.6897 79.023 29.7803 78.9857 29.887 78.9857H30.687C30.7937 78.9857 30.879 79.023 30.943 79.0977C31.0177 79.1617 31.055 79.247 31.055 79.3537V83.7857C31.055 85.375 31.7483 86.1697 33.135 86.1697C33.7963 86.1697 34.3243 85.9617 34.719 85.5457C35.1243 85.119 35.327 84.5323 35.327 83.7857V79.3537C35.327 79.247 35.359 79.1617 35.423 79.0977C35.4977 79.023 35.5883 78.9857 35.695 78.9857H36.479C36.5963 78.9857 36.687 79.023 36.751 79.0977C36.815 79.1617 36.847 79.247 36.847 79.3537V86.9377C36.847 87.0443 36.815 87.135 36.751 87.2097C36.687 87.2737 36.5963 87.3057 36.479 87.3057H35.743C35.6363 87.3057 35.5457 87.2737 35.471 87.2097C35.407 87.135 35.375 87.0443 35.375 86.9377V86.2337C35.087 86.607 34.735 86.9057 34.319 87.1297C33.9137 87.3537 33.375 87.4657 32.703 87.4657ZM39.272 87.3057C39.1653 87.3057 39.0747 87.2737 39 87.2097C38.936 87.135 38.904 87.0443 38.904 86.9377V79.3537C38.904 79.247 38.936 79.1617 39 79.0977C39.0747 79.023 39.1653 78.9857 39.272 78.9857H40.04C40.1467 78.9857 40.232 79.023 40.296 79.0977C40.36 79.1617 40.392 79.247 40.392 79.3537V86.9377C40.392 87.0443 40.36 87.135 40.296 87.2097C40.232 87.2737 40.1467 87.3057 40.04 87.3057H39.272ZM39.144 77.4337C39.0373 77.4337 38.9467 77.4017 38.872 77.3377C38.808 77.263 38.776 77.1723 38.776 77.0657V76.2017C38.776 76.095 38.808 76.0097 38.872 75.9457C38.9467 75.871 39.0373 75.8337 39.144 75.8337H40.152C40.2587 75.8337 40.344 75.871 40.408 75.9457C40.4827 76.0097 40.52 76.095 40.52 76.2017V77.0657C40.52 77.1723 40.4827 77.263 40.408 77.3377C40.344 77.4017 40.2587 77.4337 40.152 77.4337H39.144ZM42.827 87.3057C42.7203 87.3057 42.6297 87.2737 42.555 87.2097C42.491 87.135 42.459 87.0443 42.459 86.9377V79.3697C42.459 79.263 42.491 79.1723 42.555 79.0977C42.6297 79.023 42.7203 78.9857 42.827 78.9857H43.563C43.6697 78.9857 43.7603 79.023 43.835 79.0977C43.9097 79.1723 43.947 79.263 43.947 79.3697V80.0737C44.1603 79.711 44.4537 79.439 44.827 79.2577C45.2003 79.0763 45.6483 78.9857 46.171 78.9857H46.811C46.9177 78.9857 47.003 79.023 47.067 79.0977C47.131 79.1617 47.163 79.247 47.163 79.3537V80.0097C47.163 80.1163 47.131 80.2017 47.067 80.2657C47.003 80.3297 46.9177 80.3617 46.811 80.3617H45.851C45.275 80.3617 44.8217 80.5323 44.491 80.8737C44.1603 81.2043 43.995 81.6577 43.995 82.2337V86.9377C43.995 87.0443 43.9577 87.135 43.883 87.2097C43.8083 87.2737 43.7177 87.3057 43.611 87.3057H42.827ZM51.3729 87.4657C50.2742 87.4657 49.3995 87.1297 48.7489 86.4577C48.0982 85.775 47.7409 84.847 47.6769 83.6737C47.6662 83.535 47.6609 83.359 47.6609 83.1457C47.6609 82.9217 47.6662 82.7403 47.6769 82.6017C47.7195 81.8443 47.8955 81.183 48.2049 80.6177C48.5142 80.0417 48.9355 79.599 49.4689 79.2897C50.0129 78.9803 50.6475 78.8257 51.3729 78.8257C52.1835 78.8257 52.8609 78.9963 53.4049 79.3377C53.9595 79.679 54.3809 80.1643 54.6689 80.7937C54.9569 81.423 55.1009 82.159 55.1009 83.0017V83.2737C55.1009 83.391 55.0635 83.4817 54.9889 83.5457C54.9249 83.6097 54.8395 83.6417 54.7329 83.6417H49.1969C49.1969 83.6523 49.1969 83.6737 49.1969 83.7057C49.1969 83.7377 49.1969 83.7643 49.1969 83.7857C49.2182 84.223 49.3142 84.6337 49.4849 85.0177C49.6555 85.391 49.9009 85.695 50.2209 85.9297C50.5409 86.1643 50.9249 86.2817 51.3729 86.2817C51.7569 86.2817 52.0769 86.223 52.3329 86.1057C52.5889 85.9883 52.7969 85.8603 52.9569 85.7217C53.1169 85.5723 53.2235 85.4603 53.2769 85.3857C53.3729 85.247 53.4475 85.167 53.5009 85.1457C53.5542 85.1137 53.6395 85.0977 53.7569 85.0977H54.5249C54.6315 85.0977 54.7169 85.1297 54.7809 85.1937C54.8555 85.247 54.8875 85.327 54.8769 85.4337C54.8662 85.5937 54.7809 85.791 54.6209 86.0257C54.4609 86.2497 54.2315 86.4737 53.9329 86.6977C53.6342 86.9217 53.2715 87.1083 52.8449 87.2577C52.4182 87.3963 51.9275 87.4657 51.3729 87.4657ZM49.1969 82.5377H53.5809V82.4897C53.5809 82.0097 53.4902 81.583 53.3089 81.2097C53.1382 80.8363 52.8875 80.543 52.5569 80.3297C52.2262 80.1057 51.8315 79.9937 51.3729 79.9937C50.9142 79.9937 50.5195 80.1057 50.1889 80.3297C49.8689 80.543 49.6235 80.8363 49.4529 81.2097C49.2822 81.583 49.1969 82.0097 49.1969 82.4897V82.5377ZM61.199 87.3057C61.0923 87.3057 61.0017 87.2737 60.927 87.2097C60.863 87.135 60.831 87.0443 60.831 86.9377V80.2657H59.471C59.3643 80.2657 59.2737 80.2337 59.199 80.1697C59.135 80.095 59.103 80.0043 59.103 79.8977V79.3537C59.103 79.247 59.135 79.1617 59.199 79.0977C59.2737 79.023 59.3643 78.9857 59.471 78.9857H60.831V78.1857C60.831 77.6417 60.9217 77.167 61.103 76.7617C61.2843 76.3457 61.5723 76.0257 61.967 75.8017C62.3723 75.5777 62.911 75.4657 63.583 75.4657H64.543C64.6497 75.4657 64.735 75.503 64.799 75.5777C64.863 75.6417 64.895 75.727 64.895 75.8337V76.3777C64.895 76.4843 64.863 76.575 64.799 76.6497C64.735 76.7137 64.6497 76.7457 64.543 76.7457H63.615C63.1137 76.7457 62.7723 76.879 62.591 77.1457C62.4097 77.4017 62.319 77.775 62.319 78.2657V78.9857H64.383C64.4897 78.9857 64.575 79.023 64.639 79.0977C64.703 79.1617 64.735 79.247 64.735 79.3537V79.8977C64.735 80.0043 64.703 80.095 64.639 80.1697C64.575 80.2337 64.4897 80.2657 64.383 80.2657H62.319V86.9377C62.319 87.0443 62.2817 87.135 62.207 87.2097C62.143 87.2737 62.0577 87.3057 61.951 87.3057H61.199ZM69.087 87.4657C68.2763 87.4657 67.599 87.311 67.055 87.0017C66.511 86.6923 66.095 86.2657 65.807 85.7217C65.519 85.167 65.359 84.5377 65.327 83.8337C65.3163 83.6523 65.311 83.423 65.311 83.1457C65.311 82.8577 65.3163 82.6283 65.327 82.4577C65.359 81.743 65.519 81.1137 65.807 80.5697C66.1057 80.0257 66.527 79.599 67.071 79.2897C67.615 78.9803 68.287 78.8257 69.087 78.8257C69.887 78.8257 70.559 78.9803 71.103 79.2897C71.647 79.599 72.063 80.0257 72.351 80.5697C72.6497 81.1137 72.815 81.743 72.847 82.4577C72.8577 82.6283 72.863 82.8577 72.863 83.1457C72.863 83.423 72.8577 83.6523 72.847 83.8337C72.815 84.5377 72.655 85.167 72.367 85.7217C72.079 86.2657 71.663 86.6923 71.119 87.0017C70.575 87.311 69.8977 87.4657 69.087 87.4657ZM69.087 86.2337C69.7483 86.2337 70.2763 86.0257 70.671 85.6097C71.0657 85.183 71.279 84.5643 71.311 83.7537C71.3217 83.5937 71.327 83.391 71.327 83.1457C71.327 82.9003 71.3217 82.6977 71.311 82.5377C71.279 81.727 71.0657 81.1137 70.671 80.6977C70.2763 80.271 69.7483 80.0577 69.087 80.0577C68.4257 80.0577 67.8923 80.271 67.487 80.6977C67.0923 81.1137 66.8843 81.727 66.863 82.5377C66.8523 82.6977 66.847 82.9003 66.847 83.1457C66.847 83.391 66.8523 83.5937 66.863 83.7537C66.8843 84.5643 67.0923 85.183 67.487 85.6097C67.8923 86.0257 68.4257 86.2337 69.087 86.2337ZM77.9065 87.4657C77.1492 87.4657 76.4932 87.3217 75.9385 87.0337C75.3945 86.735 74.9732 86.3137 74.6745 85.7697C74.3758 85.215 74.2158 84.5537 74.1945 83.7857C74.1838 83.6257 74.1785 83.4123 74.1785 83.1457C74.1785 82.879 74.1838 82.6657 74.1945 82.5057C74.2158 81.7377 74.3758 81.0817 74.6745 80.5377C74.9732 79.983 75.3945 79.5617 75.9385 79.2737C76.4932 78.975 77.1492 78.8257 77.9065 78.8257C78.5252 78.8257 79.0532 78.911 79.4905 79.0817C79.9385 79.2523 80.3065 79.471 80.5945 79.7377C80.8825 80.0043 81.0958 80.2923 81.2345 80.6017C81.3838 80.911 81.4638 81.2043 81.4745 81.4817C81.4852 81.5883 81.4532 81.6737 81.3785 81.7377C81.3038 81.8017 81.2132 81.8337 81.1065 81.8337H80.3385C80.2318 81.8337 80.1518 81.8123 80.0985 81.7697C80.0452 81.7163 79.9918 81.631 79.9385 81.5137C79.7465 80.991 79.4852 80.623 79.1545 80.4097C78.8238 80.1963 78.4132 80.0897 77.9225 80.0897C77.2825 80.0897 76.7598 80.287 76.3545 80.6817C75.9598 81.0763 75.7465 81.711 75.7145 82.5857C75.7038 82.9697 75.7038 83.343 75.7145 83.7057C75.7465 84.591 75.9598 85.231 76.3545 85.6257C76.7598 86.0097 77.2825 86.2017 77.9225 86.2017C78.4132 86.2017 78.8238 86.095 79.1545 85.8817C79.4852 85.6683 79.7465 85.3003 79.9385 84.7777C79.9918 84.6603 80.0452 84.5803 80.0985 84.5377C80.1518 84.4843 80.2318 84.4577 80.3385 84.4577H81.1065C81.2132 84.4577 81.3038 84.4897 81.3785 84.5537C81.4532 84.6177 81.4852 84.703 81.4745 84.8097C81.4638 85.0337 81.4158 85.263 81.3305 85.4977C81.2452 85.7323 81.1065 85.9723 80.9145 86.2177C80.7332 86.4523 80.5038 86.6657 80.2265 86.8577C79.9492 87.039 79.6132 87.1883 79.2185 87.3057C78.8345 87.4123 78.3972 87.4657 77.9065 87.4657ZM86.1586 87.4657C85.476 87.4657 84.8946 87.3163 84.4146 87.0177C83.9453 86.7083 83.588 86.2817 83.3426 85.7377C83.0973 85.1937 82.9746 84.5697 82.9746 83.8657V79.3537C82.9746 79.247 83.0066 79.1617 83.0706 79.0977C83.1453 79.023 83.236 78.9857 83.3426 78.9857H84.1426C84.2493 78.9857 84.3346 79.023 84.3986 79.0977C84.4733 79.1617 84.5106 79.247 84.5106 79.3537V83.7857C84.5106 85.375 85.204 86.1697 86.5906 86.1697C87.252 86.1697 87.78 85.9617 88.1746 85.5457C88.58 85.119 88.7826 84.5323 88.7826 83.7857V79.3537C88.7826 79.247 88.8146 79.1617 88.8786 79.0977C88.9533 79.023 89.044 78.9857 89.1506 78.9857H89.9346C90.052 78.9857 90.1426 79.023 90.2066 79.0977C90.2706 79.1617 90.3026 79.247 90.3026 79.3537V86.9377C90.3026 87.0443 90.2706 87.135 90.2066 87.2097C90.1426 87.2737 90.052 87.3057 89.9346 87.3057H89.1986C89.092 87.3057 89.0013 87.2737 88.9266 87.2097C88.8626 87.135 88.8306 87.0443 88.8306 86.9377V86.2337C88.5426 86.607 88.1906 86.9057 87.7746 87.1297C87.3693 87.3537 86.8306 87.4657 86.1586 87.4657ZM95.2396 87.4657C94.6423 87.4657 94.1303 87.391 93.7036 87.2417C93.277 87.0923 92.9303 86.911 92.6636 86.6977C92.397 86.4843 92.1943 86.271 92.0556 86.0577C91.9276 85.8443 91.8583 85.6737 91.8476 85.5457C91.837 85.4283 91.8743 85.3377 91.9596 85.2737C92.045 85.2097 92.1303 85.1777 92.2156 85.1777H92.9196C92.9836 85.1777 93.0316 85.1883 93.0636 85.2097C93.1063 85.2203 93.1596 85.263 93.2236 85.3377C93.3623 85.487 93.517 85.6363 93.6876 85.7857C93.8583 85.935 94.0663 86.0577 94.3116 86.1537C94.5676 86.2497 94.8823 86.2977 95.2556 86.2977C95.7996 86.2977 96.2476 86.1963 96.5996 85.9937C96.9516 85.7803 97.1276 85.471 97.1276 85.0657C97.1276 84.799 97.053 84.5857 96.9036 84.4257C96.765 84.2657 96.509 84.1217 96.1356 83.9937C95.773 83.8657 95.2716 83.7323 94.6316 83.5937C93.9916 83.4443 93.485 83.263 93.1116 83.0497C92.7383 82.8257 92.4716 82.5643 92.3116 82.2657C92.1516 81.9563 92.0716 81.6097 92.0716 81.2257C92.0716 80.831 92.189 80.4523 92.4236 80.0897C92.6583 79.7163 92.9996 79.4123 93.4476 79.1777C93.9063 78.943 94.477 78.8257 95.1596 78.8257C95.7143 78.8257 96.189 78.895 96.5836 79.0337C96.9783 79.1723 97.3036 79.3483 97.5596 79.5617C97.8156 79.7643 98.0076 79.967 98.1356 80.1697C98.2636 80.3723 98.333 80.543 98.3436 80.6817C98.3543 80.7883 98.3223 80.879 98.2476 80.9537C98.173 81.0177 98.0876 81.0497 97.9916 81.0497H97.3196C97.245 81.0497 97.181 81.0337 97.1276 81.0017C97.085 80.9697 97.0423 80.9323 96.9996 80.8897C96.893 80.751 96.765 80.6123 96.6156 80.4737C96.477 80.335 96.2903 80.223 96.0556 80.1377C95.8316 80.0417 95.533 79.9937 95.1596 79.9937C94.6263 79.9937 94.2263 80.1057 93.9596 80.3297C93.693 80.5537 93.5596 80.8363 93.5596 81.1777C93.5596 81.3803 93.6183 81.5617 93.7356 81.7217C93.853 81.8817 94.077 82.0257 94.4076 82.1537C94.7383 82.2817 95.229 82.4203 95.8796 82.5697C96.5836 82.7083 97.1383 82.895 97.5436 83.1297C97.949 83.3643 98.237 83.6363 98.4076 83.9457C98.5783 84.255 98.6636 84.6123 98.6636 85.0177C98.6636 85.4657 98.5303 85.8763 98.2636 86.2497C98.0076 86.623 97.6236 86.9217 97.1116 87.1457C96.6103 87.359 95.9863 87.4657 95.2396 87.4657ZM106.118 87.4657C105.584 87.4657 105.099 87.359 104.662 87.1457C104.224 86.9323 103.872 86.6443 103.606 86.2817C103.339 85.919 103.206 85.5083 103.206 85.0497C103.206 84.3137 103.504 83.727 104.102 83.2897C104.699 82.8523 105.478 82.5643 106.438 82.4257L108.822 82.0897V81.6257C108.822 81.1137 108.672 80.7137 108.374 80.4257C108.086 80.1377 107.611 79.9937 106.95 79.9937C106.47 79.9937 106.08 80.0897 105.782 80.2817C105.494 80.4737 105.291 80.719 105.174 81.0177C105.11 81.1777 104.998 81.2577 104.838 81.2577H104.118C104 81.2577 103.91 81.2257 103.846 81.1617C103.792 81.087 103.766 81.0017 103.766 80.9057C103.766 80.7457 103.824 80.5483 103.942 80.3137C104.07 80.079 104.262 79.8497 104.518 79.6257C104.774 79.4017 105.099 79.215 105.494 79.0657C105.899 78.9057 106.39 78.8257 106.966 78.8257C107.606 78.8257 108.144 78.911 108.582 79.0817C109.019 79.2417 109.36 79.4603 109.606 79.7377C109.862 80.015 110.043 80.3297 110.15 80.6817C110.267 81.0337 110.326 81.391 110.326 81.7537V86.9377C110.326 87.0443 110.288 87.135 110.214 87.2097C110.15 87.2737 110.064 87.3057 109.958 87.3057H109.222C109.104 87.3057 109.014 87.2737 108.95 87.2097C108.886 87.135 108.854 87.0443 108.854 86.9377V86.2497C108.715 86.4417 108.528 86.6337 108.294 86.8257C108.059 87.007 107.766 87.1617 107.414 87.2897C107.062 87.407 106.63 87.4657 106.118 87.4657ZM106.454 86.2657C106.891 86.2657 107.291 86.175 107.654 85.9937C108.016 85.8017 108.299 85.5083 108.502 85.1137C108.715 84.719 108.822 84.223 108.822 83.6257V83.1777L106.966 83.4497C106.208 83.5563 105.638 83.7377 105.254 83.9937C104.87 84.239 104.678 84.5537 104.678 84.9377C104.678 85.2363 104.763 85.487 104.934 85.6897C105.115 85.8817 105.339 86.0257 105.606 86.1217C105.883 86.2177 106.166 86.2657 106.454 86.2657ZM112.674 87.3057C112.567 87.3057 112.477 87.2737 112.402 87.2097C112.338 87.135 112.306 87.0443 112.306 86.9377V79.3537C112.306 79.247 112.338 79.1617 112.402 79.0977C112.477 79.023 112.567 78.9857 112.674 78.9857H113.426C113.533 78.9857 113.618 79.023 113.682 79.0977C113.757 79.1617 113.794 79.247 113.794 79.3537V80.0577C114.071 79.695 114.418 79.4017 114.834 79.1777C115.261 78.943 115.805 78.8257 116.466 78.8257C117.159 78.8257 117.746 78.9803 118.226 79.2897C118.717 79.5883 119.085 80.0097 119.33 80.5537C119.575 81.087 119.698 81.711 119.698 82.4257V86.9377C119.698 87.0443 119.666 87.135 119.602 87.2097C119.538 87.2737 119.453 87.3057 119.346 87.3057H118.546C118.439 87.3057 118.349 87.2737 118.274 87.2097C118.21 87.135 118.178 87.0443 118.178 86.9377V82.5057C118.178 81.759 117.997 81.1777 117.634 80.7617C117.271 80.335 116.738 80.1217 116.034 80.1217C115.373 80.1217 114.839 80.335 114.434 80.7617C114.039 81.1777 113.842 81.759 113.842 82.5057V86.9377C113.842 87.0443 113.805 87.135 113.73 87.2097C113.666 87.2737 113.581 87.3057 113.474 87.3057H112.674ZM124.729 87.4657C124.142 87.4657 123.636 87.3643 123.209 87.1617C122.782 86.9483 122.43 86.6657 122.153 86.3137C121.886 85.951 121.684 85.5403 121.545 85.0817C121.417 84.623 121.342 84.1377 121.321 83.6257C121.31 83.455 121.305 83.295 121.305 83.1457C121.305 82.9963 121.31 82.8363 121.321 82.6657C121.342 82.1643 121.417 81.6843 121.545 81.2257C121.684 80.767 121.886 80.3563 122.153 79.9937C122.43 79.631 122.782 79.3483 123.209 79.1457C123.636 78.9323 124.142 78.8257 124.729 78.8257C125.358 78.8257 125.881 78.9377 126.297 79.1617C126.713 79.3857 127.054 79.663 127.321 79.9937V76.3137C127.321 76.207 127.353 76.1217 127.417 76.0577C127.492 75.983 127.582 75.9457 127.689 75.9457H128.457C128.564 75.9457 128.649 75.983 128.713 76.0577C128.788 76.1217 128.825 76.207 128.825 76.3137V86.9377C128.825 87.0443 128.788 87.135 128.713 87.2097C128.649 87.2737 128.564 87.3057 128.457 87.3057H127.737C127.62 87.3057 127.529 87.2737 127.465 87.2097C127.401 87.135 127.369 87.0443 127.369 86.9377V86.2657C127.102 86.607 126.756 86.895 126.329 87.1297C125.902 87.3537 125.369 87.4657 124.729 87.4657ZM125.065 86.1697C125.598 86.1697 126.025 86.047 126.345 85.8017C126.665 85.5563 126.905 85.247 127.065 84.8737C127.225 84.4897 127.31 84.1003 127.321 83.7057C127.332 83.535 127.337 83.3323 127.337 83.0977C127.337 82.8523 127.332 82.6443 127.321 82.4737C127.31 82.1003 127.22 81.7323 127.049 81.3697C126.889 81.007 126.644 80.7083 126.313 80.4737C125.993 80.239 125.577 80.1217 125.065 80.1217C124.521 80.1217 124.089 80.2443 123.769 80.4897C123.449 80.7243 123.22 81.039 123.081 81.4337C122.942 81.8177 122.862 82.2337 122.841 82.6817C122.83 82.991 122.83 83.3003 122.841 83.6097C122.862 84.0577 122.942 84.479 123.081 84.8737C123.22 85.2577 123.449 85.5723 123.769 85.8177C124.089 86.0523 124.521 86.1697 125.065 86.1697ZM4.004 107.466C3.47067 107.466 2.98533 107.359 2.548 107.146C2.11067 106.932 1.75867 106.644 1.492 106.282C1.22533 105.919 1.092 105.508 1.092 105.05C1.092 104.314 1.39067 103.727 1.988 103.29C2.58533 102.852 3.364 102.564 4.324 102.426L6.708 102.09V101.626C6.708 101.114 6.55867 100.714 6.26 100.426C5.972 100.138 5.49733 99.9937 4.836 99.9937C4.356 99.9937 3.96667 100.09 3.668 100.282C3.38 100.474 3.17733 100.719 3.06 101.018C2.996 101.178 2.884 101.258 2.724 101.258H2.004C1.88667 101.258 1.796 101.226 1.732 101.162C1.67867 101.087 1.652 101.002 1.652 100.906C1.652 100.746 1.71067 100.548 1.828 100.314C1.956 100.079 2.148 99.8497 2.404 99.6257C2.66 99.4017 2.98533 99.215 3.38 99.0657C3.78533 98.9057 4.276 98.8257 4.852 98.8257C5.492 98.8257 6.03067 98.911 6.468 99.0817C6.90533 99.2417 7.24667 99.4603 7.492 99.7377C7.748 100.015 7.92933 100.33 8.036 100.682C8.15333 101.034 8.212 101.391 8.212 101.754V106.938C8.212 107.044 8.17467 107.135 8.1 107.21C8.036 107.274 7.95067 107.306 7.844 107.306H7.108C6.99067 107.306 6.9 107.274 6.836 107.21C6.772 107.135 6.74 107.044 6.74 106.938V106.25C6.60133 106.442 6.41467 106.634 6.18 106.826C5.94533 107.007 5.652 107.162 5.3 107.29C4.948 107.407 4.516 107.466 4.004 107.466ZM4.34 106.266C4.77733 106.266 5.17733 106.175 5.54 105.994C5.90267 105.802 6.18533 105.508 6.388 105.114C6.60133 104.719 6.708 104.223 6.708 103.626V103.178L4.852 103.45C4.09467 103.556 3.524 103.738 3.14 103.994C2.756 104.239 2.564 104.554 2.564 104.938C2.564 105.236 2.64933 105.487 2.82 105.69C3.00133 105.882 3.22533 106.026 3.492 106.122C3.76933 106.218 4.052 106.266 4.34 106.266ZM13.362 107.306C12.7647 107.306 12.2793 107.194 11.906 106.97C11.5327 106.735 11.2607 106.41 11.09 105.994C10.9193 105.567 10.834 105.066 10.834 104.49V100.266H9.586C9.47933 100.266 9.38867 100.234 9.314 100.17C9.25 100.095 9.218 100.004 9.218 99.8977V99.3537C9.218 99.247 9.25 99.1617 9.314 99.0977C9.38867 99.023 9.47933 98.9857 9.586 98.9857H10.834V96.3137C10.834 96.207 10.866 96.1217 10.93 96.0577C11.0047 95.983 11.0953 95.9457 11.202 95.9457H11.954C12.0607 95.9457 12.146 95.983 12.21 96.0577C12.2847 96.1217 12.322 96.207 12.322 96.3137V98.9857H14.306C14.4127 98.9857 14.498 99.023 14.562 99.0977C14.6367 99.1617 14.674 99.247 14.674 99.3537V99.8977C14.674 100.004 14.6367 100.095 14.562 100.17C14.498 100.234 14.4127 100.266 14.306 100.266H12.322V104.378C12.322 104.879 12.4073 105.274 12.578 105.562C12.7487 105.85 13.0527 105.994 13.49 105.994H14.466C14.5727 105.994 14.658 106.031 14.722 106.106C14.7967 106.17 14.834 106.255 14.834 106.362V106.938C14.834 107.044 14.7967 107.135 14.722 107.21C14.658 107.274 14.5727 107.306 14.466 107.306H13.362ZM16.428 107.306C16.3213 107.306 16.2307 107.274 16.156 107.21C16.092 107.135 16.06 107.044 16.06 106.938V96.3137C16.06 96.207 16.092 96.1217 16.156 96.0577C16.2307 95.983 16.3213 95.9457 16.428 95.9457H17.228C17.3453 95.9457 17.436 95.983 17.5 96.0577C17.564 96.1217 17.596 96.207 17.596 96.3137V100.042C17.884 99.679 18.236 99.3857 18.652 99.1617C19.068 98.9377 19.596 98.8257 20.236 98.8257C20.9293 98.8257 21.516 98.9803 21.996 99.2897C22.4867 99.5883 22.8547 100.01 23.1 100.554C23.356 101.087 23.484 101.711 23.484 102.426V106.938C23.484 107.044 23.452 107.135 23.388 107.21C23.324 107.274 23.2333 107.306 23.116 107.306H22.316C22.2093 107.306 22.1187 107.274 22.044 107.21C21.98 107.135 21.948 107.044 21.948 106.938V102.506C21.948 101.759 21.7667 101.178 21.404 100.762C21.0413 100.335 20.508 100.122 19.804 100.122C19.1427 100.122 18.6093 100.335 18.204 100.762C17.7987 101.178 17.596 101.759 17.596 102.506V106.938C17.596 107.044 17.564 107.135 17.5 107.21C17.436 107.274 17.3453 107.306 17.228 107.306H16.428ZM25.858 107.306C25.7513 107.306 25.6607 107.274 25.586 107.21C25.522 107.135 25.49 107.044 25.49 106.938V96.3137C25.49 96.207 25.522 96.1217 25.586 96.0577C25.6607 95.983 25.7513 95.9457 25.858 95.9457H26.61C26.7273 95.9457 26.818 95.983 26.882 96.0577C26.946 96.1217 26.978 96.207 26.978 96.3137V106.938C26.978 107.044 26.946 107.135 26.882 107.21C26.818 107.274 26.7273 107.306 26.61 107.306H25.858ZM32.3566 107.466C31.258 107.466 30.3833 107.13 29.7326 106.458C29.082 105.775 28.7246 104.847 28.6606 103.674C28.65 103.535 28.6446 103.359 28.6446 103.146C28.6446 102.922 28.65 102.74 28.6606 102.602C28.7033 101.844 28.8793 101.183 29.1886 100.618C29.498 100.042 29.9193 99.599 30.4526 99.2897C30.9966 98.9803 31.6313 98.8257 32.3566 98.8257C33.1673 98.8257 33.8446 98.9963 34.3886 99.3377C34.9433 99.679 35.3646 100.164 35.6526 100.794C35.9406 101.423 36.0846 102.159 36.0846 103.002V103.274C36.0846 103.391 36.0473 103.482 35.9726 103.546C35.9086 103.61 35.8233 103.642 35.7166 103.642H30.1806C30.1806 103.652 30.1806 103.674 30.1806 103.706C30.1806 103.738 30.1806 103.764 30.1806 103.786C30.202 104.223 30.298 104.634 30.4686 105.018C30.6393 105.391 30.8846 105.695 31.2046 105.93C31.5246 106.164 31.9086 106.282 32.3566 106.282C32.7406 106.282 33.0606 106.223 33.3166 106.106C33.5726 105.988 33.7806 105.86 33.9406 105.722C34.1006 105.572 34.2073 105.46 34.2606 105.386C34.3566 105.247 34.4313 105.167 34.4846 105.146C34.538 105.114 34.6233 105.098 34.7406 105.098H35.5086C35.6153 105.098 35.7006 105.13 35.7646 105.194C35.8393 105.247 35.8713 105.327 35.8606 105.434C35.85 105.594 35.7646 105.791 35.6046 106.026C35.4446 106.25 35.2153 106.474 34.9166 106.698C34.618 106.922 34.2553 107.108 33.8286 107.258C33.402 107.396 32.9113 107.466 32.3566 107.466ZM30.1806 102.538H34.5646V102.49C34.5646 102.01 34.474 101.583 34.2926 101.21C34.122 100.836 33.8713 100.543 33.5406 100.33C33.21 100.106 32.8153 99.9937 32.3566 99.9937C31.898 99.9937 31.5033 100.106 31.1726 100.33C30.8526 100.543 30.6073 100.836 30.4366 101.21C30.266 101.583 30.1806 102.01 30.1806 102.49V102.538ZM40.8789 107.306C40.2815 107.306 39.7962 107.194 39.4229 106.97C39.0495 106.735 38.7775 106.41 38.6069 105.994C38.4362 105.567 38.3509 105.066 38.3509 104.49V100.266H37.1029C36.9962 100.266 36.9055 100.234 36.8309 100.17C36.7669 100.095 36.7349 100.004 36.7349 99.8977V99.3537C36.7349 99.247 36.7669 99.1617 36.8309 99.0977C36.9055 99.023 36.9962 98.9857 37.1029 98.9857H38.3509V96.3137C38.3509 96.207 38.3829 96.1217 38.4469 96.0577C38.5215 95.983 38.6122 95.9457 38.7189 95.9457H39.4709C39.5775 95.9457 39.6629 95.983 39.7269 96.0577C39.8015 96.1217 39.8389 96.207 39.8389 96.3137V98.9857H41.8229C41.9295 98.9857 42.0149 99.023 42.0789 99.0977C42.1535 99.1617 42.1909 99.247 42.1909 99.3537V99.8977C42.1909 100.004 42.1535 100.095 42.0789 100.17C42.0149 100.234 41.9295 100.266 41.8229 100.266H39.8389V104.378C39.8389 104.879 39.9242 105.274 40.0949 105.562C40.2655 105.85 40.5695 105.994 41.0069 105.994H41.9829C42.0895 105.994 42.1749 106.031 42.2389 106.106C42.3135 106.17 42.3509 106.255 42.3509 106.362V106.938C42.3509 107.044 42.3135 107.135 42.2389 107.21C42.1749 107.274 42.0895 107.306 41.9829 107.306H40.8789ZM43.9289 107.306C43.8222 107.306 43.7315 107.274 43.6569 107.21C43.5929 107.135 43.5609 107.044 43.5609 106.938V99.3537C43.5609 99.247 43.5929 99.1617 43.6569 99.0977C43.7315 99.023 43.8222 98.9857 43.9289 98.9857H44.6969C44.8035 98.9857 44.8889 99.023 44.9529 99.0977C45.0169 99.1617 45.0489 99.247 45.0489 99.3537V106.938C45.0489 107.044 45.0169 107.135 44.9529 107.21C44.8889 107.274 44.8035 107.306 44.6969 107.306H43.9289ZM43.8009 97.4337C43.6942 97.4337 43.6035 97.4017 43.5289 97.3377C43.4649 97.263 43.4329 97.1723 43.4329 97.0657V96.2017C43.4329 96.095 43.4649 96.0097 43.5289 95.9457C43.6035 95.871 43.6942 95.8337 43.8009 95.8337H44.8089C44.9155 95.8337 45.0009 95.871 45.0649 95.9457C45.1395 96.0097 45.1769 96.095 45.1769 96.2017V97.0657C45.1769 97.1723 45.1395 97.263 45.0649 97.3377C45.0009 97.4017 44.9155 97.4337 44.8089 97.4337H43.8009ZM50.4759 107.466C49.7185 107.466 49.0625 107.322 48.5079 107.034C47.9639 106.735 47.5425 106.314 47.2439 105.77C46.9452 105.215 46.7852 104.554 46.7639 103.786C46.7532 103.626 46.7479 103.412 46.7479 103.146C46.7479 102.879 46.7532 102.666 46.7639 102.506C46.7852 101.738 46.9452 101.082 47.2439 100.538C47.5425 99.983 47.9639 99.5617 48.5079 99.2737C49.0625 98.975 49.7185 98.8257 50.4759 98.8257C51.0945 98.8257 51.6225 98.911 52.0599 99.0817C52.5079 99.2523 52.8759 99.471 53.1639 99.7377C53.4519 100.004 53.6652 100.292 53.8039 100.602C53.9532 100.911 54.0332 101.204 54.0439 101.482C54.0545 101.588 54.0225 101.674 53.9479 101.738C53.8732 101.802 53.7825 101.834 53.6759 101.834H52.9079C52.8012 101.834 52.7212 101.812 52.6679 101.77C52.6145 101.716 52.5612 101.631 52.5079 101.514C52.3159 100.991 52.0545 100.623 51.7239 100.41C51.3932 100.196 50.9825 100.09 50.4919 100.09C49.8519 100.09 49.3292 100.287 48.9239 100.682C48.5292 101.076 48.3159 101.711 48.2839 102.586C48.2732 102.97 48.2732 103.343 48.2839 103.706C48.3159 104.591 48.5292 105.231 48.9239 105.626C49.3292 106.01 49.8519 106.202 50.4919 106.202C50.9825 106.202 51.3932 106.095 51.7239 105.882C52.0545 105.668 52.3159 105.3 52.5079 104.778C52.5612 104.66 52.6145 104.58 52.6679 104.538C52.7212 104.484 52.8012 104.458 52.9079 104.458H53.6759C53.7825 104.458 53.8732 104.49 53.9479 104.554C54.0225 104.618 54.0545 104.703 54.0439 104.81C54.0332 105.034 53.9852 105.263 53.8999 105.498C53.8145 105.732 53.6759 105.972 53.4839 106.218C53.3025 106.452 53.0732 106.666 52.7959 106.858C52.5185 107.039 52.1825 107.188 51.7879 107.306C51.4039 107.412 50.9665 107.466 50.4759 107.466ZM55.992 107.306C55.8853 107.306 55.7947 107.274 55.72 107.21C55.656 107.135 55.624 107.044 55.624 106.938V99.3537C55.624 99.247 55.656 99.1617 55.72 99.0977C55.7947 99.023 55.8853 98.9857 55.992 98.9857H56.76C56.8667 98.9857 56.952 99.023 57.016 99.0977C57.08 99.1617 57.112 99.247 57.112 99.3537V106.938C57.112 107.044 57.08 107.135 57.016 107.21C56.952 107.274 56.8667 107.306 56.76 107.306H55.992ZM55.864 97.4337C55.7573 97.4337 55.6667 97.4017 55.592 97.3377C55.528 97.263 55.496 97.1723 55.496 97.0657V96.2017C55.496 96.095 55.528 96.0097 55.592 95.9457C55.6667 95.871 55.7573 95.8337 55.864 95.8337H56.872C56.9787 95.8337 57.064 95.871 57.128 95.9457C57.2027 96.0097 57.24 96.095 57.24 96.2017V97.0657C57.24 97.1723 57.2027 97.263 57.128 97.3377C57.064 97.4017 56.9787 97.4337 56.872 97.4337H55.864ZM62.059 107.466C61.4617 107.466 60.9497 107.391 60.523 107.242C60.0963 107.092 59.7497 106.911 59.483 106.698C59.2163 106.484 59.0137 106.271 58.875 106.058C58.747 105.844 58.6777 105.674 58.667 105.546C58.6563 105.428 58.6937 105.338 58.779 105.274C58.8643 105.21 58.9497 105.178 59.035 105.178H59.739C59.803 105.178 59.851 105.188 59.883 105.21C59.9257 105.22 59.979 105.263 60.043 105.338C60.1817 105.487 60.3363 105.636 60.507 105.786C60.6777 105.935 60.8857 106.058 61.131 106.154C61.387 106.25 61.7017 106.298 62.075 106.298C62.619 106.298 63.067 106.196 63.419 105.994C63.771 105.78 63.947 105.471 63.947 105.066C63.947 104.799 63.8723 104.586 63.723 104.426C63.5843 104.266 63.3283 104.122 62.955 103.994C62.5923 103.866 62.091 103.732 61.451 103.594C60.811 103.444 60.3043 103.263 59.931 103.05C59.5577 102.826 59.291 102.564 59.131 102.266C58.971 101.956 58.891 101.61 58.891 101.226C58.891 100.831 59.0083 100.452 59.243 100.09C59.4777 99.7163 59.819 99.4123 60.267 99.1777C60.7257 98.943 61.2963 98.8257 61.979 98.8257C62.5337 98.8257 63.0083 98.895 63.403 99.0337C63.7977 99.1723 64.123 99.3483 64.379 99.5617C64.635 99.7643 64.827 99.967 64.955 100.17C65.083 100.372 65.1523 100.543 65.163 100.682C65.1737 100.788 65.1417 100.879 65.067 100.954C64.9923 101.018 64.907 101.05 64.811 101.05H64.139C64.0643 101.05 64.0003 101.034 63.947 101.002C63.9043 100.97 63.8617 100.932 63.819 100.89C63.7123 100.751 63.5843 100.612 63.435 100.474C63.2963 100.335 63.1097 100.223 62.875 100.138C62.651 100.042 62.3523 99.9937 61.979 99.9937C61.4457 99.9937 61.0457 100.106 60.779 100.33C60.5123 100.554 60.379 100.836 60.379 101.178C60.379 101.38 60.4377 101.562 60.555 101.722C60.6723 101.882 60.8963 102.026 61.227 102.154C61.5577 102.282 62.0483 102.42 62.699 102.57C63.403 102.708 63.9577 102.895 64.363 103.13C64.7683 103.364 65.0563 103.636 65.227 103.946C65.3977 104.255 65.483 104.612 65.483 105.018C65.483 105.466 65.3497 105.876 65.083 106.25C64.827 106.623 64.443 106.922 63.931 107.146C63.4297 107.359 62.8057 107.466 62.059 107.466ZM67.3833 107.306C67.2766 107.306 67.1859 107.274 67.1113 107.21C67.0473 107.135 67.0153 107.044 67.0153 106.938V99.3537C67.0153 99.247 67.0473 99.1617 67.1113 99.0977C67.1859 99.023 67.2766 98.9857 67.3833 98.9857H68.1033C68.2099 98.9857 68.2953 99.023 68.3593 99.0977C68.4339 99.1617 68.4713 99.247 68.4713 99.3537V99.9137C68.7166 99.583 69.0259 99.3217 69.3993 99.1297C69.7726 98.927 70.2206 98.8257 70.7433 98.8257C71.9486 98.815 72.8019 99.3057 73.3033 100.298C73.5486 99.8497 73.9059 99.4923 74.3753 99.2257C74.8446 98.959 75.3779 98.8257 75.9753 98.8257C76.5299 98.8257 77.0313 98.9537 77.4793 99.2097C77.9379 99.4657 78.2953 99.855 78.5513 100.378C78.8179 100.89 78.9513 101.535 78.9513 102.314V106.938C78.9513 107.044 78.9139 107.135 78.8393 107.21C78.7753 107.274 78.6899 107.306 78.5833 107.306H77.8313C77.7246 107.306 77.6339 107.274 77.5593 107.21C77.4953 107.135 77.4633 107.044 77.4633 106.938V102.458C77.4633 101.86 77.3779 101.391 77.2073 101.05C77.0366 100.708 76.8073 100.468 76.5193 100.33C76.2313 100.191 75.9166 100.122 75.5753 100.122C75.2979 100.122 75.0153 100.191 74.7273 100.33C74.4393 100.468 74.1993 100.708 74.0073 101.05C73.8259 101.391 73.7353 101.86 73.7353 102.458V106.938C73.7353 107.044 73.6979 107.135 73.6233 107.21C73.5593 107.274 73.4739 107.306 73.3673 107.306H72.6153C72.5086 107.306 72.4179 107.274 72.3433 107.21C72.2793 107.135 72.2473 107.044 72.2473 106.938V102.458C72.2473 101.86 72.1566 101.391 71.9753 101.05C71.7939 100.708 71.5593 100.468 71.2713 100.33C70.9833 100.191 70.6793 100.122 70.3593 100.122C70.0819 100.122 69.7993 100.191 69.5113 100.33C69.2233 100.468 68.9833 100.708 68.7913 101.05C68.6099 101.391 68.5193 101.855 68.5193 102.442V106.938C68.5193 107.044 68.4819 107.135 68.4073 107.21C68.3433 107.274 68.2579 107.306 68.1513 107.306H67.3833Z"
     fill="#36342C"
     id="path3" />
</svg>
