<?xml version="1.0" encoding="UTF-8" standalone="no"?>
<svg
   width="160"
   height="89"
   viewBox="0 0 160 89"
   fill="none"
   version="1.1"
   id="svg3">
  <defs
     id="defs3" />
  <path
     d="M1.82 16.3057C1.732 16.3057 1.664 16.2817 1.616 16.2337C1.568 16.1777 1.544 16.1097 1.544 16.0297V8.18166C1.544 8.10166 1.568 8.03766 1.616 7.98966C1.664 7.93366 1.732 7.90566 1.82 7.90566H2.456C2.536 7.90566 2.6 7.93366 2.648 7.98966C2.696 8.03766 2.72 8.10166 2.72 8.18166V15.2617H6.716C6.804 15.2617 6.872 15.2897 6.92 15.3457C6.968 15.3937 6.992 15.4617 6.992 15.5497V16.0297C6.992 16.1097 6.968 16.1777 6.92 16.2337C6.872 16.2817 6.804 16.3057 6.716 16.3057H1.82ZM10.3848 16.4257C9.56081 16.4257 8.90481 16.1737 8.41681 15.6697C7.92881 15.1577 7.66081 14.4617 7.61281 13.5817C7.60481 13.4777 7.60081 13.3457 7.60081 13.1857C7.60081 13.0177 7.60481 12.8817 7.61281 12.7777C7.64481 12.2097 7.77681 11.7137 8.00881 11.2897C8.24081 10.8577 8.55681 10.5257 8.95681 10.2937C9.36481 10.0617 9.84081 9.94566 10.3848 9.94566C10.9928 9.94566 11.5008 10.0737 11.9088 10.3297C12.3248 10.5857 12.6408 10.9497 12.8568 11.4217C13.0728 11.8937 13.1808 12.4457 13.1808 13.0777V13.2817C13.1808 13.3697 13.1528 13.4377 13.0968 13.4857C13.0488 13.5337 12.9848 13.5577 12.9048 13.5577H8.75281C8.75281 13.5657 8.75281 13.5817 8.75281 13.6057C8.75281 13.6297 8.75281 13.6497 8.75281 13.6657C8.76881 13.9937 8.84081 14.3017 8.96881 14.5897C9.09681 14.8697 9.28081 15.0977 9.52081 15.2737C9.76081 15.4497 10.0488 15.5377 10.3848 15.5377C10.6728 15.5377 10.9128 15.4937 11.1048 15.4057C11.2968 15.3177 11.4528 15.2217 11.5728 15.1177C11.6928 15.0057 11.7728 14.9217 11.8128 14.8657C11.8848 14.7617 11.9408 14.7017 11.9808 14.6857C12.0208 14.6617 12.0848 14.6497 12.1728 14.6497H12.7488C12.8288 14.6497 12.8928 14.6737 12.9408 14.7217C12.9968 14.7617 13.0208 14.8217 13.0128 14.9017C13.0048 15.0217 12.9408 15.1697 12.8208 15.3457C12.7008 15.5137 12.5288 15.6817 12.3048 15.8497C12.0808 16.0177 11.8088 16.1577 11.4888 16.2697C11.1688 16.3737 10.8008 16.4257 10.3848 16.4257ZM8.75281 12.7297H12.0408V12.6937C12.0408 12.3337 11.9728 12.0137 11.8368 11.7337C11.7088 11.4537 11.5208 11.2337 11.2728 11.0737C11.0248 10.9057 10.7288 10.8217 10.3848 10.8217C10.0408 10.8217 9.74481 10.9057 9.49681 11.0737C9.25681 11.2337 9.07281 11.4537 8.94481 11.7337C8.81681 12.0137 8.75281 12.3337 8.75281 12.6937V12.7297ZM16.4567 16.3057C16.3367 16.3057 16.2407 16.2777 16.1687 16.2217C16.1047 16.1657 16.0527 16.0937 16.0127 16.0057L13.7927 10.4377C13.7767 10.3977 13.7687 10.3577 13.7687 10.3177C13.7687 10.2457 13.7927 10.1857 13.8407 10.1377C13.8887 10.0897 13.9487 10.0657 14.0207 10.0657H14.5967C14.6847 10.0657 14.7527 10.0897 14.8007 10.1377C14.8487 10.1857 14.8767 10.2297 14.8847 10.2697L16.7207 14.9977L18.5447 10.2697C18.5607 10.2297 18.5887 10.1857 18.6287 10.1377C18.6767 10.0897 18.7447 10.0657 18.8327 10.0657H19.4207C19.4847 10.0657 19.5407 10.0897 19.5887 10.1377C19.6447 10.1857 19.6727 10.2457 19.6727 10.3177C19.6727 10.3577 19.6647 10.3977 19.6487 10.4377L17.4167 16.0057C17.3847 16.0937 17.3327 16.1657 17.2607 16.2217C17.1967 16.2777 17.1007 16.3057 16.9727 16.3057H16.4567ZM23.0706 16.4257C22.2466 16.4257 21.5906 16.1737 21.1026 15.6697C20.6146 15.1577 20.3466 14.4617 20.2986 13.5817C20.2906 13.4777 20.2866 13.3457 20.2866 13.1857C20.2866 13.0177 20.2906 12.8817 20.2986 12.7777C20.3306 12.2097 20.4626 11.7137 20.6946 11.2897C20.9266 10.8577 21.2426 10.5257 21.6426 10.2937C22.0506 10.0617 22.5266 9.94566 23.0706 9.94566C23.6786 9.94566 24.1866 10.0737 24.5946 10.3297C25.0106 10.5857 25.3266 10.9497 25.5426 11.4217C25.7586 11.8937 25.8666 12.4457 25.8666 13.0777V13.2817C25.8666 13.3697 25.8386 13.4377 25.7826 13.4857C25.7346 13.5337 25.6706 13.5577 25.5906 13.5577H21.4386C21.4386 13.5657 21.4386 13.5817 21.4386 13.6057C21.4386 13.6297 21.4386 13.6497 21.4386 13.6657C21.4546 13.9937 21.5266 14.3017 21.6546 14.5897C21.7826 14.8697 21.9666 15.0977 22.2066 15.2737C22.4466 15.4497 22.7346 15.5377 23.0706 15.5377C23.3586 15.5377 23.5986 15.4937 23.7906 15.4057C23.9826 15.3177 24.1386 15.2217 24.2586 15.1177C24.3786 15.0057 24.4586 14.9217 24.4986 14.8657C24.5706 14.7617 24.6266 14.7017 24.6666 14.6857C24.7066 14.6617 24.7706 14.6497 24.8586 14.6497H25.4346C25.5146 14.6497 25.5786 14.6737 25.6266 14.7217C25.6826 14.7617 25.7066 14.8217 25.6986 14.9017C25.6906 15.0217 25.6266 15.1697 25.5066 15.3457C25.3866 15.5137 25.2146 15.6817 24.9906 15.8497C24.7666 16.0177 24.4946 16.1577 24.1746 16.2697C23.8546 16.3737 23.4866 16.4257 23.0706 16.4257ZM21.4386 12.7297H24.7266V12.6937C24.7266 12.3337 24.6586 12.0137 24.5226 11.7337C24.3946 11.4537 24.2066 11.2337 23.9586 11.0737C23.7106 10.9057 23.4146 10.8217 23.0706 10.8217C22.7266 10.8217 22.4306 10.9057 22.1826 11.0737C21.9426 11.2337 21.7586 11.4537 21.6306 11.7337C21.5026 12.0137 21.4386 12.3337 21.4386 12.6937V12.7297ZM27.4694 16.3057C27.3894 16.3057 27.3214 16.2817 27.2654 16.2337C27.2174 16.1777 27.1934 16.1097 27.1934 16.0297V8.06166C27.1934 7.98166 27.2174 7.91766 27.2654 7.86966C27.3214 7.81366 27.3894 7.78566 27.4694 7.78566H28.0334C28.1214 7.78566 28.1894 7.81366 28.2374 7.86966C28.2854 7.91766 28.3094 7.98166 28.3094 8.06166V16.0297C28.3094 16.1097 28.2854 16.1777 28.2374 16.2337C28.1894 16.2817 28.1214 16.3057 28.0334 16.3057H27.4694ZM35.7168 16.4257C35.1648 16.4257 34.6968 16.3417 34.3128 16.1737C33.9368 15.9977 33.6288 15.7577 33.3888 15.4537C33.1488 15.1497 32.9728 14.8017 32.8608 14.4097C32.7568 14.0177 32.6968 13.6017 32.6808 13.1617C32.6728 12.9457 32.6648 12.7177 32.6568 12.4777C32.6568 12.2377 32.6568 11.9977 32.6568 11.7577C32.6648 11.5097 32.6728 11.2737 32.6808 11.0497C32.6888 10.6097 32.7488 10.1937 32.8608 9.80166C32.9808 9.40166 33.1568 9.05366 33.3888 8.75766C33.6288 8.45366 33.9408 8.21766 34.3248 8.04966C34.7088 7.87366 35.1728 7.78566 35.7168 7.78566C36.2688 7.78566 36.7328 7.87366 37.1088 8.04966C37.4928 8.21766 37.8048 8.45366 38.0448 8.75766C38.2848 9.05366 38.4608 9.40166 38.5728 9.80166C38.6928 10.1937 38.7568 10.6097 38.7648 11.0497C38.7728 11.2737 38.7768 11.5097 38.7768 11.7577C38.7848 11.9977 38.7848 12.2377 38.7768 12.4777C38.7768 12.7177 38.7728 12.9457 38.7648 13.1617C38.7568 13.6017 38.6928 14.0177 38.5728 14.4097C38.4608 14.8017 38.2848 15.1497 38.0448 15.4537C37.8128 15.7577 37.5048 15.9977 37.1208 16.1737C36.7448 16.3417 36.2768 16.4257 35.7168 16.4257ZM35.7168 15.4057C36.3408 15.4057 36.8008 15.2017 37.0968 14.7937C37.4008 14.3777 37.5568 13.8137 37.5648 13.1017C37.5808 12.8697 37.5888 12.6457 37.5888 12.4297C37.5888 12.2057 37.5888 11.9857 37.5888 11.7697C37.5888 11.5457 37.5808 11.3257 37.5648 11.1097C37.5568 10.4137 37.4008 9.85766 37.0968 9.44166C36.8008 9.01766 36.3408 8.80566 35.7168 8.80566C35.1008 8.80566 34.6408 9.01766 34.3368 9.44166C34.0408 9.85766 33.8848 10.4137 33.8688 11.1097C33.8688 11.3257 33.8648 11.5457 33.8568 11.7697C33.8568 11.9857 33.8568 12.2057 33.8568 12.4297C33.8648 12.6457 33.8688 12.8697 33.8688 13.1017C33.8848 13.8137 34.0448 14.3777 34.3488 14.7937C34.6528 15.2017 35.1088 15.4057 35.7168 15.4057ZM40.274 16.3057C40.194 16.3057 40.126 16.2817 40.07 16.2337C40.022 16.1777 39.998 16.1097 39.998 16.0297V15.6457C39.998 15.5737 40.018 15.4937 40.058 15.4057C40.098 15.3177 40.178 15.2217 40.298 15.1177L42.842 12.5737C43.25 12.2297 43.57 11.9377 43.802 11.6977C44.042 11.4497 44.21 11.2137 44.306 10.9897C44.41 10.7657 44.462 10.5337 44.462 10.2937C44.462 9.83766 44.334 9.47766 44.078 9.21366C43.822 8.94166 43.442 8.80566 42.938 8.80566C42.618 8.80566 42.342 8.87366 42.11 9.00966C41.878 9.13766 41.694 9.31766 41.558 9.54966C41.43 9.77366 41.346 10.0297 41.306 10.3177C41.29 10.4217 41.246 10.4937 41.174 10.5337C41.11 10.5737 41.05 10.5937 40.994 10.5937H40.37C40.298 10.5937 40.238 10.5737 40.19 10.5337C40.142 10.4857 40.118 10.4297 40.118 10.3657C40.126 10.0617 40.19 9.75766 40.31 9.45366C40.43 9.14166 40.606 8.86166 40.838 8.61366C41.078 8.36566 41.37 8.16566 41.714 8.01366C42.066 7.85366 42.474 7.77366 42.938 7.77366C43.57 7.77366 44.086 7.88966 44.486 8.12166C44.894 8.34566 45.194 8.64566 45.386 9.02166C45.578 9.39766 45.674 9.80966 45.674 10.2577C45.674 10.6097 45.614 10.9337 45.494 11.2297C45.374 11.5177 45.198 11.8017 44.966 12.0817C44.742 12.3537 44.462 12.6337 44.126 12.9217L41.822 15.2617H45.566C45.654 15.2617 45.722 15.2857 45.77 15.3337C45.826 15.3817 45.854 15.4497 45.854 15.5377V16.0297C45.854 16.1097 45.826 16.1777 45.77 16.2337C45.722 16.2817 45.654 16.3057 45.566 16.3057H40.274Z"
     fill="#88836D"
     id="path1" />
  <path
     d="M2.876 40.3057C2.7 40.3057 2.556 40.2497 2.444 40.1377C2.332 40.0257 2.276 39.8817 2.276 39.7057V24.1057C2.276 23.9297 2.332 23.7857 2.444 23.6737C2.556 23.5617 2.7 23.5057 2.876 23.5057H13.748C13.924 23.5057 14.068 23.5617 14.18 23.6737C14.292 23.7857 14.348 23.9297 14.348 24.1057V26.0257C14.348 26.1857 14.292 26.3217 14.18 26.4337C14.068 26.5457 13.924 26.6017 13.748 26.6017H5.972V30.3697H13.22C13.396 30.3697 13.54 30.4257 13.652 30.5377C13.764 30.6497 13.82 30.7937 13.82 30.9697V32.7457C13.82 32.9057 13.764 33.0417 13.652 33.1537C13.54 33.2657 13.396 33.3217 13.22 33.3217H5.972V37.2097H13.94C14.116 37.2097 14.26 37.2657 14.372 37.3777C14.484 37.4897 14.54 37.6337 14.54 37.8097V39.7057C14.54 39.8817 14.484 40.0257 14.372 40.1377C14.26 40.2497 14.116 40.3057 13.94 40.3057H2.876ZM20.0812 40.5457C19.2332 40.5457 18.4732 40.3857 17.8012 40.0657C17.1292 39.7297 16.5932 39.2817 16.1932 38.7217C15.7932 38.1617 15.5932 37.5377 15.5932 36.8497C15.5932 35.7137 16.0492 34.8177 16.9612 34.1617C17.8892 33.5057 19.1052 33.0577 20.6092 32.8177L23.7532 32.3617V31.9297C23.7532 31.3057 23.6092 30.8257 23.3212 30.4897C23.0332 30.1537 22.5292 29.9857 21.8092 29.9857C21.2812 29.9857 20.8572 30.0897 20.5372 30.2977C20.2172 30.5057 19.9692 30.7777 19.7932 31.1137C19.6652 31.3217 19.4812 31.4257 19.2412 31.4257H16.9612C16.7852 31.4257 16.6492 31.3777 16.5532 31.2817C16.4572 31.1697 16.4172 31.0417 16.4332 30.8977C16.4332 30.6257 16.5372 30.3057 16.7452 29.9377C16.9532 29.5697 17.2732 29.2097 17.7052 28.8577C18.1372 28.4897 18.6892 28.1857 19.3612 27.9457C20.0332 27.7057 20.8572 27.5857 21.8332 27.5857C22.8412 27.5857 23.7052 27.7057 24.4252 27.9457C25.1452 28.1857 25.7212 28.5217 26.1532 28.9537C26.5852 29.3857 26.9052 29.8897 27.1132 30.4657C27.3212 31.0257 27.4252 31.6337 27.4252 32.2897V39.7057C27.4252 39.8817 27.3692 40.0257 27.2572 40.1377C27.1452 40.2497 27.0012 40.3057 26.8252 40.3057H24.4732C24.3132 40.3057 24.1772 40.2497 24.0652 40.1377C23.9532 40.0257 23.8972 39.8817 23.8972 39.7057V38.8177C23.6892 39.1217 23.4092 39.4097 23.0572 39.6817C22.7052 39.9377 22.2812 40.1457 21.7852 40.3057C21.3052 40.4657 20.7372 40.5457 20.0812 40.5457ZM21.0412 38.0497C21.5692 38.0497 22.0412 37.9377 22.4572 37.7137C22.8732 37.4897 23.2012 37.1457 23.4412 36.6817C23.6812 36.2177 23.8012 35.6337 23.8012 34.9297V34.5217L21.5692 34.8817C20.7052 35.0257 20.0732 35.2417 19.6732 35.5297C19.2732 35.8177 19.0732 36.1697 19.0732 36.5857C19.0732 36.8897 19.1612 37.1537 19.3372 37.3777C19.5292 37.6017 19.7772 37.7697 20.0812 37.8817C20.3852 37.9937 20.7052 38.0497 21.0412 38.0497ZM34.5311 40.5457C33.5391 40.5457 32.6831 40.4337 31.9631 40.2097C31.2591 39.9697 30.6831 39.6817 30.2351 39.3457C29.8031 39.0097 29.4751 38.6737 29.2511 38.3377C29.0431 37.9857 28.9311 37.6897 28.9151 37.4497C28.8991 37.2737 28.9551 37.1297 29.0831 37.0177C29.2111 36.9057 29.3391 36.8497 29.4671 36.8497H31.7951C31.8431 36.8497 31.8911 36.8577 31.9391 36.8737C31.9871 36.8897 32.0351 36.9297 32.0831 36.9937C32.2911 37.1377 32.5071 37.3057 32.7311 37.4977C32.9551 37.6737 33.2111 37.8257 33.4991 37.9537C33.8031 38.0817 34.1791 38.1457 34.6271 38.1457C35.1551 38.1457 35.6031 38.0417 35.9711 37.8337C36.3391 37.6097 36.5231 37.2977 36.5231 36.8977C36.5231 36.6097 36.4351 36.3697 36.2591 36.1777C36.0991 35.9857 35.7871 35.8097 35.3231 35.6497C34.8591 35.4897 34.1711 35.3137 33.2591 35.1217C32.3951 34.9297 31.6591 34.6737 31.0511 34.3537C30.4431 34.0337 29.9871 33.6337 29.6831 33.1537C29.3791 32.6577 29.2271 32.0657 29.2271 31.3777C29.2271 30.7537 29.4191 30.1537 29.8031 29.5777C30.2031 29.0017 30.7871 28.5297 31.5551 28.1617C32.3231 27.7777 33.2831 27.5857 34.4351 27.5857C35.3151 27.5857 36.0831 27.6977 36.7391 27.9217C37.4111 28.1297 37.9711 28.4017 38.4191 28.7377C38.8671 29.0577 39.2031 29.3937 39.4271 29.7457C39.6671 30.0817 39.7951 30.3777 39.8111 30.6337C39.8271 30.7937 39.7791 30.9297 39.6671 31.0417C39.5551 31.1537 39.4271 31.2097 39.2831 31.2097H37.1471C37.0671 31.2097 36.9951 31.2017 36.9311 31.1857C36.8671 31.1537 36.8111 31.1137 36.7631 31.0657C36.5711 30.9377 36.3711 30.7937 36.1631 30.6337C35.9711 30.4577 35.7391 30.3057 35.4671 30.1777C35.1951 30.0497 34.8431 29.9857 34.4111 29.9857C33.8831 29.9857 33.4751 30.1057 33.1871 30.3457C32.9151 30.5697 32.7791 30.8577 32.7791 31.2097C32.7791 31.4337 32.8511 31.6417 32.9951 31.8337C33.1391 32.0257 33.4351 32.2017 33.8831 32.3617C34.3311 32.5217 35.0111 32.6897 35.9231 32.8657C37.0111 33.0577 37.8751 33.3457 38.5151 33.7297C39.1551 34.1137 39.6111 34.5617 39.8831 35.0737C40.1711 35.5697 40.3151 36.1057 40.3151 36.6817C40.3151 37.4337 40.0911 38.1057 39.6431 38.6977C39.1951 39.2737 38.5391 39.7297 37.6751 40.0657C36.8271 40.3857 35.7791 40.5457 34.5311 40.5457ZM43.6867 44.8657C43.5587 44.8657 43.4387 44.8177 43.3267 44.7217C43.2307 44.6257 43.1827 44.5057 43.1827 44.3617C43.1827 44.3297 43.1907 44.2817 43.2067 44.2177C43.2227 44.1697 43.2467 44.1057 43.2787 44.0257L45.1507 39.5377L40.5427 28.6657C40.4947 28.5377 40.4707 28.4337 40.4707 28.3537C40.4867 28.2097 40.5427 28.0897 40.6387 27.9937C40.7347 27.8817 40.8547 27.8257 40.9987 27.8257H43.3267C43.5347 27.8257 43.6867 27.8817 43.7827 27.9937C43.8787 28.0897 43.9507 28.1937 43.9987 28.3057L46.9747 35.7457L50.0227 28.3057C50.0867 28.1777 50.1667 28.0657 50.2627 27.9697C50.3587 27.8737 50.5107 27.8257 50.7187 27.8257H52.9987C53.1427 27.8257 53.2627 27.8817 53.3587 27.9937C53.4707 28.0897 53.5267 28.2017 53.5267 28.3297C53.5267 28.4097 53.4947 28.5217 53.4307 28.6657L46.6387 44.3857C46.5907 44.5137 46.5107 44.6257 46.3987 44.7217C46.3027 44.8177 46.1507 44.8657 45.9427 44.8657H43.6867ZM60.1599 45.5857C58.9759 45.5857 57.9919 45.4257 57.2079 45.1057C56.4239 44.8017 55.7999 44.4257 55.3359 43.9777C54.8879 43.5457 54.5679 43.1137 54.3759 42.6817C54.1839 42.2497 54.0799 41.9137 54.0639 41.6737C54.0479 41.4977 54.1039 41.3537 54.2319 41.2417C54.3599 41.1297 54.5039 41.0737 54.6639 41.0737H57.2319C57.3759 41.0737 57.4959 41.1057 57.5919 41.1697C57.7039 41.2497 57.7919 41.3777 57.8559 41.5537C57.9359 41.7457 58.0479 41.9457 58.1919 42.1537C58.3359 42.3777 58.5519 42.5617 58.8399 42.7057C59.1439 42.8497 59.5439 42.9217 60.0399 42.9217C60.5999 42.9217 61.0639 42.8417 61.4319 42.6817C61.7999 42.5217 62.0719 42.2497 62.2479 41.8657C62.4399 41.4817 62.5359 40.9617 62.5359 40.3057V38.6977C62.1519 39.1137 61.6639 39.4577 61.0719 39.7297C60.4959 40.0017 59.7839 40.1377 58.9359 40.1377C58.1039 40.1377 57.3679 40.0097 56.7279 39.7537C56.1039 39.4817 55.5839 39.1057 55.1679 38.6257C54.7519 38.1297 54.4319 37.5377 54.2079 36.8497C53.9839 36.1617 53.8559 35.3857 53.8239 34.5217C53.8079 34.0897 53.8079 33.6657 53.8239 33.2497C53.8559 32.4177 53.9839 31.6577 54.2079 30.9697C54.4319 30.2817 54.7519 29.6897 55.1679 29.1937C55.5839 28.6817 56.1039 28.2897 56.7279 28.0177C57.3679 27.7297 58.1039 27.5857 58.9359 27.5857C59.8159 27.5857 60.5679 27.7537 61.1919 28.0897C61.8159 28.4257 62.3279 28.8417 62.7279 29.3377V28.4257C62.7279 28.2657 62.7839 28.1297 62.8959 28.0177C63.0079 27.8897 63.1439 27.8257 63.3039 27.8257H65.6559C65.8159 27.8257 65.9519 27.8897 66.0639 28.0177C66.1919 28.1297 66.2559 28.2657 66.2559 28.4257L66.2799 39.9697C66.2799 41.1697 66.0479 42.1857 65.5839 43.0177C65.1199 43.8497 64.4319 44.4817 63.5199 44.9137C62.6239 45.3617 61.5039 45.5857 60.1599 45.5857ZM60.0399 37.3297C60.6159 37.3297 61.0799 37.2017 61.4319 36.9457C61.7999 36.6737 62.0719 36.3377 62.2479 35.9377C62.4239 35.5217 62.5199 35.0897 62.5359 34.6417C62.5519 34.4657 62.5599 34.2177 62.5599 33.8977C62.5599 33.5617 62.5519 33.3057 62.5359 33.1297C62.5199 32.6817 62.4239 32.2577 62.2479 31.8577C62.0719 31.4417 61.7999 31.1057 61.4319 30.8497C61.0799 30.5937 60.6159 30.4657 60.0399 30.4657C59.4319 30.4657 58.9519 30.6017 58.5999 30.8737C58.2479 31.1297 57.9919 31.4737 57.8319 31.9057C57.6719 32.3377 57.5759 32.8097 57.5439 33.3217C57.5279 33.7057 57.5279 34.0817 57.5439 34.4497C57.5759 34.9777 57.6719 35.4577 57.8319 35.8897C57.9919 36.3217 58.2479 36.6737 58.5999 36.9457C58.9519 37.2017 59.4319 37.3297 60.0399 37.3297ZM74.2959 40.5457C72.9679 40.5457 71.8559 40.3297 70.9599 39.8977C70.0639 39.4497 69.3759 38.8177 68.8959 38.0017C68.4319 37.1857 68.1759 36.2337 68.1279 35.1457C68.1119 34.8257 68.1039 34.4657 68.1039 34.0657C68.1039 33.6497 68.1119 33.2897 68.1279 32.9857C68.1759 31.8817 68.4479 30.9297 68.9439 30.1297C69.4399 29.3137 70.1359 28.6897 71.0319 28.2577C71.9279 27.8097 73.0159 27.5857 74.2959 27.5857C75.5599 27.5857 76.6399 27.8097 77.5359 28.2577C78.4319 28.6897 79.1279 29.3137 79.6239 30.1297C80.1199 30.9297 80.3919 31.8817 80.4399 32.9857C80.4719 33.2897 80.4879 33.6497 80.4879 34.0657C80.4879 34.4657 80.4719 34.8257 80.4399 35.1457C80.3919 36.2337 80.1279 37.1857 79.6479 38.0017C79.1839 38.8177 78.5039 39.4497 77.6079 39.8977C76.7119 40.3297 75.6079 40.5457 74.2959 40.5457ZM74.2959 37.9057C75.0799 37.9057 75.6719 37.6657 76.0719 37.1857C76.4719 36.6897 76.6879 35.9697 76.7199 35.0257C76.7359 34.7857 76.7439 34.4657 76.7439 34.0657C76.7439 33.6657 76.7359 33.3457 76.7199 33.1057C76.6879 32.1777 76.4719 31.4657 76.0719 30.9697C75.6719 30.4737 75.0799 30.2257 74.2959 30.2257C73.5119 30.2257 72.9119 30.4737 72.4959 30.9697C72.0959 31.4657 71.8799 32.1777 71.8479 33.1057C71.8319 33.3457 71.8239 33.6657 71.8239 34.0657C71.8239 34.4657 71.8319 34.7857 71.8479 35.0257C71.8799 35.9697 72.0959 36.6897 72.4959 37.1857C72.9119 37.6657 73.5119 37.9057 74.2959 37.9057ZM82.8539 40.3057C82.6939 40.3057 82.5579 40.2497 82.4459 40.1377C82.3339 40.0257 82.2779 39.8817 82.2779 39.7057V28.4257C82.2779 28.2497 82.3339 28.1057 82.4459 27.9937C82.5579 27.8817 82.6939 27.8257 82.8539 27.8257H85.2539C85.4299 27.8257 85.5739 27.8817 85.6859 27.9937C85.7979 28.1057 85.8539 28.2497 85.8539 28.4257V39.7057C85.8539 39.8817 85.7979 40.0257 85.6859 40.1377C85.5739 40.2497 85.4299 40.3057 85.2539 40.3057H82.8539ZM82.7819 25.9057C82.6219 25.9057 82.4859 25.8497 82.3739 25.7377C82.2619 25.6257 82.2059 25.4817 82.2059 25.3057V23.3857C82.2059 23.2097 82.2619 23.0657 82.3739 22.9537C82.4859 22.8257 82.6219 22.7617 82.7819 22.7617H85.3019C85.4779 22.7617 85.6219 22.8257 85.7339 22.9537C85.8619 23.0657 85.9259 23.2097 85.9259 23.3857V25.3057C85.9259 25.4817 85.8619 25.6257 85.7339 25.7377C85.6219 25.8497 85.4779 25.9057 85.3019 25.9057H82.7819ZM88.7199 40.3057C88.5599 40.3057 88.4239 40.2497 88.3119 40.1377C88.1999 40.0257 88.1439 39.8817 88.1439 39.7057V28.4257C88.1439 28.2497 88.1999 28.1057 88.3119 27.9937C88.4239 27.8817 88.5599 27.8257 88.7199 27.8257H91.0719C91.2479 27.8257 91.3919 27.8817 91.5039 27.9937C91.6159 28.1057 91.6719 28.2497 91.6719 28.4257V29.3617C92.0879 28.8497 92.6239 28.4257 93.2799 28.0897C93.9359 27.7537 94.7359 27.5857 95.6799 27.5857C96.6239 27.5857 97.4479 27.8017 98.1519 28.2337C98.8719 28.6497 99.4319 29.2657 99.8319 30.0817C100.248 30.8817 100.456 31.8577 100.456 33.0097V39.7057C100.456 39.8817 100.392 40.0257 100.264 40.1377C100.152 40.2497 100.016 40.3057 99.8559 40.3057H97.3119C97.1359 40.3057 96.9919 40.2497 96.8799 40.1377C96.7679 40.0257 96.7119 39.8817 96.7119 39.7057V33.1537C96.7119 32.3057 96.5039 31.6497 96.0879 31.1857C95.6879 30.7057 95.0959 30.4657 94.3119 30.4657C93.5599 30.4657 92.9599 30.7057 92.5119 31.1857C92.0639 31.6497 91.8399 32.3057 91.8399 33.1537V39.7057C91.8399 39.8817 91.7839 40.0257 91.6719 40.1377C91.5599 40.2497 91.4239 40.3057 91.2639 40.3057H88.7199ZM108.467 45.5857C107.283 45.5857 106.299 45.4257 105.515 45.1057C104.731 44.8017 104.107 44.4257 103.643 43.9777C103.195 43.5457 102.875 43.1137 102.683 42.6817C102.491 42.2497 102.387 41.9137 102.371 41.6737C102.355 41.4977 102.411 41.3537 102.539 41.2417C102.667 41.1297 102.811 41.0737 102.971 41.0737H105.539C105.683 41.0737 105.803 41.1057 105.899 41.1697C106.011 41.2497 106.099 41.3777 106.163 41.5537C106.243 41.7457 106.355 41.9457 106.499 42.1537C106.643 42.3777 106.859 42.5617 107.147 42.7057C107.451 42.8497 107.851 42.9217 108.347 42.9217C108.907 42.9217 109.371 42.8417 109.739 42.6817C110.107 42.5217 110.379 42.2497 110.555 41.8657C110.747 41.4817 110.843 40.9617 110.843 40.3057V38.6977C110.459 39.1137 109.971 39.4577 109.379 39.7297C108.803 40.0017 108.091 40.1377 107.243 40.1377C106.411 40.1377 105.675 40.0097 105.035 39.7537C104.411 39.4817 103.891 39.1057 103.475 38.6257C103.059 38.1297 102.739 37.5377 102.515 36.8497C102.291 36.1617 102.163 35.3857 102.131 34.5217C102.115 34.0897 102.115 33.6657 102.131 33.2497C102.163 32.4177 102.291 31.6577 102.515 30.9697C102.739 30.2817 103.059 29.6897 103.475 29.1937C103.891 28.6817 104.411 28.2897 105.035 28.0177C105.675 27.7297 106.411 27.5857 107.243 27.5857C108.123 27.5857 108.875 27.7537 109.499 28.0897C110.123 28.4257 110.635 28.8417 111.035 29.3377V28.4257C111.035 28.2657 111.091 28.1297 111.203 28.0177C111.315 27.8897 111.451 27.8257 111.611 27.8257H113.963C114.123 27.8257 114.259 27.8897 114.371 28.0177C114.499 28.1297 114.563 28.2657 114.563 28.4257L114.587 39.9697C114.587 41.1697 114.355 42.1857 113.891 43.0177C113.427 43.8497 112.739 44.4817 111.827 44.9137C110.931 45.3617 109.811 45.5857 108.467 45.5857ZM108.347 37.3297C108.923 37.3297 109.387 37.2017 109.739 36.9457C110.107 36.6737 110.379 36.3377 110.555 35.9377C110.731 35.5217 110.827 35.0897 110.843 34.6417C110.859 34.4657 110.867 34.2177 110.867 33.8977C110.867 33.5617 110.859 33.3057 110.843 33.1297C110.827 32.6817 110.731 32.2577 110.555 31.8577C110.379 31.4417 110.107 31.1057 109.739 30.8497C109.387 30.5937 108.923 30.4657 108.347 30.4657C107.739 30.4657 107.259 30.6017 106.907 30.8737C106.555 31.1297 106.299 31.4737 106.139 31.9057C105.979 32.3377 105.883 32.8097 105.851 33.3217C105.835 33.7057 105.835 34.0817 105.851 34.4497C105.883 34.9777 105.979 35.4577 106.139 35.8897C106.299 36.3217 106.555 36.6737 106.907 36.9457C107.259 37.2017 107.739 37.3297 108.347 37.3297Z"
     fill="#DDA34E"
     id="path2"
     style="fill:#62c8d3;fill-opacity:1" />
  <path
     d="M2.26 63.3057C2.14267 63.3057 2.052 63.2737 1.988 63.2097C1.924 63.135 1.892 63.0443 1.892 62.9377V52.4897C1.892 52.3723 1.924 52.2817 1.988 52.2177C2.052 52.143 2.14267 52.1057 2.26 52.1057H6.164C7.36933 52.1057 8.324 52.3883 9.028 52.9537C9.732 53.519 10.084 54.3563 10.084 55.4657C10.084 56.287 9.876 56.959 9.46 57.4817C9.05467 57.9937 8.5 58.351 7.796 58.5537L10.26 62.8097C10.292 62.8737 10.308 62.9323 10.308 62.9857C10.308 63.071 10.2707 63.1457 10.196 63.2097C10.132 63.2737 10.0573 63.3057 9.972 63.3057H9.204C9.02267 63.3057 8.88933 63.2577 8.804 63.1617C8.71867 63.0657 8.644 62.9697 8.58 62.8737L6.26 58.8097H3.46V62.9377C3.46 63.0443 3.42267 63.135 3.348 63.2097C3.284 63.2737 3.19333 63.3057 3.076 63.3057H2.26ZM3.46 57.4497H6.1C6.9 57.4497 7.49733 57.2843 7.892 56.9537C8.28667 56.6123 8.484 56.111 8.484 55.4497C8.484 54.799 8.28667 54.303 7.892 53.9617C7.508 53.6203 6.91067 53.4497 6.1 53.4497H3.46V57.4497ZM15.0666 63.4657C13.968 63.4657 13.0933 63.1297 12.4426 62.4577C11.792 61.775 11.4346 60.847 11.3706 59.6737C11.36 59.535 11.3546 59.359 11.3546 59.1457C11.3546 58.9217 11.36 58.7403 11.3706 58.6017C11.4133 57.8443 11.5893 57.183 11.8986 56.6177C12.208 56.0417 12.6293 55.599 13.1626 55.2897C13.7066 54.9803 14.3413 54.8257 15.0666 54.8257C15.8773 54.8257 16.5546 54.9963 17.0986 55.3377C17.6533 55.679 18.0746 56.1643 18.3626 56.7937C18.6506 57.423 18.7946 58.159 18.7946 59.0017V59.2737C18.7946 59.391 18.7573 59.4817 18.6826 59.5457C18.6186 59.6097 18.5333 59.6417 18.4266 59.6417H12.8906C12.8906 59.6523 12.8906 59.6737 12.8906 59.7057C12.8906 59.7377 12.8906 59.7643 12.8906 59.7857C12.912 60.223 13.008 60.6337 13.1786 61.0177C13.3493 61.391 13.5946 61.695 13.9146 61.9297C14.2346 62.1643 14.6186 62.2817 15.0666 62.2817C15.4506 62.2817 15.7706 62.223 16.0266 62.1057C16.2826 61.9883 16.4906 61.8603 16.6506 61.7217C16.8106 61.5723 16.9173 61.4603 16.9706 61.3857C17.0666 61.247 17.1413 61.167 17.1946 61.1457C17.248 61.1137 17.3333 61.0977 17.4506 61.0977H18.2186C18.3253 61.0977 18.4106 61.1297 18.4746 61.1937C18.5493 61.247 18.5813 61.327 18.5706 61.4337C18.56 61.5937 18.4746 61.791 18.3146 62.0257C18.1546 62.2497 17.9253 62.4737 17.6266 62.6977C17.328 62.9217 16.9653 63.1083 16.5386 63.2577C16.112 63.3963 15.6213 63.4657 15.0666 63.4657ZM12.8906 58.5377H17.2746V58.4897C17.2746 58.0097 17.184 57.583 17.0026 57.2097C16.832 56.8363 16.5813 56.543 16.2506 56.3297C15.92 56.1057 15.5253 55.9937 15.0666 55.9937C14.608 55.9937 14.2133 56.1057 13.8826 56.3297C13.5626 56.543 13.3173 56.8363 13.1466 57.2097C12.976 57.583 12.8906 58.0097 12.8906 58.4897V58.5377ZM20.7718 63.3057C20.6651 63.3057 20.5744 63.2737 20.4998 63.2097C20.4358 63.135 20.4038 63.0443 20.4038 62.9377V52.3137C20.4038 52.207 20.4358 52.1217 20.4998 52.0577C20.5744 51.983 20.6651 51.9457 20.7718 51.9457H21.5238C21.6411 51.9457 21.7318 51.983 21.7958 52.0577C21.8598 52.1217 21.8918 52.207 21.8918 52.3137V62.9377C21.8918 63.0443 21.8598 63.135 21.7958 63.2097C21.7318 63.2737 21.6411 63.3057 21.5238 63.3057H20.7718ZM26.2784 63.4657C25.745 63.4657 25.2597 63.359 24.8224 63.1457C24.385 62.9323 24.033 62.6443 23.7664 62.2817C23.4997 61.919 23.3664 61.5083 23.3664 61.0497C23.3664 60.3137 23.665 59.727 24.2624 59.2897C24.8597 58.8523 25.6384 58.5643 26.5984 58.4257L28.9824 58.0897V57.6257C28.9824 57.1137 28.833 56.7137 28.5344 56.4257C28.2464 56.1377 27.7717 55.9937 27.1104 55.9937C26.6304 55.9937 26.241 56.0897 25.9424 56.2817C25.6544 56.4737 25.4517 56.719 25.3344 57.0177C25.2704 57.1777 25.1584 57.2577 24.9984 57.2577H24.2784C24.161 57.2577 24.0704 57.2257 24.0064 57.1617C23.953 57.087 23.9264 57.0017 23.9264 56.9057C23.9264 56.7457 23.985 56.5483 24.1024 56.3137C24.2304 56.079 24.4224 55.8497 24.6784 55.6257C24.9344 55.4017 25.2597 55.215 25.6544 55.0657C26.0597 54.9057 26.5504 54.8257 27.1264 54.8257C27.7664 54.8257 28.305 54.911 28.7424 55.0817C29.1797 55.2417 29.521 55.4603 29.7664 55.7377C30.0224 56.015 30.2037 56.3297 30.3104 56.6817C30.4277 57.0337 30.4864 57.391 30.4864 57.7537V62.9377C30.4864 63.0443 30.449 63.135 30.3744 63.2097C30.3104 63.2737 30.225 63.3057 30.1184 63.3057H29.3824C29.265 63.3057 29.1744 63.2737 29.1104 63.2097C29.0464 63.135 29.0144 63.0443 29.0144 62.9377V62.2497C28.8757 62.4417 28.689 62.6337 28.4544 62.8257C28.2197 63.007 27.9264 63.1617 27.5744 63.2897C27.2224 63.407 26.7904 63.4657 26.2784 63.4657ZM26.6144 62.2657C27.0517 62.2657 27.4517 62.175 27.8144 61.9937C28.177 61.8017 28.4597 61.5083 28.6624 61.1137C28.8757 60.719 28.9824 60.223 28.9824 59.6257V59.1777L27.1264 59.4497C26.369 59.5563 25.7984 59.7377 25.4144 59.9937C25.0304 60.239 24.8384 60.5537 24.8384 60.9377C24.8384 61.2363 24.9237 61.487 25.0944 61.6897C25.2757 61.8817 25.4997 62.0257 25.7664 62.1217C26.0437 62.2177 26.3264 62.2657 26.6144 62.2657ZM35.6364 63.3057C35.039 63.3057 34.5537 63.1937 34.1804 62.9697C33.807 62.735 33.535 62.4097 33.3644 61.9937C33.1937 61.567 33.1084 61.0657 33.1084 60.4897V56.2657H31.8604C31.7537 56.2657 31.663 56.2337 31.5884 56.1697C31.5244 56.095 31.4924 56.0043 31.4924 55.8977V55.3537C31.4924 55.247 31.5244 55.1617 31.5884 55.0977C31.663 55.023 31.7537 54.9857 31.8604 54.9857H33.1084V52.3137C33.1084 52.207 33.1404 52.1217 33.2044 52.0577C33.279 51.983 33.3697 51.9457 33.4764 51.9457H34.2284C34.335 51.9457 34.4204 51.983 34.4844 52.0577C34.559 52.1217 34.5964 52.207 34.5964 52.3137V54.9857H36.5804C36.687 54.9857 36.7724 55.023 36.8364 55.0977C36.911 55.1617 36.9484 55.247 36.9484 55.3537V55.8977C36.9484 56.0043 36.911 56.095 36.8364 56.1697C36.7724 56.2337 36.687 56.2657 36.5804 56.2657H34.5964V60.3777C34.5964 60.879 34.6817 61.2737 34.8524 61.5617C35.023 61.8497 35.327 61.9937 35.7644 61.9937H36.7404C36.847 61.9937 36.9324 62.031 36.9964 62.1057C37.071 62.1697 37.1084 62.255 37.1084 62.3617V62.9377C37.1084 63.0443 37.071 63.135 36.9964 63.2097C36.9324 63.2737 36.847 63.3057 36.7404 63.3057H35.6364ZM38.6864 63.3057C38.5797 63.3057 38.489 63.2737 38.4144 63.2097C38.3504 63.135 38.3184 63.0443 38.3184 62.9377V55.3537C38.3184 55.247 38.3504 55.1617 38.4144 55.0977C38.489 55.023 38.5797 54.9857 38.6864 54.9857H39.4544C39.561 54.9857 39.6464 55.023 39.7104 55.0977C39.7744 55.1617 39.8064 55.247 39.8064 55.3537V62.9377C39.8064 63.0443 39.7744 63.135 39.7104 63.2097C39.6464 63.2737 39.561 63.3057 39.4544 63.3057H38.6864ZM38.5584 53.4337C38.4517 53.4337 38.361 53.4017 38.2864 53.3377C38.2224 53.263 38.1904 53.1723 38.1904 53.0657V52.2017C38.1904 52.095 38.2224 52.0097 38.2864 51.9457C38.361 51.871 38.4517 51.8337 38.5584 51.8337H39.5664C39.673 51.8337 39.7584 51.871 39.8224 51.9457C39.897 52.0097 39.9344 52.095 39.9344 52.2017V53.0657C39.9344 53.1723 39.897 53.263 39.8224 53.3377C39.7584 53.4017 39.673 53.4337 39.5664 53.4337H38.5584ZM44.7694 63.3057C44.6094 63.3057 44.4814 63.2683 44.3854 63.1937C44.3 63.119 44.2307 63.023 44.1774 62.9057L41.2174 55.4817C41.196 55.4283 41.1854 55.375 41.1854 55.3217C41.1854 55.2257 41.2174 55.1457 41.2814 55.0817C41.3454 55.0177 41.4254 54.9857 41.5214 54.9857H42.2894C42.4067 54.9857 42.4974 55.0177 42.5614 55.0817C42.6254 55.1457 42.6627 55.2043 42.6734 55.2577L45.1214 61.5617L47.5534 55.2577C47.5747 55.2043 47.612 55.1457 47.6654 55.0817C47.7294 55.0177 47.82 54.9857 47.9374 54.9857H48.7214C48.8067 54.9857 48.8814 55.0177 48.9454 55.0817C49.02 55.1457 49.0574 55.2257 49.0574 55.3217C49.0574 55.375 49.0467 55.4283 49.0254 55.4817L46.0494 62.9057C46.0067 63.023 45.9374 63.119 45.8414 63.1937C45.756 63.2683 45.628 63.3057 45.4574 63.3057H44.7694ZM53.4279 63.4657C52.3292 63.4657 51.4545 63.1297 50.8039 62.4577C50.1532 61.775 49.7959 60.847 49.7319 59.6737C49.7212 59.535 49.7159 59.359 49.7159 59.1457C49.7159 58.9217 49.7212 58.7403 49.7319 58.6017C49.7745 57.8443 49.9505 57.183 50.2599 56.6177C50.5692 56.0417 50.9905 55.599 51.5239 55.2897C52.0679 54.9803 52.7025 54.8257 53.4279 54.8257C54.2385 54.8257 54.9159 54.9963 55.4599 55.3377C56.0145 55.679 56.4359 56.1643 56.7239 56.7937C57.0119 57.423 57.1559 58.159 57.1559 59.0017V59.2737C57.1559 59.391 57.1185 59.4817 57.0439 59.5457C56.9799 59.6097 56.8945 59.6417 56.7879 59.6417H51.2519C51.2519 59.6523 51.2519 59.6737 51.2519 59.7057C51.2519 59.7377 51.2519 59.7643 51.2519 59.7857C51.2732 60.223 51.3692 60.6337 51.5399 61.0177C51.7105 61.391 51.9559 61.695 52.2759 61.9297C52.5959 62.1643 52.9799 62.2817 53.4279 62.2817C53.8119 62.2817 54.1319 62.223 54.3879 62.1057C54.6439 61.9883 54.8519 61.8603 55.0119 61.7217C55.1719 61.5723 55.2785 61.4603 55.3319 61.3857C55.4279 61.247 55.5025 61.167 55.5559 61.1457C55.6092 61.1137 55.6945 61.0977 55.8119 61.0977H56.5799C56.6865 61.0977 56.7719 61.1297 56.8359 61.1937C56.9105 61.247 56.9425 61.327 56.9319 61.4337C56.9212 61.5937 56.8359 61.791 56.6759 62.0257C56.5159 62.2497 56.2865 62.4737 55.9879 62.6977C55.6892 62.9217 55.3265 63.1083 54.8999 63.2577C54.4732 63.3963 53.9825 63.4657 53.4279 63.4657ZM51.2519 58.5377H55.6359V58.4897C55.6359 58.0097 55.5452 57.583 55.3639 57.2097C55.1932 56.8363 54.9425 56.543 54.6119 56.3297C54.2812 56.1057 53.8865 55.9937 53.4279 55.9937C52.9692 55.9937 52.5745 56.1057 52.2439 56.3297C51.9239 56.543 51.6785 56.8363 51.5079 57.2097C51.3372 57.583 51.2519 58.0097 51.2519 58.4897V58.5377ZM59.133 63.3057C59.0263 63.3057 58.9357 63.2737 58.861 63.2097C58.797 63.135 58.765 63.0443 58.765 62.9377V52.3137C58.765 52.207 58.797 52.1217 58.861 52.0577C58.9357 51.983 59.0263 51.9457 59.133 51.9457H59.885C60.0023 51.9457 60.093 51.983 60.157 52.0577C60.221 52.1217 60.253 52.207 60.253 52.3137V62.9377C60.253 63.0443 60.221 63.135 60.157 63.2097C60.093 63.2737 60.0023 63.3057 59.885 63.3057H59.133ZM63.7756 66.3457C63.6903 66.3457 63.6156 66.3137 63.5516 66.2497C63.4876 66.1857 63.4556 66.111 63.4556 66.0257C63.4556 65.983 63.461 65.9403 63.4716 65.8977C63.4823 65.855 63.5036 65.8017 63.5356 65.7377L64.7676 62.8097L61.7116 55.5937C61.6583 55.4657 61.6316 55.375 61.6316 55.3217C61.6316 55.2257 61.6636 55.1457 61.7276 55.0817C61.7916 55.0177 61.8716 54.9857 61.9676 54.9857H62.7516C62.8583 54.9857 62.9436 55.0123 63.0076 55.0657C63.0716 55.119 63.1143 55.183 63.1356 55.2577L65.5676 61.0817L68.0636 55.2577C68.0956 55.183 68.1383 55.119 68.1916 55.0657C68.2556 55.0123 68.3463 54.9857 68.4636 54.9857H69.2156C69.3116 54.9857 69.3916 55.0177 69.4556 55.0817C69.5196 55.1457 69.5516 55.2203 69.5516 55.3057C69.5516 55.359 69.525 55.455 69.4716 55.5937L64.9276 66.0737C64.8956 66.1483 64.8476 66.2123 64.7836 66.2657C64.7303 66.319 64.645 66.3457 64.5276 66.3457H63.7756ZM77.3521 63.4657C76.5948 63.4657 75.9388 63.3217 75.3841 63.0337C74.8401 62.735 74.4188 62.3137 74.1201 61.7697C73.8215 61.215 73.6615 60.5537 73.6401 59.7857C73.6295 59.6257 73.6241 59.4123 73.6241 59.1457C73.6241 58.879 73.6295 58.6657 73.6401 58.5057C73.6615 57.7377 73.8215 57.0817 74.1201 56.5377C74.4188 55.983 74.8401 55.5617 75.3841 55.2737C75.9388 54.975 76.5948 54.8257 77.3521 54.8257C77.9708 54.8257 78.4988 54.911 78.9361 55.0817C79.3841 55.2523 79.7521 55.471 80.0401 55.7377C80.3281 56.0043 80.5415 56.2923 80.6801 56.6017C80.8295 56.911 80.9095 57.2043 80.9201 57.4817C80.9308 57.5883 80.8988 57.6737 80.8241 57.7377C80.7495 57.8017 80.6588 57.8337 80.5521 57.8337H79.7841C79.6775 57.8337 79.5975 57.8123 79.5441 57.7697C79.4908 57.7163 79.4375 57.631 79.3841 57.5137C79.1921 56.991 78.9308 56.623 78.6001 56.4097C78.2695 56.1963 77.8588 56.0897 77.3681 56.0897C76.7281 56.0897 76.2055 56.287 75.8001 56.6817C75.4055 57.0763 75.1921 57.711 75.1601 58.5857C75.1495 58.9697 75.1495 59.343 75.1601 59.7057C75.1921 60.591 75.4055 61.231 75.8001 61.6257C76.2055 62.0097 76.7281 62.2017 77.3681 62.2017C77.8588 62.2017 78.2695 62.095 78.6001 61.8817C78.9308 61.6683 79.1921 61.3003 79.3841 60.7777C79.4375 60.6603 79.4908 60.5803 79.5441 60.5377C79.5975 60.4843 79.6775 60.4577 79.7841 60.4577H80.5521C80.6588 60.4577 80.7495 60.4897 80.8241 60.5537C80.8988 60.6177 80.9308 60.703 80.9201 60.8097C80.9095 61.0337 80.8615 61.263 80.7761 61.4977C80.6908 61.7323 80.5521 61.9723 80.3601 62.2177C80.1788 62.4523 79.9495 62.6657 79.6721 62.8577C79.3948 63.039 79.0588 63.1883 78.6641 63.3057C78.2801 63.4123 77.8428 63.4657 77.3521 63.4657ZM85.9083 63.4657C85.0976 63.4657 84.4203 63.311 83.8763 63.0017C83.3323 62.6923 82.9163 62.2657 82.6283 61.7217C82.3403 61.167 82.1803 60.5377 82.1483 59.8337C82.1376 59.6523 82.1323 59.423 82.1323 59.1457C82.1323 58.8577 82.1376 58.6283 82.1483 58.4577C82.1803 57.743 82.3403 57.1137 82.6283 56.5697C82.9269 56.0257 83.3483 55.599 83.8923 55.2897C84.4363 54.9803 85.1083 54.8257 85.9083 54.8257C86.7083 54.8257 87.3803 54.9803 87.9243 55.2897C88.4683 55.599 88.8843 56.0257 89.1723 56.5697C89.4709 57.1137 89.6363 57.743 89.6683 58.4577C89.6789 58.6283 89.6843 58.8577 89.6843 59.1457C89.6843 59.423 89.6789 59.6523 89.6683 59.8337C89.6363 60.5377 89.4763 61.167 89.1883 61.7217C88.9003 62.2657 88.4843 62.6923 87.9403 63.0017C87.3963 63.311 86.7189 63.4657 85.9083 63.4657ZM85.9083 62.2337C86.5696 62.2337 87.0976 62.0257 87.4923 61.6097C87.8869 61.183 88.1003 60.5643 88.1323 59.7537C88.1429 59.5937 88.1483 59.391 88.1483 59.1457C88.1483 58.9003 88.1429 58.6977 88.1323 58.5377C88.1003 57.727 87.8869 57.1137 87.4923 56.6977C87.0976 56.271 86.5696 56.0577 85.9083 56.0577C85.2469 56.0577 84.7136 56.271 84.3083 56.6977C83.9136 57.1137 83.7056 57.727 83.6843 58.5377C83.6736 58.6977 83.6683 58.9003 83.6683 59.1457C83.6683 59.391 83.6736 59.5937 83.6843 59.7537C83.7056 60.5643 83.9136 61.183 84.3083 61.6097C84.7136 62.0257 85.2469 62.2337 85.9083 62.2337ZM91.7357 63.3057C91.6291 63.3057 91.5384 63.2737 91.4637 63.2097C91.3997 63.135 91.3677 63.0443 91.3677 62.9377V55.3537C91.3677 55.247 91.3997 55.1617 91.4637 55.0977C91.5384 55.023 91.6291 54.9857 91.7357 54.9857H92.4557C92.5624 54.9857 92.6477 55.023 92.7117 55.0977C92.7864 55.1617 92.8237 55.247 92.8237 55.3537V55.9137C93.0691 55.583 93.3784 55.3217 93.7517 55.1297C94.1251 54.927 94.5731 54.8257 95.0957 54.8257C96.3011 54.815 97.1544 55.3057 97.6557 56.2977C97.9011 55.8497 98.2584 55.4923 98.7277 55.2257C99.1971 54.959 99.7304 54.8257 100.328 54.8257C100.882 54.8257 101.384 54.9537 101.832 55.2097C102.29 55.4657 102.648 55.855 102.904 56.3777C103.17 56.8897 103.304 57.535 103.304 58.3137V62.9377C103.304 63.0443 103.266 63.135 103.192 63.2097C103.128 63.2737 103.042 63.3057 102.936 63.3057H102.184C102.077 63.3057 101.986 63.2737 101.912 63.2097C101.848 63.135 101.816 63.0443 101.816 62.9377V58.4577C101.816 57.8603 101.73 57.391 101.56 57.0497C101.389 56.7083 101.16 56.4683 100.872 56.3297C100.584 56.191 100.269 56.1217 99.9277 56.1217C99.6504 56.1217 99.3677 56.191 99.0797 56.3297C98.7917 56.4683 98.5517 56.7083 98.3597 57.0497C98.1784 57.391 98.0877 57.8603 98.0877 58.4577V62.9377C98.0877 63.0443 98.0504 63.135 97.9757 63.2097C97.9117 63.2737 97.8264 63.3057 97.7197 63.3057H96.9677C96.8611 63.3057 96.7704 63.2737 96.6957 63.2097C96.6317 63.135 96.5997 63.0443 96.5997 62.9377V58.4577C96.5997 57.8603 96.5091 57.391 96.3277 57.0497C96.1464 56.7083 95.9117 56.4683 95.6237 56.3297C95.3357 56.191 95.0317 56.1217 94.7117 56.1217C94.4344 56.1217 94.1517 56.191 93.8637 56.3297C93.5757 56.4683 93.3357 56.7083 93.1437 57.0497C92.9624 57.391 92.8717 57.855 92.8717 58.4417V62.9377C92.8717 63.0443 92.8344 63.135 92.7597 63.2097C92.6957 63.2737 92.6104 63.3057 92.5037 63.3057H91.7357ZM106.341 63.3057C106.235 63.3057 106.144 63.2737 106.069 63.2097C106.005 63.135 105.973 63.0443 105.973 62.9377V56.2657H104.613C104.507 56.2657 104.416 56.2337 104.341 56.1697C104.277 56.095 104.245 56.0043 104.245 55.8977V55.3537C104.245 55.247 104.277 55.1617 104.341 55.0977C104.416 55.023 104.507 54.9857 104.613 54.9857H105.973V54.1857C105.973 53.6417 106.064 53.167 106.245 52.7617C106.427 52.3457 106.715 52.0257 107.109 51.8017C107.515 51.5777 108.053 51.4657 108.725 51.4657H109.685C109.792 51.4657 109.877 51.503 109.941 51.5777C110.005 51.6417 110.037 51.727 110.037 51.8337V52.3777C110.037 52.4843 110.005 52.575 109.941 52.6497C109.877 52.7137 109.792 52.7457 109.685 52.7457H108.757C108.256 52.7457 107.915 52.879 107.733 53.1457C107.552 53.4017 107.461 53.775 107.461 54.2657V54.9857H109.525C109.632 54.9857 109.717 55.023 109.781 55.0977C109.845 55.1617 109.877 55.247 109.877 55.3537V55.8977C109.877 56.0043 109.845 56.095 109.781 56.1697C109.717 56.2337 109.632 56.2657 109.525 56.2657H107.461V62.9377C107.461 63.0443 107.424 63.135 107.349 63.2097C107.285 63.2737 107.2 63.3057 107.093 63.3057H106.341ZM114.229 63.4657C113.419 63.4657 112.741 63.311 112.197 63.0017C111.653 62.6923 111.237 62.2657 110.949 61.7217C110.661 61.167 110.501 60.5377 110.469 59.8337C110.459 59.6523 110.453 59.423 110.453 59.1457C110.453 58.8577 110.459 58.6283 110.469 58.4577C110.501 57.743 110.661 57.1137 110.949 56.5697C111.248 56.0257 111.669 55.599 112.213 55.2897C112.757 54.9803 113.429 54.8257 114.229 54.8257C115.029 54.8257 115.701 54.9803 116.245 55.2897C116.789 55.599 117.205 56.0257 117.493 56.5697C117.792 57.1137 117.957 57.743 117.989 58.4577C118 58.6283 118.005 58.8577 118.005 59.1457C118.005 59.423 118 59.6523 117.989 59.8337C117.957 60.5377 117.797 61.167 117.509 61.7217C117.221 62.2657 116.805 62.6923 116.261 63.0017C115.717 63.311 115.04 63.4657 114.229 63.4657ZM114.229 62.2337C114.891 62.2337 115.419 62.0257 115.813 61.6097C116.208 61.183 116.421 60.5643 116.453 59.7537C116.464 59.5937 116.469 59.391 116.469 59.1457C116.469 58.9003 116.464 58.6977 116.453 58.5377C116.421 57.727 116.208 57.1137 115.813 56.6977C115.419 56.271 114.891 56.0577 114.229 56.0577C113.568 56.0577 113.035 56.271 112.629 56.6977C112.235 57.1137 112.027 57.727 112.005 58.5377C111.995 58.6977 111.989 58.9003 111.989 59.1457C111.989 59.391 111.995 59.5937 112.005 59.7537C112.027 60.5643 112.235 61.183 112.629 61.6097C113.035 62.0257 113.568 62.2337 114.229 62.2337ZM120.057 63.3057C119.95 63.3057 119.86 63.2737 119.785 63.2097C119.721 63.135 119.689 63.0443 119.689 62.9377V55.3697C119.689 55.263 119.721 55.1723 119.785 55.0977C119.86 55.023 119.95 54.9857 120.057 54.9857H120.793C120.9 54.9857 120.99 55.023 121.065 55.0977C121.14 55.1723 121.177 55.263 121.177 55.3697V56.0737C121.39 55.711 121.684 55.439 122.057 55.2577C122.43 55.0763 122.878 54.9857 123.401 54.9857H124.041C124.148 54.9857 124.233 55.023 124.297 55.0977C124.361 55.1617 124.393 55.247 124.393 55.3537V56.0097C124.393 56.1163 124.361 56.2017 124.297 56.2657C124.233 56.3297 124.148 56.3617 124.041 56.3617H123.081C122.505 56.3617 122.052 56.5323 121.721 56.8737C121.39 57.2043 121.225 57.6577 121.225 58.2337V62.9377C121.225 63.0443 121.188 63.135 121.113 63.2097C121.038 63.2737 120.948 63.3057 120.841 63.3057H120.057ZM128.695 63.3057C128.098 63.3057 127.612 63.1937 127.239 62.9697C126.866 62.735 126.594 62.4097 126.423 61.9937C126.252 61.567 126.167 61.0657 126.167 60.4897V56.2657H124.919C124.812 56.2657 124.722 56.2337 124.647 56.1697C124.583 56.095 124.551 56.0043 124.551 55.8977V55.3537C124.551 55.247 124.583 55.1617 124.647 55.0977C124.722 55.023 124.812 54.9857 124.919 54.9857H126.167V52.3137C126.167 52.207 126.199 52.1217 126.263 52.0577C126.338 51.983 126.428 51.9457 126.535 51.9457H127.287C127.394 51.9457 127.479 51.983 127.543 52.0577C127.618 52.1217 127.655 52.207 127.655 52.3137V54.9857H129.639C129.746 54.9857 129.831 55.023 129.895 55.0977C129.97 55.1617 130.007 55.247 130.007 55.3537V55.8977C130.007 56.0043 129.97 56.095 129.895 56.1697C129.831 56.2337 129.746 56.2657 129.639 56.2657H127.655V60.3777C127.655 60.879 127.74 61.2737 127.911 61.5617C128.082 61.8497 128.386 61.9937 128.823 61.9937H129.799C129.906 61.9937 129.991 62.031 130.055 62.1057C130.13 62.1697 130.167 62.255 130.167 62.3617V62.9377C130.167 63.0443 130.13 63.135 130.055 63.2097C129.991 63.2737 129.906 63.3057 129.799 63.3057H128.695ZM133.697 63.4657C133.164 63.4657 132.678 63.359 132.241 63.1457C131.804 62.9323 131.452 62.6443 131.185 62.2817C130.918 61.919 130.785 61.5083 130.785 61.0497C130.785 60.3137 131.084 59.727 131.681 59.2897C132.278 58.8523 133.057 58.5643 134.017 58.4257L136.401 58.0897V57.6257C136.401 57.1137 136.252 56.7137 135.953 56.4257C135.665 56.1377 135.19 55.9937 134.529 55.9937C134.049 55.9937 133.66 56.0897 133.361 56.2817C133.073 56.4737 132.87 56.719 132.753 57.0177C132.689 57.1777 132.577 57.2577 132.417 57.2577H131.697C131.58 57.2577 131.489 57.2257 131.425 57.1617C131.372 57.087 131.345 57.0017 131.345 56.9057C131.345 56.7457 131.404 56.5483 131.521 56.3137C131.649 56.079 131.841 55.8497 132.097 55.6257C132.353 55.4017 132.678 55.215 133.073 55.0657C133.478 54.9057 133.969 54.8257 134.545 54.8257C135.185 54.8257 135.724 54.911 136.161 55.0817C136.598 55.2417 136.94 55.4603 137.185 55.7377C137.441 56.015 137.622 56.3297 137.729 56.6817C137.846 57.0337 137.905 57.391 137.905 57.7537V62.9377C137.905 63.0443 137.868 63.135 137.793 63.2097C137.729 63.2737 137.644 63.3057 137.537 63.3057H136.801C136.684 63.3057 136.593 63.2737 136.529 63.2097C136.465 63.135 136.433 63.0443 136.433 62.9377V62.2497C136.294 62.4417 136.108 62.6337 135.873 62.8257C135.638 63.007 135.345 63.1617 134.993 63.2897C134.641 63.407 134.209 63.4657 133.697 63.4657ZM134.033 62.2657C134.47 62.2657 134.87 62.175 135.233 61.9937C135.596 61.8017 135.878 61.5083 136.081 61.1137C136.294 60.719 136.401 60.223 136.401 59.6257V59.1777L134.545 59.4497C133.788 59.5563 133.217 59.7377 132.833 59.9937C132.449 60.239 132.257 60.5537 132.257 60.9377C132.257 61.2363 132.342 61.487 132.513 61.6897C132.694 61.8817 132.918 62.0257 133.185 62.1217C133.462 62.2177 133.745 62.2657 134.033 62.2657ZM143.997 63.4657C143.357 63.4657 142.824 63.3537 142.397 63.1297C141.971 62.895 141.629 62.607 141.373 62.2657V62.9377C141.373 63.0443 141.336 63.135 141.261 63.2097C141.197 63.2737 141.112 63.3057 141.005 63.3057H140.269C140.163 63.3057 140.072 63.2737 139.997 63.2097C139.933 63.135 139.901 63.0443 139.901 62.9377V52.3137C139.901 52.207 139.933 52.1217 139.997 52.0577C140.072 51.983 140.163 51.9457 140.269 51.9457H141.037C141.155 51.9457 141.245 51.983 141.309 52.0577C141.373 52.1217 141.405 52.207 141.405 52.3137V55.9937C141.672 55.663 142.013 55.3857 142.429 55.1617C142.856 54.9377 143.379 54.8257 143.997 54.8257C144.595 54.8257 145.101 54.9323 145.517 55.1457C145.944 55.3483 146.291 55.631 146.557 55.9937C146.835 56.3563 147.043 56.767 147.181 57.2257C147.32 57.6843 147.395 58.1643 147.405 58.6657C147.416 58.8363 147.421 58.9963 147.421 59.1457C147.421 59.295 147.416 59.455 147.405 59.6257C147.395 60.1377 147.32 60.623 147.181 61.0817C147.043 61.5403 146.835 61.951 146.557 62.3137C146.291 62.6657 145.944 62.9483 145.517 63.1617C145.101 63.3643 144.595 63.4657 143.997 63.4657ZM143.661 62.1697C144.216 62.1697 144.648 62.0523 144.957 61.8177C145.277 61.5723 145.507 61.2577 145.645 60.8737C145.784 60.479 145.864 60.0577 145.885 59.6097C145.896 59.3003 145.896 58.991 145.885 58.6817C145.864 58.2337 145.784 57.8177 145.645 57.4337C145.507 57.039 145.277 56.7243 144.957 56.4897C144.648 56.2443 144.216 56.1217 143.661 56.1217C143.16 56.1217 142.744 56.239 142.413 56.4737C142.083 56.7083 141.832 57.007 141.661 57.3697C141.501 57.7323 141.416 58.1003 141.405 58.4737C141.395 58.6443 141.389 58.8523 141.389 59.0977C141.389 59.3323 141.395 59.535 141.405 59.7057C141.427 60.1003 141.512 60.4897 141.661 60.8737C141.821 61.247 142.061 61.5563 142.381 61.8017C142.712 62.047 143.139 62.1697 143.661 62.1697ZM149.465 63.3057C149.358 63.3057 149.268 63.2737 149.193 63.2097C149.129 63.135 149.097 63.0443 149.097 62.9377V52.3137C149.097 52.207 149.129 52.1217 149.193 52.0577C149.268 51.983 149.358 51.9457 149.465 51.9457H150.217C150.334 51.9457 150.425 51.983 150.489 52.0577C150.553 52.1217 150.585 52.207 150.585 52.3137V62.9377C150.585 63.0443 150.553 63.135 150.489 63.2097C150.425 63.2737 150.334 63.3057 150.217 63.3057H149.465ZM155.963 63.4657C154.865 63.4657 153.99 63.1297 153.339 62.4577C152.689 61.775 152.331 60.847 152.267 59.6737C152.257 59.535 152.251 59.359 152.251 59.1457C152.251 58.9217 152.257 58.7403 152.267 58.6017C152.31 57.8443 152.486 57.183 152.795 56.6177C153.105 56.0417 153.526 55.599 154.059 55.2897C154.603 54.9803 155.238 54.8257 155.963 54.8257C156.774 54.8257 157.451 54.9963 157.995 55.3377C158.55 55.679 158.971 56.1643 159.259 56.7937C159.547 57.423 159.691 58.159 159.691 59.0017V59.2737C159.691 59.391 159.654 59.4817 159.579 59.5457C159.515 59.6097 159.43 59.6417 159.323 59.6417H153.787C153.787 59.6523 153.787 59.6737 153.787 59.7057C153.787 59.7377 153.787 59.7643 153.787 59.7857C153.809 60.223 153.905 60.6337 154.075 61.0177C154.246 61.391 154.491 61.695 154.811 61.9297C155.131 62.1643 155.515 62.2817 155.963 62.2817C156.347 62.2817 156.667 62.223 156.923 62.1057C157.179 61.9883 157.387 61.8603 157.547 61.7217C157.707 61.5723 157.814 61.4603 157.867 61.3857C157.963 61.247 158.038 61.167 158.091 61.1457C158.145 61.1137 158.23 61.0977 158.347 61.0977H159.115C159.222 61.0977 159.307 61.1297 159.371 61.1937C159.446 61.247 159.478 61.327 159.467 61.4337C159.457 61.5937 159.371 61.791 159.211 62.0257C159.051 62.2497 158.822 62.4737 158.523 62.6977C158.225 62.9217 157.862 63.1083 157.435 63.2577C157.009 63.3963 156.518 63.4657 155.963 63.4657ZM153.787 58.5377H158.171V58.4897C158.171 58.0097 158.081 57.583 157.899 57.2097C157.729 56.8363 157.478 56.543 157.147 56.3297C156.817 56.1057 156.422 55.9937 155.963 55.9937C155.505 55.9937 155.11 56.1057 154.779 56.3297C154.459 56.543 154.214 56.8363 154.043 57.2097C153.873 57.583 153.787 58.0097 153.787 58.4897V58.5377ZM2.884 83.3057C2.77733 83.3057 2.68667 83.2737 2.612 83.2097C2.548 83.135 2.516 83.0443 2.516 82.9377V76.2657H1.156C1.04933 76.2657 0.958667 76.2337 0.884 76.1697C0.82 76.095 0.788 76.0043 0.788 75.8977V75.3537C0.788 75.247 0.82 75.1617 0.884 75.0977C0.958667 75.023 1.04933 74.9857 1.156 74.9857H2.516V74.1857C2.516 73.6417 2.60667 73.167 2.788 72.7617C2.96933 72.3457 3.25733 72.0257 3.652 71.8017C4.05733 71.5777 4.596 71.4657 5.268 71.4657H6.228C6.33467 71.4657 6.42 71.503 6.484 71.5777C6.548 71.6417 6.58 71.727 6.58 71.8337V72.3777C6.58 72.4843 6.548 72.575 6.484 72.6497C6.42 72.7137 6.33467 72.7457 6.228 72.7457H5.3C4.79867 72.7457 4.45733 72.879 4.276 73.1457C4.09467 73.4017 4.004 73.775 4.004 74.2657V74.9857H6.068C6.17467 74.9857 6.26 75.023 6.324 75.0977C6.388 75.1617 6.42 75.247 6.42 75.3537V75.8977C6.42 76.0043 6.388 76.095 6.324 76.1697C6.26 76.2337 6.17467 76.2657 6.068 76.2657H4.004V82.9377C4.004 83.0443 3.96667 83.135 3.892 83.2097C3.828 83.2737 3.74267 83.3057 3.636 83.3057H2.884ZM10.772 83.4657C9.96133 83.4657 9.284 83.311 8.74 83.0017C8.196 82.6923 7.78 82.2657 7.492 81.7217C7.204 81.167 7.044 80.5377 7.012 79.8337C7.00133 79.6523 6.996 79.423 6.996 79.1457C6.996 78.8577 7.00133 78.6283 7.012 78.4577C7.044 77.743 7.204 77.1137 7.492 76.5697C7.79067 76.0257 8.212 75.599 8.756 75.2897C9.3 74.9803 9.972 74.8257 10.772 74.8257C11.572 74.8257 12.244 74.9803 12.788 75.2897C13.332 75.599 13.748 76.0257 14.036 76.5697C14.3347 77.1137 14.5 77.743 14.532 78.4577C14.5427 78.6283 14.548 78.8577 14.548 79.1457C14.548 79.423 14.5427 79.6523 14.532 79.8337C14.5 80.5377 14.34 81.167 14.052 81.7217C13.764 82.2657 13.348 82.6923 12.804 83.0017C12.26 83.311 11.5827 83.4657 10.772 83.4657ZM10.772 82.2337C11.4333 82.2337 11.9613 82.0257 12.356 81.6097C12.7507 81.183 12.964 80.5643 12.996 79.7537C13.0067 79.5937 13.012 79.391 13.012 79.1457C13.012 78.9003 13.0067 78.6977 12.996 78.5377C12.964 77.727 12.7507 77.1137 12.356 76.6977C11.9613 76.271 11.4333 76.0577 10.772 76.0577C10.1107 76.0577 9.57733 76.271 9.172 76.6977C8.77733 77.1137 8.56933 77.727 8.548 78.5377C8.53733 78.6977 8.532 78.9003 8.532 79.1457C8.532 79.391 8.53733 79.5937 8.548 79.7537C8.56933 80.5643 8.77733 81.183 9.172 81.6097C9.57733 82.0257 10.1107 82.2337 10.772 82.2337ZM16.5995 83.3057C16.4928 83.3057 16.4022 83.2737 16.3275 83.2097C16.2635 83.135 16.2315 83.0443 16.2315 82.9377V75.3697C16.2315 75.263 16.2635 75.1723 16.3275 75.0977C16.4022 75.023 16.4928 74.9857 16.5995 74.9857H17.3355C17.4422 74.9857 17.5328 75.023 17.6075 75.0977C17.6822 75.1723 17.7195 75.263 17.7195 75.3697V76.0737C17.9328 75.711 18.2262 75.439 18.5995 75.2577C18.9728 75.0763 19.4208 74.9857 19.9435 74.9857H20.5835C20.6902 74.9857 20.7755 75.023 20.8395 75.0977C20.9035 75.1617 20.9355 75.247 20.9355 75.3537V76.0097C20.9355 76.1163 20.9035 76.2017 20.8395 76.2657C20.7755 76.3297 20.6902 76.3617 20.5835 76.3617H19.6235C19.0475 76.3617 18.5942 76.5323 18.2635 76.8737C17.9328 77.2043 17.7675 77.6577 17.7675 78.2337V82.9377C17.7675 83.0443 17.7302 83.135 17.6555 83.2097C17.5808 83.2737 17.4902 83.3057 17.3835 83.3057H16.5995ZM25.5845 83.3057C25.4778 83.3057 25.3872 83.2737 25.3125 83.2097C25.2485 83.135 25.2165 83.0443 25.2165 82.9377V75.3537C25.2165 75.247 25.2485 75.1617 25.3125 75.0977C25.3872 75.023 25.4778 74.9857 25.5845 74.9857H26.3045C26.4112 74.9857 26.4965 75.023 26.5605 75.0977C26.6352 75.1617 26.6725 75.247 26.6725 75.3537V75.9137C26.9178 75.583 27.2272 75.3217 27.6005 75.1297C27.9738 74.927 28.4218 74.8257 28.9445 74.8257C30.1498 74.815 31.0032 75.3057 31.5045 76.2977C31.7498 75.8497 32.1072 75.4923 32.5765 75.2257C33.0458 74.959 33.5792 74.8257 34.1765 74.8257C34.7312 74.8257 35.2325 74.9537 35.6805 75.2097C36.1392 75.4657 36.4965 75.855 36.7525 76.3777C37.0192 76.8897 37.1525 77.535 37.1525 78.3137V82.9377C37.1525 83.0443 37.1152 83.135 37.0405 83.2097C36.9765 83.2737 36.8912 83.3057 36.7845 83.3057H36.0325C35.9258 83.3057 35.8352 83.2737 35.7605 83.2097C35.6965 83.135 35.6645 83.0443 35.6645 82.9377V78.4577C35.6645 77.8603 35.5792 77.391 35.4085 77.0497C35.2378 76.7083 35.0085 76.4683 34.7205 76.3297C34.4325 76.191 34.1178 76.1217 33.7765 76.1217C33.4992 76.1217 33.2165 76.191 32.9285 76.3297C32.6405 76.4683 32.4005 76.7083 32.2085 77.0497C32.0272 77.391 31.9365 77.8603 31.9365 78.4577V82.9377C31.9365 83.0443 31.8992 83.135 31.8245 83.2097C31.7605 83.2737 31.6752 83.3057 31.5685 83.3057H30.8165C30.7098 83.3057 30.6192 83.2737 30.5445 83.2097C30.4805 83.135 30.4485 83.0443 30.4485 82.9377V78.4577C30.4485 77.8603 30.3578 77.391 30.1765 77.0497C29.9952 76.7083 29.7605 76.4683 29.4725 76.3297C29.1845 76.191 28.8805 76.1217 28.5605 76.1217C28.2832 76.1217 28.0005 76.191 27.7125 76.3297C27.4245 76.4683 27.1845 76.7083 26.9925 77.0497C26.8112 77.391 26.7205 77.855 26.7205 78.4417V82.9377C26.7205 83.0443 26.6832 83.135 26.6085 83.2097C26.5445 83.2737 26.4592 83.3057 26.3525 83.3057H25.5845ZM42.5233 83.4657C41.7126 83.4657 41.0353 83.311 40.4913 83.0017C39.9473 82.6923 39.5313 82.2657 39.2433 81.7217C38.9553 81.167 38.7953 80.5377 38.7633 79.8337C38.7526 79.6523 38.7473 79.423 38.7473 79.1457C38.7473 78.8577 38.7526 78.6283 38.7633 78.4577C38.7953 77.743 38.9553 77.1137 39.2433 76.5697C39.5419 76.0257 39.9633 75.599 40.5073 75.2897C41.0513 74.9803 41.7233 74.8257 42.5233 74.8257C43.3233 74.8257 43.9953 74.9803 44.5393 75.2897C45.0833 75.599 45.4993 76.0257 45.7873 76.5697C46.0859 77.1137 46.2513 77.743 46.2833 78.4577C46.2939 78.6283 46.2993 78.8577 46.2993 79.1457C46.2993 79.423 46.2939 79.6523 46.2833 79.8337C46.2513 80.5377 46.0913 81.167 45.8033 81.7217C45.5153 82.2657 45.0993 82.6923 44.5553 83.0017C44.0113 83.311 43.3339 83.4657 42.5233 83.4657ZM42.5233 82.2337C43.1846 82.2337 43.7126 82.0257 44.1073 81.6097C44.5019 81.183 44.7153 80.5643 44.7473 79.7537C44.7579 79.5937 44.7633 79.391 44.7633 79.1457C44.7633 78.9003 44.7579 78.6977 44.7473 78.5377C44.7153 77.727 44.5019 77.1137 44.1073 76.6977C43.7126 76.271 43.1846 76.0577 42.5233 76.0577C41.8619 76.0577 41.3286 76.271 40.9233 76.6977C40.5286 77.1137 40.3206 77.727 40.2993 78.5377C40.2886 78.6977 40.2833 78.9003 40.2833 79.1457C40.2833 79.391 40.2886 79.5937 40.2993 79.7537C40.3206 80.5643 40.5286 81.183 40.9233 81.6097C41.3286 82.0257 41.8619 82.2337 42.5233 82.2337ZM50.8628 83.4657C50.2654 83.4657 49.7534 83.391 49.3268 83.2417C48.9001 83.0923 48.5534 82.911 48.2868 82.6977C48.0201 82.4843 47.8174 82.271 47.6788 82.0577C47.5508 81.8443 47.4814 81.6737 47.4708 81.5457C47.4601 81.4283 47.4974 81.3377 47.5828 81.2737C47.6681 81.2097 47.7534 81.1777 47.8388 81.1777H48.5428C48.6068 81.1777 48.6548 81.1883 48.6868 81.2097C48.7294 81.2203 48.7828 81.263 48.8468 81.3377C48.9854 81.487 49.1401 81.6363 49.3108 81.7857C49.4814 81.935 49.6894 82.0577 49.9348 82.1537C50.1908 82.2497 50.5054 82.2977 50.8788 82.2977C51.4228 82.2977 51.8708 82.1963 52.2228 81.9937C52.5748 81.7803 52.7508 81.471 52.7508 81.0657C52.7508 80.799 52.6761 80.5857 52.5268 80.4257C52.3881 80.2657 52.1321 80.1217 51.7588 79.9937C51.3961 79.8657 50.8948 79.7323 50.2548 79.5937C49.6148 79.4443 49.1081 79.263 48.7348 79.0497C48.3614 78.8257 48.0948 78.5643 47.9348 78.2657C47.7748 77.9563 47.6948 77.6097 47.6948 77.2257C47.6948 76.831 47.8121 76.4523 48.0468 76.0897C48.2814 75.7163 48.6228 75.4123 49.0708 75.1777C49.5294 74.943 50.1001 74.8257 50.7828 74.8257C51.3374 74.8257 51.8121 74.895 52.2068 75.0337C52.6014 75.1723 52.9268 75.3483 53.1828 75.5617C53.4388 75.7643 53.6308 75.967 53.7588 76.1697C53.8868 76.3723 53.9561 76.543 53.9668 76.6817C53.9774 76.7883 53.9454 76.879 53.8708 76.9537C53.7961 77.0177 53.7108 77.0497 53.6148 77.0497H52.9428C52.8681 77.0497 52.8041 77.0337 52.7508 77.0017C52.7081 76.9697 52.6654 76.9323 52.6228 76.8897C52.5161 76.751 52.3881 76.6123 52.2388 76.4737C52.1001 76.335 51.9134 76.223 51.6788 76.1377C51.4548 76.0417 51.1561 75.9937 50.7828 75.9937C50.2494 75.9937 49.8494 76.1057 49.5828 76.3297C49.3161 76.5537 49.1828 76.8363 49.1828 77.1777C49.1828 77.3803 49.2414 77.5617 49.3588 77.7217C49.4761 77.8817 49.7001 78.0257 50.0308 78.1537C50.3614 78.2817 50.8521 78.4203 51.5028 78.5697C52.2068 78.7083 52.7614 78.895 53.1668 79.1297C53.5721 79.3643 53.8601 79.6363 54.0308 79.9457C54.2014 80.255 54.2868 80.6123 54.2868 81.0177C54.2868 81.4657 54.1534 81.8763 53.8868 82.2497C53.6308 82.623 53.2468 82.9217 52.7348 83.1457C52.2334 83.359 51.6094 83.4657 50.8628 83.4657ZM59.0514 83.3057C58.454 83.3057 57.9687 83.1937 57.5954 82.9697C57.222 82.735 56.95 82.4097 56.7794 81.9937C56.6087 81.567 56.5234 81.0657 56.5234 80.4897V76.2657H55.2754C55.1687 76.2657 55.078 76.2337 55.0034 76.1697C54.9394 76.095 54.9074 76.0043 54.9074 75.8977V75.3537C54.9074 75.247 54.9394 75.1617 55.0034 75.0977C55.078 75.023 55.1687 74.9857 55.2754 74.9857H56.5234V72.3137C56.5234 72.207 56.5554 72.1217 56.6194 72.0577C56.694 71.983 56.7847 71.9457 56.8914 71.9457H57.6434C57.75 71.9457 57.8354 71.983 57.8994 72.0577C57.974 72.1217 58.0114 72.207 58.0114 72.3137V74.9857H59.9954C60.102 74.9857 60.1874 75.023 60.2514 75.0977C60.326 75.1617 60.3634 75.247 60.3634 75.3537V75.8977C60.3634 76.0043 60.326 76.095 60.2514 76.1697C60.1874 76.2337 60.102 76.2657 59.9954 76.2657H58.0114V80.3777C58.0114 80.879 58.0967 81.2737 58.2674 81.5617C58.438 81.8497 58.742 81.9937 59.1794 81.9937H60.1554C60.262 81.9937 60.3474 82.031 60.4114 82.1057C60.486 82.1697 60.5234 82.255 60.5234 82.3617V82.9377C60.5234 83.0443 60.486 83.135 60.4114 83.2097C60.3474 83.2737 60.262 83.3057 60.1554 83.3057H59.0514ZM67.6552 83.4657C67.1219 83.4657 66.6366 83.359 66.1992 83.1457C65.7619 82.9323 65.4099 82.6443 65.1432 82.2817C64.8766 81.919 64.7432 81.5083 64.7432 81.0497C64.7432 80.3137 65.0419 79.727 65.6392 79.2897C66.2366 78.8523 67.0152 78.5643 67.9752 78.4257L70.3592 78.0897V77.6257C70.3592 77.1137 70.2099 76.7137 69.9112 76.4257C69.6232 76.1377 69.1486 75.9937 68.4872 75.9937C68.0072 75.9937 67.6179 76.0897 67.3192 76.2817C67.0312 76.4737 66.8286 76.719 66.7112 77.0177C66.6472 77.1777 66.5352 77.2577 66.3752 77.2577H65.6552C65.5379 77.2577 65.4472 77.2257 65.3832 77.1617C65.3299 77.087 65.3032 77.0017 65.3032 76.9057C65.3032 76.7457 65.3619 76.5483 65.4792 76.3137C65.6072 76.079 65.7992 75.8497 66.0552 75.6257C66.3112 75.4017 66.6366 75.215 67.0312 75.0657C67.4366 74.9057 67.9272 74.8257 68.5032 74.8257C69.1432 74.8257 69.6819 74.911 70.1192 75.0817C70.5566 75.2417 70.8979 75.4603 71.1432 75.7377C71.3992 76.015 71.5806 76.3297 71.6872 76.6817C71.8046 77.0337 71.8632 77.391 71.8632 77.7537V82.9377C71.8632 83.0443 71.8259 83.135 71.7512 83.2097C71.6872 83.2737 71.6019 83.3057 71.4952 83.3057H70.7592C70.6419 83.3057 70.5512 83.2737 70.4872 83.2097C70.4232 83.135 70.3912 83.0443 70.3912 82.9377V82.2497C70.2526 82.4417 70.0659 82.6337 69.8312 82.8257C69.5966 83.007 69.3032 83.1617 68.9512 83.2897C68.5992 83.407 68.1672 83.4657 67.6552 83.4657ZM67.9912 82.2657C68.4286 82.2657 68.8286 82.175 69.1912 81.9937C69.5539 81.8017 69.8366 81.5083 70.0392 81.1137C70.2526 80.719 70.3592 80.223 70.3592 79.6257V79.1777L68.5032 79.4497C67.7459 79.5563 67.1752 79.7377 66.7912 79.9937C66.4072 80.239 66.2152 80.5537 66.2152 80.9377C66.2152 81.2363 66.3006 81.487 66.4712 81.6897C66.6526 81.8817 66.8766 82.0257 67.1432 82.1217C67.4206 82.2177 67.7032 82.2657 67.9912 82.2657ZM76.8834 83.4657C76.2967 83.4657 75.79 83.3643 75.3634 83.1617C74.9367 82.9483 74.5847 82.6657 74.3074 82.3137C74.0407 81.951 73.838 81.5403 73.6994 81.0817C73.5714 80.623 73.4967 80.1377 73.4754 79.6257C73.4647 79.455 73.4594 79.295 73.4594 79.1457C73.4594 78.9963 73.4647 78.8363 73.4754 78.6657C73.4967 78.1643 73.5714 77.6843 73.6994 77.2257C73.838 76.767 74.0407 76.3563 74.3074 75.9937C74.5847 75.631 74.9367 75.3483 75.3634 75.1457C75.79 74.9323 76.2967 74.8257 76.8834 74.8257C77.5127 74.8257 78.0354 74.9377 78.4514 75.1617C78.8674 75.3857 79.2087 75.663 79.4754 75.9937V72.3137C79.4754 72.207 79.5074 72.1217 79.5714 72.0577C79.646 71.983 79.7367 71.9457 79.8434 71.9457H80.6114C80.718 71.9457 80.8034 71.983 80.8674 72.0577C80.942 72.1217 80.9794 72.207 80.9794 72.3137V82.9377C80.9794 83.0443 80.942 83.135 80.8674 83.2097C80.8034 83.2737 80.718 83.3057 80.6114 83.3057H79.8914C79.774 83.3057 79.6834 83.2737 79.6194 83.2097C79.5554 83.135 79.5234 83.0443 79.5234 82.9377V82.2657C79.2567 82.607 78.91 82.895 78.4834 83.1297C78.0567 83.3537 77.5234 83.4657 76.8834 83.4657ZM77.2194 82.1697C77.7527 82.1697 78.1794 82.047 78.4994 81.8017C78.8194 81.5563 79.0594 81.247 79.2194 80.8737C79.3794 80.4897 79.4647 80.1003 79.4754 79.7057C79.486 79.535 79.4914 79.3323 79.4914 79.0977C79.4914 78.8523 79.486 78.6443 79.4754 78.4737C79.4647 78.1003 79.374 77.7323 79.2034 77.3697C79.0434 77.007 78.798 76.7083 78.4674 76.4737C78.1474 76.239 77.7314 76.1217 77.2194 76.1217C76.6754 76.1217 76.2434 76.2443 75.9234 76.4897C75.6034 76.7243 75.374 77.039 75.2354 77.4337C75.0967 77.8177 75.0167 78.2337 74.9954 78.6817C74.9847 78.991 74.9847 79.3003 74.9954 79.6097C75.0167 80.0577 75.0967 80.479 75.2354 80.8737C75.374 81.2577 75.6034 81.5723 75.9234 81.8177C76.2434 82.0523 76.6754 82.1697 77.2194 82.1697ZM86.143 83.4657C85.4603 83.4657 84.879 83.3163 84.399 83.0177C83.9297 82.7083 83.5723 82.2817 83.327 81.7377C83.0817 81.1937 82.959 80.5697 82.959 79.8657V75.3537C82.959 75.247 82.991 75.1617 83.055 75.0977C83.1297 75.023 83.2203 74.9857 83.327 74.9857H84.127C84.2337 74.9857 84.319 75.023 84.383 75.0977C84.4577 75.1617 84.495 75.247 84.495 75.3537V79.7857C84.495 81.375 85.1883 82.1697 86.575 82.1697C87.2363 82.1697 87.7643 81.9617 88.159 81.5457C88.5643 81.119 88.767 80.5323 88.767 79.7857V75.3537C88.767 75.247 88.799 75.1617 88.863 75.0977C88.9377 75.023 89.0283 74.9857 89.135 74.9857H89.919C90.0363 74.9857 90.127 75.023 90.191 75.0977C90.255 75.1617 90.287 75.247 90.287 75.3537V82.9377C90.287 83.0443 90.255 83.135 90.191 83.2097C90.127 83.2737 90.0363 83.3057 89.919 83.3057H89.183C89.0763 83.3057 88.9857 83.2737 88.911 83.2097C88.847 83.135 88.815 83.0443 88.815 82.9377V82.2337C88.527 82.607 88.175 82.9057 87.759 83.1297C87.3537 83.3537 86.815 83.4657 86.143 83.4657ZM92.728 83.3057C92.6213 83.3057 92.5307 83.2737 92.456 83.2097C92.392 83.135 92.36 83.0443 92.36 82.9377V72.3137C92.36 72.207 92.392 72.1217 92.456 72.0577C92.5307 71.983 92.6213 71.9457 92.728 71.9457H93.48C93.5973 71.9457 93.688 71.983 93.752 72.0577C93.816 72.1217 93.848 72.207 93.848 72.3137V82.9377C93.848 83.0443 93.816 83.135 93.752 83.2097C93.688 83.2737 93.5973 83.3057 93.48 83.3057H92.728ZM99.1626 83.3057C98.5653 83.3057 98.08 83.1937 97.7066 82.9697C97.3333 82.735 97.0613 82.4097 96.8906 81.9937C96.72 81.567 96.6346 81.0657 96.6346 80.4897V76.2657H95.3866C95.28 76.2657 95.1893 76.2337 95.1146 76.1697C95.0506 76.095 95.0186 76.0043 95.0186 75.8977V75.3537C95.0186 75.247 95.0506 75.1617 95.1146 75.0977C95.1893 75.023 95.28 74.9857 95.3866 74.9857H96.6346V72.3137C96.6346 72.207 96.6666 72.1217 96.7306 72.0577C96.8053 71.983 96.896 71.9457 97.0026 71.9457H97.7546C97.8613 71.9457 97.9466 71.983 98.0106 72.0577C98.0853 72.1217 98.1226 72.207 98.1226 72.3137V74.9857H100.107C100.213 74.9857 100.299 75.023 100.363 75.0977C100.437 75.1617 100.475 75.247 100.475 75.3537V75.8977C100.475 76.0043 100.437 76.095 100.363 76.1697C100.299 76.2337 100.213 76.2657 100.107 76.2657H98.1226V80.3777C98.1226 80.879 98.208 81.2737 98.3786 81.5617C98.5493 81.8497 98.8533 81.9937 99.2906 81.9937H100.267C100.373 81.9937 100.459 82.031 100.523 82.1057C100.597 82.1697 100.635 82.255 100.635 82.3617V82.9377C100.635 83.0443 100.597 83.135 100.523 83.2097C100.459 83.2737 100.373 83.3057 100.267 83.3057H99.1626ZM104.725 83.4657C104.127 83.4657 103.615 83.391 103.189 83.2417C102.762 83.0923 102.415 82.911 102.149 82.6977C101.882 82.4843 101.679 82.271 101.541 82.0577C101.413 81.8443 101.343 81.6737 101.333 81.5457C101.322 81.4283 101.359 81.3377 101.445 81.2737C101.53 81.2097 101.615 81.1777 101.701 81.1777H102.405C102.469 81.1777 102.517 81.1883 102.549 81.2097C102.591 81.2203 102.645 81.263 102.709 81.3377C102.847 81.487 103.002 81.6363 103.173 81.7857C103.343 81.935 103.551 82.0577 103.797 82.1537C104.053 82.2497 104.367 82.2977 104.741 82.2977C105.285 82.2977 105.733 82.1963 106.085 81.9937C106.437 81.7803 106.613 81.471 106.613 81.0657C106.613 80.799 106.538 80.5857 106.389 80.4257C106.25 80.2657 105.994 80.1217 105.621 79.9937C105.258 79.8657 104.757 79.7323 104.117 79.5937C103.477 79.4443 102.97 79.263 102.597 79.0497C102.223 78.8257 101.957 78.5643 101.797 78.2657C101.637 77.9563 101.557 77.6097 101.557 77.2257C101.557 76.831 101.674 76.4523 101.909 76.0897C102.143 75.7163 102.485 75.4123 102.933 75.1777C103.391 74.943 103.962 74.8257 104.645 74.8257C105.199 74.8257 105.674 74.895 106.069 75.0337C106.463 75.1723 106.789 75.3483 107.045 75.5617C107.301 75.7643 107.493 75.967 107.621 76.1697C107.749 76.3723 107.818 76.543 107.829 76.6817C107.839 76.7883 107.807 76.879 107.733 76.9537C107.658 77.0177 107.573 77.0497 107.477 77.0497H106.805C106.73 77.0497 106.666 77.0337 106.613 77.0017C106.57 76.9697 106.527 76.9323 106.485 76.8897C106.378 76.751 106.25 76.6123 106.101 76.4737C105.962 76.335 105.775 76.223 105.541 76.1377C105.317 76.0417 105.018 75.9937 104.645 75.9937C104.111 75.9937 103.711 76.1057 103.445 76.3297C103.178 76.5537 103.045 76.8363 103.045 77.1777C103.045 77.3803 103.103 77.5617 103.221 77.7217C103.338 77.8817 103.562 78.0257 103.893 78.1537C104.223 78.2817 104.714 78.4203 105.365 78.5697C106.069 78.7083 106.623 78.895 107.029 79.1297C107.434 79.3643 107.722 79.6363 107.893 79.9457C108.063 80.255 108.149 80.6123 108.149 81.0177C108.149 81.4657 108.015 81.8763 107.749 82.2497C107.493 82.623 107.109 82.9217 106.597 83.1457C106.095 83.359 105.471 83.4657 104.725 83.4657Z"
     fill="#36342C"
     id="path3" />
</svg>
